<?xml version="1.0" encoding="utf-8"?>
<!-- Generator: Adobe Illustrator 23.0.3, SVG Export Plug-In . SVG Version: 6.00 Build 0)  -->
<svg version="1.1" id="Слой_1" xmlns="http://www.w3.org/2000/svg" xmlns:xlink="http://www.w3.org/1999/xlink" x="0px" y="0px"
	 viewBox="0 0 140 38.2" style="enable-background:new 0 0 140 38.2;" xml:space="preserve">
<style type="text/css">
	.st0{fill:#FFFFFF;}
</style>
<g>
	<path class="st0" d="M9.9,25.8h0.6c0.4,0,0.7-0.1,1-0.2c0.2-0.1,0.3-0.3,0.3-0.6V12.5c0-0.3-0.1-0.5-0.3-0.6
		c-0.2-0.1-0.5-0.2-1-0.2H9.9v-0.6H14l5.1,11.7l5.1-11.7h4.4v0.6H28c-0.4,0-0.7,0.1-1,0.2c-0.2,0.1-0.3,0.3-0.3,0.6v12.6
		c0,0.3,0.1,0.5,0.3,0.6c0.2,0.1,0.5,0.2,1,0.2h0.6v0.6h-6v-0.6h0.6c0.9,0,1.3-0.3,1.3-0.8V13l-5.3,11.8h-1.3L12.9,13v12
		c0,0.5,0.4,0.8,1.3,0.8h0.7v0.6H9.9V25.8z"/>
</g>
<path class="st0" d="M38.2,38.2H0V0h38.2V38.2z M1.7,36.5h34.7V1.7H1.7V36.5z"/>
<path class="st0" d="M35.1,35.1H3.1V3.1h31.9V35.1z M3.8,34.4h30.5V3.8H3.8V34.4z"/>
<g>
	<path class="st0" d="M54.1,9.3v16.6c0,0.2,0,0.3-0.1,0.4c-0.1,0.1-0.4,0.1-0.8,0.1c-0.5,0-1.1,0-1.9,0l0.1-4.7
		c0-1.2,0.1-2.3,0.2-3.4c0.1-1.1,0.2-2,0.3-2.7c0.1-0.7,0.2-1.1,0.2-1.3l-0.1,0c-0.6,2.4-1,3.9-1.2,4.5l-1.2,3.3
		c0,0.1-0.1,0.2-0.3,0.2h-1.1l-1.1-3.4c-0.2-0.7-0.6-2.2-1.2-4.5l-0.1,0c0,0.2,0.1,0.6,0.2,1.3c0.1,0.7,0.2,1.6,0.3,2.6
		c0.1,1.1,0.2,2.2,0.2,3.4l0.1,4.2c0,0.2,0,0.3-0.1,0.4c-0.1,0.1-0.4,0.1-0.8,0.1c-0.4,0-1,0-1.7,0V9.8c0-0.2,0-0.3,0.1-0.4
		c0.1-0.1,0.2-0.1,0.4-0.1h2.1l2,6.1c0.2,0.6,0.4,1.2,0.5,1.6c0.1,0.5,0.2,0.7,0.2,0.9c0-0.1,0.1-0.4,0.2-0.9c0.1-0.5,0.2-1,0.4-1.6
		l1.7-5.6c0.1-0.2,0.1-0.3,0.2-0.4c0.1-0.1,0.2-0.1,0.3-0.1H54.1z"/>
	<path class="st0" d="M58.7,24h3.5c0,0.7,0,1.2,0,1.6c0,0.4-0.1,0.6-0.1,0.7c-0.1,0.1-0.2,0.1-0.3,0.1H56V9.8c0-0.1,0-0.2,0.1-0.3
		c0.1-0.1,0.2-0.2,0.4-0.2h5.9c0,0.6,0,1.1,0,1.5c0,0.4-0.1,0.6-0.1,0.7c-0.1,0.1-0.2,0.2-0.3,0.2h-3.2v4.2h3c0,0.6,0,1.1,0,1.5
		c0,0.4-0.1,0.7-0.1,0.8c-0.1,0.1-0.2,0.2-0.3,0.2h-2.5V24z"/>
	<path class="st0" d="M64.5,30.2c-0.2,0-0.4-0.1-0.5-0.2c-0.1-0.1-0.1-0.3-0.1-0.5v-5.6h0.5c0.4,0,0.7-0.3,1-0.8
		c0.2-0.6,0.4-1.8,0.6-3.7c0.2-1.9,0.4-5.1,0.6-9.5c0-0.2,0-0.3,0.1-0.4c0-0.1,0.2-0.1,0.5-0.1c0.3,0,0.7,0,1.2,0h4.9v14.6h1.2v5.6
		c0,0.2,0,0.4-0.1,0.5c-0.1,0.1-0.2,0.2-0.5,0.2c-0.2,0-0.6,0-1.1,0c-0.2-0.8-0.4-1.5-0.5-2.1c-0.1-0.5-0.2-1.1-0.2-1.8h-5.8
		c0,0.6-0.1,1.2-0.2,1.7c-0.1,0.5-0.3,1.2-0.5,2.1C65,30.2,64.7,30.2,64.5,30.2z M70.5,23.9v-12h-1.4c-0.2,3.4-0.5,6-0.7,7.8
		c-0.2,1.8-0.5,3.2-0.9,4.2H70.5z"/>
	<path class="st0" d="M76.1,9.8c0-0.2,0-0.3,0.1-0.3c0.1,0,0.3-0.1,0.7-0.1c0.4,0,1,0,1.7,0v6.9c0,1.3-0.1,3-0.3,5
		c0.3-1,0.7-2.3,1.2-3.8l0.4-1.1l2-6.3c0.1-0.2,0.2-0.4,0.3-0.5c0.1-0.1,0.3-0.1,0.6-0.1c0.3,0,0.8,0,1.6,0v16.6
		c0,0.2,0,0.3-0.1,0.3c-0.1,0.1-0.4,0.1-0.8,0.1c-0.4,0-1,0-1.6,0v-6.1c0-0.7,0-1.6,0.1-2.7c0.1-1.1,0.1-2,0.2-2.9
		c-0.3,1.8-0.8,3.5-1.4,5.2l-2,5.7c-0.1,0.2-0.2,0.4-0.3,0.5c-0.1,0.1-0.3,0.1-0.6,0.1c-0.3,0-0.9,0-1.7,0V9.8z"/>
	<path class="st0" d="M96.1,26.3c-0.2,0.1-0.5,0.1-1,0.1c-0.6,0-1.1,0-1.6,0l-0.8-3.9h-3.3l-0.7,3.4c0,0.2-0.1,0.3-0.3,0.4
		c-0.1,0.1-0.5,0.1-1,0.1c-0.6,0-1.1,0-1.7-0.1l4.1-16.6c0.1-0.3,0.4-0.5,1.1-0.5c0.6,0,1,0,1.3,0.1L96.3,26
		C96.3,26.1,96.2,26.3,96.1,26.3z M92.2,20.1l-0.5-2.3c-0.2-1.2-0.5-2.7-0.6-4.6c-0.2,2.1-0.4,3.6-0.7,4.6l-0.5,2.3H92.2z"/>
	<path class="st0" d="M101.8,9.8c0-0.2,0-0.3,0.1-0.4c0.1-0.1,0.4-0.1,0.8-0.1c0.4,0,1,0,1.8,0h4.9v16.6c0,0.2,0,0.3-0.1,0.4
		c-0.1,0.1-0.3,0.1-0.8,0.1c-0.4,0-1,0-1.8,0V11.8h-2.2v14.1c0,0.2,0,0.3-0.1,0.4c-0.1,0.1-0.3,0.1-0.8,0.1c-0.4,0-1,0-1.8,0V9.8z"
		/>
	<path class="st0" d="M121.2,26.3c-0.2,0.1-0.5,0.1-1,0.1c-0.6,0-1.1,0-1.6,0l-0.8-3.9h-3.3l-0.7,3.4c0,0.2-0.1,0.3-0.3,0.4
		c-0.1,0.1-0.5,0.1-1,0.1c-0.6,0-1.1,0-1.7-0.1l4.1-16.6c0.1-0.3,0.4-0.5,1.1-0.5c0.6,0,1,0,1.3,0.1l4.1,16.6
		C121.4,26.1,121.3,26.3,121.2,26.3z M117.3,20.1l-0.5-2.3c-0.2-1.2-0.5-2.7-0.6-4.6c-0.2,2.1-0.4,3.6-0.7,4.6l-0.5,2.3H117.3z"/>
	<path class="st0" d="M128.2,9.7c0.7,0.3,1.2,0.8,1.6,1.5c0.4,0.7,0.5,1.8,0.5,3.1c0,2-0.4,3.4-1.3,4.3c-0.9,0.8-2,1.2-3.3,1.2h-0.2
		v6.1c0,0.2,0,0.3-0.1,0.4c-0.1,0.1-0.3,0.1-0.8,0.1c-0.4,0-1,0-1.8,0V9.8c0-0.2,0-0.3,0.1-0.4c0.1-0.1,0.2-0.1,0.4-0.1h2.3
		C126.7,9.3,127.6,9.4,128.2,9.7z M127,16.6c0.2-0.5,0.3-1.3,0.3-2.6c0-0.8-0.1-1.4-0.3-1.8c-0.2-0.4-0.5-0.6-0.8-0.6h-0.7v5.6h0.5
		C126.4,17.3,126.8,17.1,127,16.6z"/>
	<path class="st0" d="M136.8,26.4l-0.2-4.4c0-0.9-0.1-1.5-0.3-2c-0.1-0.5-0.3-0.8-0.5-0.9c-0.2-0.1-0.5-0.2-0.8-0.2h-0.3v7.1
		c0,0.2,0,0.3-0.1,0.4c-0.1,0.1-0.3,0.1-0.8,0.1c-0.4,0-1.1,0-1.8,0V9.8c0-0.2,0-0.3,0.1-0.4c0.1-0.1,0.3-0.1,0.8-0.1
		c0.4,0,1.1,0,1.8,0v6.9h0.4c0.3,0,0.5-0.1,0.7-0.4c0.2-0.3,0.4-0.7,0.5-1.3l0.8-5c0.6-0.1,1.2-0.2,1.7-0.2c0.4,0,0.7,0,0.9,0.1
		c0.2,0.1,0.2,0.2,0.2,0.4c0,0.1,0,0.1,0,0.2l-1,5c-0.2,1.1-0.7,1.8-1.3,2.3c1.1,0.6,1.7,2.1,1.9,4.4l0.3,4.3c0,0.2,0,0.4-0.2,0.5
		c-0.1,0.1-0.5,0.1-0.9,0.1C138.2,26.5,137.5,26.4,136.8,26.4z"/>
</g>
</svg>
