<?xml version="1.0" encoding="utf-8"?>
<!-- Generator: Adobe Illustrator 22.1.0, SVG Export Plug-In . SVG Version: 6.00 Build 0)  -->
<svg version="1.1" id="Capa_1" xmlns="http://www.w3.org/2000/svg" xmlns:xlink="http://www.w3.org/1999/xlink" x="0px" y="0px"
	 viewBox="178.5 368.5 57 57" style="enable-background:new 178.5 368.5 57 57;" xml:space="preserve">
<path d="M187.8,415.7c-1.6,1.1-2.5,2.8-2.5,4.8c0,1.9,0.9,3.7,2.5,4.8c0.8,0.5,1.8,0.3,2.3-0.5c0.5-0.8,0.3-1.8-0.5-2.3
	c-0.7-0.4-1-1.2-1-2s0.4-1.6,1-2c1.6-1.1,2.5-2.8,2.5-4.7c0-1.9-0.9-3.7-2.5-4.7c-0.8-0.5-1.8-0.3-2.3,0.5c-0.5,0.8-0.3,1.8,0.5,2.3
	c0.7,0.4,1,1.2,1,2C188.8,414.5,188.5,415.2,187.8,415.7z"/>
<path d="M199.5,415.7c-1.6,1.1-2.5,2.8-2.5,4.8c0,1.9,0.9,3.7,2.5,4.8c0.8,0.5,1.8,0.3,2.3-0.5c0.5-0.8,0.3-1.8-0.5-2.3
	c-0.7-0.4-1-1.2-1-2s0.4-1.6,1-2c1.6-1.1,2.5-2.8,2.5-4.7c0-1.9-0.9-3.7-2.5-4.7c-0.8-0.5-1.8-0.3-2.3,0.5c-0.5,0.8-0.3,1.8,0.5,2.3
	c0.7,0.4,1,1.2,1,2C200.5,414.5,200.1,415.2,199.5,415.7z"/>
<path d="M222.9,415.7c-1.6,1.1-2.5,2.8-2.5,4.8c0,1.9,0.9,3.7,2.5,4.8c0.8,0.5,1.8,0.3,2.3-0.5c0.5-0.8,0.3-1.8-0.5-2.3
	c-0.7-0.4-1-1.2-1-2s0.4-1.6,1-2c1.6-1.1,2.5-2.8,2.5-4.7c0-1.9-0.9-3.7-2.5-4.7c-0.8-0.5-1.8-0.3-2.3,0.5c-0.5,0.8-0.3,1.8,0.5,2.3
	c0.7,0.4,1,1.2,1,2C223.9,414.5,223.5,415.2,222.9,415.7z"/>
<path d="M211.2,415.7c-1.6,1.1-2.5,2.8-2.5,4.8c0,1.9,0.9,3.7,2.5,4.8c0.8,0.5,1.8,0.3,2.3-0.5c0.5-0.8,0.3-1.8-0.5-2.3
	c-0.7-0.4-1-1.2-1-2s0.4-1.6,1-2c1.6-1.1,2.5-2.8,2.5-4.7c0-1.9-0.9-3.7-2.5-4.7c-0.8-0.5-1.8-0.3-2.3,0.5c-0.5,0.8-0.3,1.8,0.5,2.3
	c0.7,0.4,1,1.2,1,2C212.2,414.5,211.8,415.2,211.2,415.7z"/>
<path d="M234.9,395.7l-16.2-12.9v-12.7c0-0.9-0.7-1.7-1.7-1.7h-20c-0.9,0-1.7,0.7-1.7,1.7v12.7l-16.2,12.9c-0.4,0.3-0.6,0.8-0.6,1.3
	v6.7c0,0.9,0.7,1.7,1.7,1.7h53.7c0.9,0,1.7-0.7,1.7-1.7V397C235.5,396.5,235.3,396,234.9,395.7z M198.7,371.8h16.7V382h-16.7V371.8
	L198.7,371.8z M197.6,385.3h18.9l12.6,10H185L197.6,385.3z M232.2,402h-50.3v-3.3h50.3V402z"/>
</svg>
