<?xml version="1.0" encoding="utf-8"?>
<!-- Generator: Adobe Illustrator 22.1.0, SVG Export Plug-In . SVG Version: 6.00 Build 0)  -->
<svg version="1.1" id="Layer_2" xmlns="http://www.w3.org/2000/svg" xmlns:xlink="http://www.w3.org/1999/xlink" x="0px" y="0px"
	 viewBox="0 0 63 72.3" style="enable-background:new 0 0 63 72.3;" xml:space="preserve">
<style type="text/css">
	.st0{fill:#40ACE7;}
</style>
<g>
	<path class="st0" d="M34.5,72v-6.1h-5.6V72h-1.8v-13h1.8v5.3h5.6v-5.3h1.9v13H34.5 M48.4,72h1.9v-13h-2.2l-5.2,10.3h-0.1V59.1H41
		v13h2.2l5.2-10.2h0V72 M59.2,60.7h3.5v-1.6h-8.9v1.6h3.5V72h1.9V60.7 M17,59.1H20L24.2,72h-2l-1-3.3h-5.4l-1,3.3h-1.8L17,59.1
		L17,59.1z M16.2,67.2h4.5l-2.2-7.4h0L16.2,67.2 M2.3,59.1V62c0,3.8-0.2,5.1-0.3,5.8c-0.2,1.4-0.7,2.2-1.2,2.5
		c-0.2,0.1-0.4,0.2-0.6,0.2L0,72.3c0.6-0.1,1.4-0.2,1.9-0.5c1.5-1,1.8-3,1.9-4.7c0.1-0.9,0.2-2.6,0.2-5v-1.3h4.1V72h1.9v-13H2.3z"/>
	<path class="st0" d="M59.2,29.6c-4.9,0-9.3,2.4-12,6.1c-0.3-1.5-0.7-3-1.1-4.4c3.3-3.3,8-5.4,13.1-5.4l3.7,0l0-3.7l-3.7,0
		c-5.5,0-10.5,2-14.4,5.3c-0.5-1.2-1-2.3-1.6-3.5c4.4-3.5,10-5.6,16-5.6l3.7,0l0-3.7l-3.7,0c-6.7,0-12.9,2.2-17.9,6
		c-0.7-1-1.4-2.1-2.1-3.1c5.6-4.2,12.5-6.7,20-6.7l3.7,0V7.4l-3.7,0c-8.4,0-16.1,2.8-22.3,7.5c-0.8-0.9-1.7-1.8-2.6-2.7
		c6.9-5.3,15.5-8.5,24.9-8.5l3.7,0V0l-3.7,0C48.7,0,39.1,3.7,31.5,9.8C23.9,3.7,14.3,0,3.8,0L0,0v3.7l3.7,0c9.4,0,18,3.2,24.9,8.5
		c-0.9,0.9-1.8,1.7-2.6,2.7c-6.2-4.7-13.9-7.5-22.3-7.5L0,7.4v3.7l3.7,0c7.5,0,14.4,2.5,20,6.7c-0.7,1-1.4,2-2.1,3.1
		c-5-3.8-11.2-6-17.9-6l-3.7,0l0,3.7l3.7,0c6.1,0,11.6,2.1,16,5.6c-0.6,1.1-1.1,2.3-1.6,3.5c-3.9-3.3-8.9-5.3-14.4-5.3l-3.7,0l0,3.7
		l3.7,0c5.1,0,9.7,2.1,13.1,5.4c-0.4,1.4-0.8,2.9-1.1,4.4c-2.7-3.7-7-6.1-12-6.1l-3.8,0v3.7l3.8,0c6.1,0,11.1,5,11.1,11.1l0,7.4
		l3.7,0l0-2l0-5.4c0-3.2,0.4-6.4,1.1-9.4c1.6,2.8,2.6,6,2.6,9.4l0,7.4h0h3.7h0l0-4.8l0-2.6c0-3.6,0.6-7,1.6-10.2
		c1.3,3.1,2.1,6.6,2.1,10.2l0,7.4h0h3.6h0l0-7.4c0-3.6,0.7-7.1,2.1-10.2c1,3.2,1.6,6.6,1.6,10.2l0,2.6l0,4.8h0h3.7h0l0-7.4
		c0-3.4,0.9-6.7,2.6-9.4c0.7,3,1.1,6.2,1.1,9.4l0,5.4l0,2l3.7,0l0-7.4c0-6.1,5-11.1,11.1-11.1l3.8,0v-3.7L59.2,29.6z M38.5,23.3
		c-0.9,0.9-1.8,1.9-2.6,2.9c-0.6-1.1-1.3-2.2-2.1-3.3c0.8-1,1.7-1.9,2.6-2.7C37.2,21.1,37.9,22.2,38.5,23.3z M31.5,14.6
		c0.9,0.8,1.8,1.7,2.6,2.6c-0.9,0.8-1.8,1.7-2.6,2.7c-0.8-0.9-1.7-1.8-2.6-2.7C29.7,16.4,30.6,15.5,31.5,14.6z M26.6,20.1
		c0.9,0.9,1.8,1.8,2.6,2.7c-0.8,1.1-1.5,2.1-2.1,3.3c-0.8-1-1.7-2-2.6-2.9C25.1,22.2,25.8,21.1,26.6,20.1z M23.6,34.5
		c-0.7-1.4-1.6-2.8-2.6-4c0.5-1.3,1-2.6,1.6-3.8c0.9,1,1.8,2.1,2.6,3.2C24.6,31.4,24.1,32.9,23.6,34.5z M31.5,34.1
		c-0.6-1.6-1.3-3-2.1-4.5c0.6-1.3,1.3-2.5,2.1-3.6c0.8,1.2,1.5,2.4,2.1,3.6C32.8,31,32.1,32.5,31.5,34.1z M39.4,34.5
		c-0.4-1.6-1-3.1-1.6-4.6c0.8-1.1,1.6-2.2,2.6-3.2c0.6,1.2,1.1,2.5,1.6,3.8C41,31.7,40.1,33,39.4,34.5z"/>
</g>
</svg>
