<?xml version="1.0" encoding="utf-8"?>
<!-- Generator: Adobe Illustrator 22.1.0, SVG Export Plug-In . SVG Version: 6.00 Build 0)  -->
<svg version="1.1" id="Слой_1" xmlns="http://www.w3.org/2000/svg" xmlns:xlink="http://www.w3.org/1999/xlink" x="0px" y="0px"
	 viewBox="0 0 295.2 41" style="enable-background:new 0 0 295.2 41;" xml:space="preserve">
<style type="text/css">
	.st0{fill:#002D6A;}
	.st1{fill:#333333;}
	.st2{fill:#98002E;}
	.st3{fill:#DCDDDE;}
	.st4{fill:#D9D9D9;}
	.st5{fill:#003A63;}
	.st6{fill:#999999;}
	.st7{fill:#808285;}
</style>
<g>
	<path class="st0" d="M82.9,36.8h0.5l12.2-15.5h6.5l-2.9,19.3h-3.9l2.3-15.5h-0.5L85.1,40.6h-6.7l2.9-19.3h3.9L82.9,36.8z"/>
	<path class="st0" d="M110,28.7h10l1.1-7.4h3.9l-2.9,19.3h-3.9l1.2-8.1h-10l-1.2,8.1h-3.9l2.9-19.3h3.9L110,28.7z"/>
	<path class="st0" d="M146.9,33.9c-0.8,5.2-2.1,6.7-6.9,6.7h-7.2c-4.5,0-5.7-1.6-4.9-6.8l0.8-5.5c0.8-5.7,2.6-7.2,7.4-7.2h6.5
		c3.8,0,6.1,1.3,5.3,6.7h-3.9c0.3-2-0.4-2.9-2.7-2.9h-5c-2.6,0-3.2,0.5-3.7,3.6l-0.7,4.8c-0.4,3,0.4,3.5,2.6,3.5h5
		c2.3,0,3.2-0.5,3.5-2.8L146.9,33.9L146.9,33.9z"/>
	<path class="st0" d="M155.3,36.8h0.5l12.2-15.5h6.5l-2.9,19.3h-3.9l2.3-15.5h-0.5l-12.1,15.5h-6.7l2.9-19.3h3.9L155.3,36.8z"/>
	<path class="st0" d="M196.7,33.9c-0.8,5.2-2.1,6.7-6.9,6.7h-7.2c-4.5,0-5.7-1.6-4.9-6.8l0.8-5.5c0.8-5.7,2.6-7.2,7.4-7.2h6.5
		c3.8,0,6.1,1.3,5.3,6.7h-3.9c0.3-2-0.4-2.9-2.7-2.9h-5c-2.6,0-3.2,0.5-3.7,3.6l-0.7,4.8c-0.4,3,0.4,3.5,2.6,3.5h5
		c2.3,0,3.2-0.5,3.5-2.8L196.7,33.9L196.7,33.9z"/>
	<path class="st0" d="M220.4,21.3l-0.6,3.8H213l-2.3,15.5h-3.9l2.3-15.5h-6.8l0.6-3.8C202.9,21.3,220.4,21.3,220.4,21.3z"/>
	<path class="st0" d="M224.7,21.3h16.6l-0.5,3.7h-12.7l-0.6,4.2h12.3l-0.5,3.4h-12.3l-0.7,4.4H239l-0.5,3.7h-16.6L224.7,21.3z"/>
	<path class="st0" d="M253.9,21.3l3.1,15.5h0.2l7.7-15.5h7.2l-2.9,19.3h-3.9l2.3-15.5h-0.5l-7.9,15.5h-5.5l-3.3-15.5H250l-2.3,15.5
		h-3.9l2.9-19.3H253.9z"/>
	<path class="st0" d="M294.2,33.9c-0.8,5.2-2.1,6.7-6.9,6.7h-7.2c-4.5,0-5.7-1.6-4.9-6.8l0.8-5.5c0.8-5.7,2.6-7.2,7.4-7.2h6.5
		c3.8,0,6.1,1.3,5.3,6.7h-3.9c0.3-2-0.4-2.9-2.7-2.9h-5c-2.6,0-3.2,0.5-3.7,3.6l-0.7,4.8c-0.4,3,0.4,3.5,2.6,3.5h5
		c2.3,0,3.2-0.5,3.5-2.8L294.2,33.9L294.2,33.9z"/>
</g>
<path d="M90.3,1.4l-5.7,6.9V0.1h0.5v6.8L90.8,0v8.1h-0.5C90.3,8.1,90.3,1.4,90.3,1.4z"/>
<path d="M95.2,3.2h0.5v2.2h2.8V3.2h0.5v4.9h-0.5V5.8h-2.8v2.3h-0.5V3.2z"/>
<path d="M105.8,3.2v2.3l2.2-2.3h0.6l-2.3,2.4l2.5,2.5h-0.6L106,5.9l-0.2,0.2v2h-0.5v-2L105,5.9l-2.1,2.2h-0.6l2.5-2.5l-2.3-2.4h0.6
	l2.2,2.3V3.2H105.8z"/>
<path d="M112.3,5.7c-0.1,1.2,0.9,2.1,1.9,2.1c0.8,0,1.4-0.5,1.7-1.1l0.4,0.2c-0.3,0.6-0.9,1.3-2.1,1.3c-1.5,0-2.4-1.1-2.4-2.6
	c0-1.7,1.2-2.6,2.4-2.6c1.3,0,2.4,1.1,2.3,2.6L112.3,5.7L112.3,5.7z M116,5.2c-0.1-1-0.8-1.7-1.8-1.7c-1,0-1.7,0.8-1.8,1.7H116z"/>
<path d="M120.3,3.2h0.5v2.2h2.8V3.2h0.5v4.9h-0.5V5.8h-2.8v2.3h-0.5V3.2z"/>
<path d="M128.4,5.7c-0.1,1.2,0.9,2.1,1.9,2.1c0.8,0,1.4-0.5,1.7-1.1l0.4,0.2c-0.3,0.6-0.9,1.3-2.1,1.3c-1.5,0-2.4-1.1-2.4-2.6
	c0-1.7,1.2-2.6,2.4-2.6c1.3,0,2.4,1.1,2.3,2.6L128.4,5.7L128.4,5.7z M132.1,5.2c-0.1-1-0.8-1.7-1.8-1.7c-1,0-1.7,0.8-1.8,1.7H132.1z
	"/>
<path d="M136.9,11h-0.5V3.2h0.5V4c0.5-0.6,1.1-1,1.9-1c1.5,0,2.4,1.1,2.4,2.5c0,1.4-0.9,2.6-2.4,2.6c-1.2,0-1.8-0.8-1.9-1
	C136.9,7.2,136.9,11,136.9,11z M140.7,5.6c0-1.3-0.9-2.1-1.9-2.1c-1,0-1.9,0.7-1.9,2c0,1.2,0.7,2.2,1.9,2.2S140.7,6.8,140.7,5.6z"/>
<path d="M145,3.2h0.5v2.2h2.8V3.2h0.5v4.9h-0.5V5.8h-2.8v2.3H145V3.2z"/>
<path d="M153.3,3.2v2h1.2c0.4,0,0.9,0,1.2,0.5c0.2,0.3,0.3,0.6,0.3,1c0,0.4-0.1,0.8-0.4,1.1c-0.4,0.3-0.8,0.4-1.2,0.4h-1.6V3.2
	L153.3,3.2L153.3,3.2z M154.5,7.6c0.2,0,0.5,0,0.8-0.2c0.2-0.2,0.3-0.4,0.3-0.7c0-0.3-0.1-0.6-0.3-0.8c-0.2-0.2-0.5-0.2-0.8-0.2
	h-1.1v1.9L154.5,7.6L154.5,7.6z M157.1,3.2v4.9h-0.5V3.2H157.1z"/>
<path d="M161.4,5.7c-0.1,1.2,0.9,2.1,1.9,2.1c0.8,0,1.4-0.5,1.7-1.1l0.4,0.2c-0.3,0.6-0.9,1.3-2.1,1.3c-1.5,0-2.4-1.1-2.4-2.6
	c0-1.7,1.2-2.6,2.4-2.6c1.3,0,2.4,1.1,2.3,2.6L161.4,5.7L161.4,5.7z M165.1,5.2c-0.1-1-0.8-1.7-1.8-1.7c-1,0-1.7,0.8-1.8,1.7H165.1z
	"/>
<path d="M178.5,4.3c-0.3-0.4-0.9-0.8-1.7-0.8c-1.2,0-2,0.9-2,2.1c0,1.4,1.1,2.1,2,2.1c0.8,0,1.4-0.5,1.8-0.9v0.6
	c-0.3,0.3-0.9,0.7-1.8,0.7c-1.5,0-2.5-1.1-2.5-2.5s1-2.6,2.5-2.6c0.3,0,1,0.1,1.7,0.6L178.5,4.3L178.5,4.3z"/>
<path d="M182.8,3.2v3.9l3.5-4.2v5.2h-0.5V4.2l-3.5,4.2V3.2C182.3,3.2,182.8,3.2,182.8,3.2z"/>
<path d="M194.3,4.3c-0.3-0.4-0.9-0.8-1.7-0.8c-1.2,0-2,0.9-2,2.1c0,1.4,1.1,2.1,2,2.1c0.8,0,1.4-0.5,1.8-0.9v0.6
	c-0.3,0.3-0.9,0.7-1.8,0.7c-1.5,0-2.5-1.1-2.5-2.5s1-2.6,2.5-2.6c0.3,0,1,0.1,1.7,0.6L194.3,4.3L194.3,4.3z"/>
<path d="M199.1,3.6h-1.7V3.2h3.9v0.5h-1.7v4.4h-0.5V3.6z"/>
<path d="M204.8,5.7c-0.1,1.2,0.9,2.1,1.9,2.1c0.8,0,1.4-0.5,1.7-1.1l0.4,0.2c-0.3,0.6-0.9,1.3-2.1,1.3c-1.5,0-2.4-1.1-2.4-2.6
	c0-1.7,1.2-2.6,2.4-2.6c1.3,0,2.4,1.1,2.3,2.6L204.8,5.7L204.8,5.7z M208.5,5.2c-0.1-1-0.8-1.7-1.8-1.7c-1,0-1.7,0.8-1.8,1.7H208.5z
	"/>
<path d="M213.4,2.9l2,4.4l2-4.4l1.2,5.2h-0.5l-0.8-3.8l-1.8,4.1l-1.8-4.1l-0.8,3.8h-0.5L213.4,2.9z"/>
<path d="M222.5,3.2v2h1.2c0.4,0,0.9,0,1.2,0.5c0.2,0.3,0.3,0.6,0.3,1c0,0.4-0.1,0.8-0.4,1.1c-0.4,0.3-0.8,0.4-1.2,0.4H222V3.2
	L222.5,3.2L222.5,3.2z M223.6,7.6c0.2,0,0.5,0,0.8-0.2c0.2-0.2,0.3-0.4,0.3-0.7c0-0.3-0.1-0.6-0.3-0.8c-0.2-0.2-0.5-0.2-0.8-0.2
	h-1.1v1.9L223.6,7.6L223.6,7.6z M226.3,3.2v4.9h-0.5V3.2H226.3z"/>
<path d="M236.1,3.2v3.9l3.5-4.2v5.2h-0.5V4.2l-3.5,4.2V3.2C235.6,3.2,236.1,3.2,236.1,3.2z"/>
<path d="M252.8,4.3c-0.3-0.4-0.9-0.8-1.7-0.8c-1.2,0-2,0.9-2,2.1c0,1.4,1.1,2.1,2,2.1c0.8,0,1.4-0.5,1.8-0.9v0.6
	c-0.3,0.3-0.9,0.7-1.8,0.7c-1.5,0-2.5-1.1-2.5-2.5s1-2.6,2.5-2.6c0.3,0,1,0.1,1.7,0.6L252.8,4.3L252.8,4.3z"/>
<path d="M256.8,5.7c-0.1,1.2,0.9,2.1,1.9,2.1c0.8,0,1.4-0.5,1.7-1.1l0.4,0.2c-0.3,0.6-0.9,1.3-2.1,1.3c-1.5,0-2.4-1.1-2.4-2.6
	c0-1.7,1.2-2.6,2.4-2.6c1.3,0,2.4,1.1,2.3,2.6L256.8,5.7L256.8,5.7z M260.5,5.2c-0.1-1-0.8-1.7-1.8-1.7c-1,0-1.7,0.8-1.8,1.7H260.5z
	"/>
<path d="M265.3,11h-0.5V3.2h0.5V4c0.5-0.6,1.1-1,1.9-1c1.5,0,2.4,1.1,2.4,2.5c0,1.4-0.9,2.6-2.4,2.6c-1.2,0-1.8-0.8-1.9-1V11z
	 M269,5.6c0-1.3-0.9-2.1-1.9-2.1c-1,0-1.9,0.7-1.9,2c0,1.2,0.7,2.2,1.9,2.2C268.4,7.8,269,6.8,269,5.6z"/>
<path d="M275,3.2c0.3,0,0.7,0,1,0.3c0.2,0.1,0.4,0.4,0.4,0.9c0,0.4-0.2,0.8-0.5,1c0.1,0,0.4,0.1,0.6,0.3c0.2,0.2,0.4,0.5,0.4,1
	c0,0.6-0.3,0.9-0.5,1.1c-0.4,0.3-0.9,0.3-1.2,0.3h-1.9V3.2H275z M275,5.3c0.2,0,0.5,0,0.7-0.2c0.1-0.1,0.3-0.3,0.3-0.6
	c0-0.3-0.2-0.5-0.3-0.6c-0.2-0.2-0.5-0.2-0.7-0.2h-1.1v1.7H275z M275.2,7.6c0.2,0,0.6,0,0.8-0.2c0.2-0.1,0.3-0.3,0.3-0.7
	c0-0.3-0.1-0.5-0.3-0.7c-0.3-0.2-0.6-0.2-0.9-0.2h-1.4v1.8C273.8,7.6,275.2,7.6,275.2,7.6z"/>
<path d="M281.2,3.2v3.9l3.5-4.2v5.2h-0.5V4.2l-3.5,4.2V3.2C280.7,3.2,281.2,3.2,281.2,3.2z"/>
<path d="M292.8,4.3c-0.3-0.4-0.9-0.8-1.7-0.8c-1.2,0-2,0.9-2,2.1c0,1.4,1.1,2.1,2,2.1c0.8,0,1.4-0.5,1.8-0.9v0.6
	c-0.3,0.3-0.9,0.7-1.8,0.7c-1.5,0-2.5-1.1-2.5-2.5s1-2.6,2.5-2.6c0.3,0,1,0.1,1.7,0.6L292.8,4.3L292.8,4.3z"/>
<rect x="82.3" y="12.4" width="212.4" height="0.7"/>
<polygon class="st1" points="35.8,29 56.3,29 45.6,41 25.5,41 "/>
<polygon class="st2" points="10.1,29 31.1,29 20,41 0,41 "/>
<polygon class="st3" points="40.8,0.2 49.1,12.3 70.2,12.3 61.6,0.3 "/>
<polygon class="st3" points="15.1,0.2 23.4,12.3 44.4,12.3 35.8,0.3 "/>
<polygon class="st4" points="20.6,16.3 1.9,16.2 10.2,28.3 31.2,28.3 28.8,25 13.2,25 "/>
<polygon class="st4" points="54.6,25 38.3,25 36.4,21.6 33.5,24.8 35.9,28.3 57,28.3 "/>
<polygon class="st0" points="69.6,13 49,13 46.2,16.3 46.2,16.3 38.7,25 54.6,25 58.8,25 "/>
<polygon class="st5" points="46.2,16.3 46.2,16.3 38.7,25 "/>
<polygon class="st6" points="23.4,13 13.2,25 33.3,25 44.3,13 "/>
<polygon class="st7" points="28.8,25 31.4,28.6 22.8,38 24.8,40.8 35.3,28.7 32.8,25 "/>
<polygon class="st7" points="40.4,0.7 38.1,3.5 44.7,12.6 36.4,21.6 38.1,24.6 48.5,12.7 "/>
</svg>
