<?xml version="1.0" encoding="utf-8"?>
<!-- Generator: Adobe Illustrator 22.1.0, SVG Export Plug-In . SVG Version: 6.00 Build 0)  -->
<svg version="1.1" id="Capa_1" xmlns="http://www.w3.org/2000/svg" xmlns:xlink="http://www.w3.org/1999/xlink" x="0px" y="0px"
	 viewBox="0 0 16 16" style="enable-background:new 0 0 16 16;" xml:space="preserve">
<style type="text/css">
	.st0{fill:#FFFFFF;}
</style>
<g>
	<g>
		<path class="st0" d="M8,0C3.5888016,0,0,3.5888016,0,8s3.5888016,8,8,8s8-3.5888014,8-8S12.4111967,0,8,0z M8,14.2977352
			c-3.4725399,0-6.2979002-2.8250313-6.2979002-6.2977357S4.5274596,1.7022642,8,1.7022642S14.2978992,4.5272951,14.2978992,8
			S11.4725399,14.2977352,8,14.2977352z"/>
		<path class="st0" d="M12.1692877,7.752985H8.5740633V3.430218c0-0.363771-0.2949362-0.6587071-0.6587071-0.6587071
			S7.256649,3.066447,7.256649,3.430218v4.9814739c0,0.3637714,0.2949362,0.6587076,0.6587071,0.6587076h4.2539315
			c0.3637714,0,0.6587076-0.2949362,0.6587076-0.6587076C12.8279953,8.0479212,12.5330591,7.752985,12.1692877,7.752985z"/>
	</g>
</g>
</svg>
