<svg width="40" height="40" viewBox="0 0 40 40" fill="none" xmlns="http://www.w3.org/2000/svg">
<mask id="path-1-inside-1" fill="white">
<path fill-rule="evenodd" clip-rule="evenodd" d="M31.9654 25H7.22414H6.91382C6.76127 25 6.61404 24.9772 6.47535 24.9349C4.4996 24.5871 3 22.8878 3 20.8438C3 18.5483 4.89121 16.6875 7.22414 16.6875C7.46417 16.6875 7.69953 16.7072 7.92864 16.745C7.86226 16.3408 7.82764 15.9247 7.82764 15.5C7.82764 11.565 10.7995 8.375 14.4656 8.375C15.6911 8.375 16.8391 8.73151 17.8245 9.35319C19.2544 7.31815 21.5423 6 24.1208 6C27.6777 6 30.6817 8.5083 31.6433 11.9466C31.75 11.9406 31.8573 11.9375 31.9654 11.9375C35.2981 11.9375 37.9999 14.8616 37.9999 18.4688C37.9999 21.7012 35.8302 24.3852 32.9811 24.9079C32.7912 24.9677 32.589 25 32.3793 25H31.9654Z"/>
</mask>
<path fill-rule="evenodd" clip-rule="evenodd" d="M31.9654 25H7.22414H6.91382C6.76127 25 6.61404 24.9772 6.47535 24.9349C4.4996 24.5871 3 22.8878 3 20.8438C3 18.5483 4.89121 16.6875 7.22414 16.6875C7.46417 16.6875 7.69953 16.7072 7.92864 16.745C7.86226 16.3408 7.82764 15.9247 7.82764 15.5C7.82764 11.565 10.7995 8.375 14.4656 8.375C15.6911 8.375 16.8391 8.73151 17.8245 9.35319C19.2544 7.31815 21.5423 6 24.1208 6C27.6777 6 30.6817 8.5083 31.6433 11.9466C31.75 11.9406 31.8573 11.9375 31.9654 11.9375C35.2981 11.9375 37.9999 14.8616 37.9999 18.4688C37.9999 21.7012 35.8302 24.3852 32.9811 24.9079C32.7912 24.9677 32.589 25 32.3793 25H31.9654Z" fill="white"/>
<path d="M6.47535 24.9349L7.05916 23.022C6.98135 22.9983 6.90216 22.9793 6.82204 22.9652L6.47535 24.9349ZM7.92864 16.745L7.60268 18.7183C8.2386 18.8234 8.88618 18.6155 9.34216 18.16C9.79814 17.7044 10.0066 17.057 9.90221 16.421L7.92864 16.745ZM17.8245 9.35319L16.7572 11.0447C17.6588 11.6135 18.848 11.3752 19.4609 10.503L17.8245 9.35319ZM31.6433 11.9466L29.7172 12.4853C29.9703 13.3901 30.819 13.9968 31.757 13.9434L31.6433 11.9466ZM32.9811 24.9079L32.6203 22.9407C32.539 22.9556 32.4588 22.9755 32.38 23.0003L32.9811 24.9079ZM31.9654 23H7.22414V27H31.9654V23ZM7.22414 23H6.91382V27H7.22414V23ZM6.91382 23C6.96128 23 7.01072 23.0072 7.05916 23.022L5.89153 26.8478C6.21737 26.9472 6.56126 27 6.91382 27V23ZM6.82204 22.9652C5.76272 22.7787 5 21.8772 5 20.8438H1C1 23.8983 3.23649 26.3956 6.12866 26.9046L6.82204 22.9652ZM5 20.8438C5 19.6833 5.96511 18.6875 7.22414 18.6875V14.6875C3.81731 14.6875 1 17.4133 1 20.8438H5ZM7.22414 18.6875C7.35455 18.6875 7.4809 18.6982 7.60268 18.7183L8.2546 14.7718C7.91817 14.7162 7.57379 14.6875 7.22414 14.6875V18.6875ZM9.90221 16.421C9.85338 16.1236 9.82764 15.8159 9.82764 15.5H5.82764C5.82764 16.0335 5.87114 16.5579 5.95506 17.0691L9.90221 16.421ZM9.82764 15.5C9.82764 12.5338 12.0351 10.375 14.4656 10.375V6.375C9.56395 6.375 5.82764 10.5961 5.82764 15.5H9.82764ZM14.4656 10.375C15.2956 10.375 16.076 10.6148 16.7572 11.0447L18.8917 7.66172C17.6023 6.8482 16.0867 6.375 14.4656 6.375V10.375ZM19.4609 10.503C20.5501 8.95282 22.2504 8 24.1208 8V4C20.8343 4 17.9587 5.68347 16.188 8.20334L19.4609 10.503ZM24.1208 8C26.6897 8 28.9718 9.8202 29.7172 12.4853L33.5694 11.408C32.3915 7.19641 28.6656 4 24.1208 4V8ZM31.757 13.9434C31.8258 13.9395 31.8953 13.9375 31.9654 13.9375V9.9375C31.8194 9.9375 31.6741 9.94165 31.5297 9.94988L31.757 13.9434ZM31.9654 13.9375C34.0475 13.9375 35.9999 15.8143 35.9999 18.4688H39.9999C39.9999 13.909 36.5487 9.9375 31.9654 9.9375V13.9375ZM35.9999 18.4688C35.9999 20.8323 34.428 22.6091 32.6203 22.9407L33.342 26.875C37.2325 26.1613 39.9999 22.5701 39.9999 18.4688H35.9999ZM32.38 23.0003L32.3793 23V27C32.7953 27 33.2001 26.9358 33.5823 26.8154L32.38 23.0003ZM32.3793 23H31.9654V27H32.3793V23Z" fill="black" mask="url(#path-1-inside-1)"/>
<path d="M13.4142 28H16V33C16 34.1046 16.8954 35 18 35H24C25.1046 35 26 34.1046 26 33V28H28.5858C30.3676 28 31.2599 25.8457 30 24.5858L22.4142 17C21.6332 16.219 20.3668 16.2189 19.5858 17L12 24.5858C10.7401 25.8457 11.6324 28 13.4142 28Z" fill="#FFDD2C" stroke="black" stroke-width="2"/>
</svg>
