<svg width="40" height="40" viewBox="0 0 40 40" fill="none" xmlns="http://www.w3.org/2000/svg">
<path d="M2 8C2 6.34315 3.34315 5 5 5H12C13.6569 5 15 6.34315 15 8V32C15 33.6569 13.6569 35 12 35H5C3.34315 35 2 33.6569 2 32V8Z" fill="#FFDD2C"/>
<path d="M26 8C26 6.89543 26.8954 6 28 6H35C36.1046 6 37 6.89543 37 8V32C37 33.1046 36.1046 34 35 34H28C26.8954 34 26 33.1046 26 32V8Z" fill="white" stroke="black" stroke-width="2"/>
<rect x="5" y="11" width="7" height="2" rx="1" fill="black"/>
<rect x="16" y="13" width="7" height="2" rx="1" fill="black"/>
<rect x="17" y="25" width="7" height="2" rx="1" fill="black"/>
<rect x="5" y="15" width="7" height="2" rx="1" fill="black"/>
<rect x="5" y="19" width="7" height="2" rx="1" fill="black"/>
<rect x="5" y="23" width="7" height="2" rx="1" fill="black"/>
<rect x="5" y="27" width="7" height="2" rx="1" fill="black"/>
<rect x="28" y="11" width="7" height="2" rx="1" fill="black"/>
<rect x="28" y="15" width="7" height="2" rx="1" fill="black"/>
<rect x="28" y="19" width="7" height="2" rx="1" fill="black"/>
<rect x="28" y="23" width="7" height="2" rx="1" fill="black"/>
<rect x="28" y="27" width="7" height="2" rx="1" fill="black"/>
<path fill-rule="evenodd" clip-rule="evenodd" d="M20.2929 17.7071C19.9024 17.3166 19.9024 16.6834 20.2929 16.2929L21.8787 14.7071C22.2692 14.3166 22.2692 13.6834 21.8787 13.2929L20.2929 11.7071C19.9024 11.3166 19.9024 10.6834 20.2929 10.2929C20.6834 9.90237 21.3166 9.90237 21.7071 10.2929L23.2929 11.8787C24.4645 13.0503 24.4645 14.9497 23.2929 16.1213L21.7071 17.7071C21.3166 18.0976 20.6834 18.0976 20.2929 17.7071Z" fill="black"/>
<path fill-rule="evenodd" clip-rule="evenodd" d="M19.7071 22.2929C20.0976 22.6834 20.0976 23.3166 19.7071 23.7071L18.1213 25.2929C17.7308 25.6834 17.7308 26.3166 18.1213 26.7071L19.7071 28.2929C20.0976 28.6834 20.0976 29.3166 19.7071 29.7071C19.3166 30.0976 18.6834 30.0976 18.2929 29.7071L16.7071 28.1213C15.5355 26.9497 15.5355 25.0503 16.7071 23.8787L18.2929 22.2929C18.6834 21.9024 19.3166 21.9024 19.7071 22.2929Z" fill="black"/>
</svg>
