<svg width="16" height="16" viewBox="0 0 16 16" fill="none" xmlns="http://www.w3.org/2000/svg">
<g clip-path="url(#clip0)">
<path fill-rule="evenodd" clip-rule="evenodd" d="M8 3.59995C8 3.37904 8.17909 3.19995 8.4 3.19995H12.4C12.6209 3.19995 12.8 3.37904 12.8 3.59995C12.8 3.60016 12.8 3.60037 12.8 3.60058V7.59995C12.8 7.82087 12.6209 7.99995 12.4 7.99995C12.1791 7.99995 12 7.82087 12 7.59995V4.70706L7.85355 8.85351C7.65829 9.04877 7.34171 9.04877 7.14645 8.85351C6.95118 8.65825 6.95118 8.34166 7.14645 8.1464L11.2929 3.99995H8.4C8.17909 3.99995 8 3.82087 8 3.59995Z" fill="white"/>
<path d="M6.4001 3.6001H4.6001C4.04781 3.6001 3.6001 4.04781 3.6001 4.6001V11.4001C3.6001 11.9524 4.04781 12.4001 4.6001 12.4001H11.4001C11.9524 12.4001 12.4001 11.9524 12.4001 11.4001V9.6001" stroke="white" stroke-linecap="round"/>
</g>
<defs>
<clipPath id="clip0">
<rect width="16" height="16" fill="white"/>
</clipPath>
</defs>
</svg>
