<svg width="40" height="40" viewBox="0 0 40 40" fill="none" xmlns="http://www.w3.org/2000/svg">
<path d="M7 6C7 3.79086 8.79086 2 11 2L31 2C32.1046 2 33 2.89543 33 4V33C33 34.1046 32.1046 35 31 35H11C8.79086 35 7 33.2091 7 31V6Z" fill="#FFDD2C"/>
<path fill-rule="evenodd" clip-rule="evenodd" d="M31 4H11C9.89543 4 9 4.89543 9 6V31C9 32.1046 9.89543 33 11 33H31V4ZM11 2C8.79086 2 7 3.79086 7 6V31C7 33.2091 8.79086 35 11 35H31C32.1046 35 33 34.1046 33 33V4C33 2.89543 32.1046 2 31 2H11Z" fill="black"/>
<path d="M7 31C7 28.7909 8.79086 27 11 27H31C32.1046 27 33 27.8954 33 29V33C33 34.1046 32.1046 35 31 35H11C8.79086 35 7 33.2091 7 31Z" fill="white"/>
<path fill-rule="evenodd" clip-rule="evenodd" d="M31 29H11C9.89543 29 9 29.8954 9 31C9 32.1046 9.89543 33 11 33H31V29ZM11 27C8.79086 27 7 28.7909 7 31C7 33.2091 8.79086 35 11 35H31C32.1046 35 33 34.1046 33 33V29C33 27.8954 32.1046 27 31 27H11Z" fill="black"/>
<path d="M11.6 38.8C10.9408 39.2944 10 38.824 10 38V31H18V38C18 38.824 17.0592 39.2944 16.4 38.8L14.6 37.45C14.2444 37.1833 13.7556 37.1833 13.4 37.45L11.6 38.8Z" fill="#FFDD2C"/>
<path fill-rule="evenodd" clip-rule="evenodd" d="M12 36L12.2 35.85C13.2667 35.05 14.7333 35.05 15.8 35.85L16 36V33H12V36ZM10 38C10 38.824 10.9408 39.2944 11.6 38.8L13.4 37.45C13.7556 37.1833 14.2444 37.1833 14.6 37.45L16.4 38.8C17.0592 39.2944 18 38.824 18 38V31H10V38Z" fill="black"/>
<path fill-rule="evenodd" clip-rule="evenodd" d="M16 20.0704L14.3359 18.961C13.5013 18.4046 13 17.4679 13 16.4648V12.3028C13 11.7105 13.1753 11.1315 13.5038 10.6387C15.1503 8.16896 19 9.33455 19 12.3028V14.9224L20.0232 15.5963L21 14.937V12.3028C21 9.33454 24.8497 8.16896 26.4962 10.6387C26.8247 11.1315 27 11.7105 27 12.3028V16.4648C27 17.4679 26.4987 18.4046 25.6641 18.961L24 20.0704V26C24 27.6568 22.6569 29 21 29H19C17.3431 29 16 27.6568 16 26V20.0704ZM19.0466 17.3416C19.0048 17.3182 18.9636 17.2932 18.9232 17.2666L17.45 16.2963C17.3536 16.2329 17.2704 16.1542 17.2027 16.0647C17.073 15.8934 17 15.6821 17 15.4612V12.3028C17 11.3134 15.7168 10.9248 15.1679 11.7481C15.0584 11.9123 15 12.1053 15 12.3028V16.4648C15 16.7992 15.1671 17.1114 15.4453 17.2969L17.5547 18.7031C17.6403 18.7602 17.7154 18.8293 17.7784 18.9074C17.9199 19.0829 18 19.3037 18 19.5352V26C18 26.5523 18.4477 27 19 27H21C21.5523 27 22 26.5523 22 26V19.5352C22 19.3291 22.0635 19.1315 22.1773 18.9667C22.1972 18.9378 22.2188 18.9099 22.2418 18.8832C22.3004 18.815 22.3686 18.7542 22.4453 18.7031L24.5547 17.2969C24.8329 17.1114 25 16.7992 25 16.4648V12.3028C25 12.1053 24.9416 11.9123 24.8321 11.7481C24.2832 10.9248 23 11.3134 23 12.3028V15.4685C23 15.6832 22.9311 15.8888 22.8081 16.0576C22.7407 16.1501 22.657 16.2315 22.5595 16.2973L21.1421 17.254C21.0632 17.3072 20.9815 17.3543 20.8975 17.3951C20.312 17.6799 19.6196 17.6625 19.0466 17.3416Z" fill="black"/>
</svg>
