<svg width="109" height="100" viewBox="0 0 109 100" fill="none" xmlns="http://www.w3.org/2000/svg">
<path d="M108.762 17.2883C109.175 17.3561 108.693 17.1527 108.35 16.8815L108.762 17.2883Z" fill="#FED044"/>
<path d="M108.42 16.9491L108.145 16.6779C108.213 16.7457 108.282 16.8813 108.42 16.9491Z" fill="#FED044"/>
<path d="M105.742 14.6441C106.497 14.9831 107.115 15.7288 107.664 15.8644C107.115 15.2542 106.017 14.5763 105.742 14.6441Z" fill="#FED044"/>
<path d="M106.567 15.5252L106.774 15.4574L106.086 15.2541L106.567 15.5252Z" fill="#FED044"/>
<path d="M106.909 15.932L106.841 15.8642L105.88 15.2541L106.909 15.932Z" fill="#FED044"/>
<path d="M103.548 13.0169L104.234 13.4237C104.783 14.0339 103.685 13.3559 104.028 13.7627C104.851 14.3729 104.508 13.6271 105.538 14.4407C105.538 14.2373 103.891 13.2881 104.234 13.1525C103.342 12.4746 104.028 13.2881 103.548 13.0169Z" fill="#FED044"/>
<path d="M59.9822 6.237C59.9135 6.237 59.9135 6.237 59.8447 6.237C59.9135 6.3048 59.9822 6.3048 59.9822 6.237Z" fill="#FED044"/>
<path d="M47.154 10.1693C46.9477 10.1693 46.8103 10.237 46.604 10.237C46.6728 10.237 46.7415 10.237 46.8102 10.237L47.154 10.1693Z" fill="#FED044"/>
<path d="M67.8718 3.45741C68.0781 3.45741 68.2156 3.38962 68.4218 3.38962C68.2843 3.38962 68.0781 3.38962 67.8718 3.45741Z" fill="#FED044"/>
<path d="M40.0868 19.6612C40.018 19.8646 39.8805 20.1358 39.8118 20.2714C40.018 19.9324 40.0868 19.729 40.0868 19.6612Z" fill="#FED044"/>
<path d="M72.4692 2.3725C72.4004 2.3725 72.3317 2.3725 72.2629 2.3725C72.4004 2.44029 72.4692 2.44029 72.4692 2.3725C72.5379 2.3725 72.5379 2.3725 72.4692 2.3725Z" fill="#FED044"/>
<path d="M51.4764 9.28796C51.2701 9.28796 51.1326 9.35576 50.9951 9.42356C51.2014 9.35576 51.3389 9.35576 51.4764 9.28796Z" fill="#FED044"/>
<path d="M95.109 4.47455C94.9715 4.27116 94.834 4.13556 94.6965 3.99997C94.7653 4.20336 94.9028 4.33895 95.109 4.47455Z" fill="#FED044"/>
<path d="M94.6971 4.06824C94.4913 3.72926 94.6285 3.32248 93.9423 3.25468L94.011 3.39028C93.8051 3.11909 93.3248 2.9157 92.9817 2.71231C92.9817 2.78011 92.9817 2.78011 93.0503 2.8479C93.1875 2.9835 93.3934 3.11909 93.6679 3.39028C93.9423 3.72926 94.2854 3.79706 94.6971 4.06824Z" fill="#FED044"/>
<path d="M59.9822 6.16956C60.0509 6.23736 60.3947 6.10177 59.9822 6.16956V6.16956Z" fill="#FED044"/>
<path d="M63.8937 4.74539C63.7562 4.74539 63.6187 4.81319 63.4812 4.81319C63.6187 4.81319 63.7562 4.81319 63.8937 4.74539Z" fill="#FED044"/>
<path d="M78.8483 2.10196C78.7809 2.16958 78.8483 2.10196 78.8483 2.10196V2.10196Z" fill="#FED044"/>
<path d="M63.1379 4.94902L63.4817 4.88123C63.3442 4.88123 63.2754 4.88123 63.1379 4.94902Z" fill="#FED044"/>
<path d="M50.9269 70.0342C50.7206 69.8308 50.7206 69.6274 50.5831 69.3562C50.0332 69.0172 51.3394 70.4409 50.6519 69.8308C50.7894 70.0342 50.9956 70.2375 51.1331 70.3731L51.0644 69.8986C50.6519 69.4918 51.2019 70.2375 50.9269 70.0342Z" fill="#FED044"/>
<path d="M1.59858 43.5934V43.4578C1.46108 43.5256 1.46108 43.4578 1.39233 44.0002C1.52983 44.4748 1.80483 43.7968 2.01107 44.5426C2.01107 44.407 2.01107 44.1358 2.01107 43.9324C1.80483 44.2714 1.66733 43.9324 1.59858 43.5934Z" fill="#FED044"/>
<path d="M2.00977 43.9323C2.00977 43.8645 2.07851 43.8645 2.07851 43.7967C2.07851 43.6611 2.07851 43.5933 2.14726 43.5255C2.07851 43.5933 2.00977 43.7289 2.00977 43.9323Z" fill="#FED044"/>
<path d="M44.2036 64.4745C44.0661 64.4745 43.9974 64.4067 43.8599 64.4067C43.9974 64.4745 44.0661 64.4745 44.2036 64.4745Z" fill="#FED044"/>
<path d="M37.616 17.627C37.616 17.4914 37.6847 17.3558 37.6847 17.2202C37.5472 17.4914 37.5472 17.5592 37.616 17.627Z" fill="#FED044"/>
<path d="M1.32318 36.4744C1.32318 36.3388 1.32318 36.271 1.32318 36.1354C1.32318 36.0676 1.32318 35.9998 1.25488 35.932L1.32318 36.4744Z" fill="#FED044"/>
<path d="M14.2214 54.4402C13.8783 54.508 14.4273 54.508 14.7704 54.9148L15.2507 55.0504C14.839 54.847 14.4959 54.6436 14.2214 54.4402Z" fill="#FED044"/>
<path d="M26.9133 59.3896C26.9821 59.3896 27.0508 59.4573 27.1196 59.4573C27.1196 59.4573 27.0508 59.3896 26.9133 59.3896Z" fill="#FED044"/>
<path d="M2.14666 41.0844C2.14666 40.4742 2.07837 39.864 2.07837 39.2539V39.7962C2.21495 40.0674 2.01008 40.881 2.14666 41.0844Z" fill="#FED044"/>
<path d="M8.11428 49.8305V49.6271C7.35961 49.2203 6.67354 48.5424 6.05608 47.9322C5.43862 47.322 5.02698 46.7119 4.47813 46.3729C4.40952 45.9661 4.34092 45.7627 4.34092 45.6271C4.34092 45.5593 4.27231 45.5593 4.27231 45.5593H4.2037L4.1351 45.3559C3.99788 45.017 3.79206 44.7458 4.1351 43.8644L4.06649 43.9322C4.06649 43.1186 4.1351 42.1017 4.1351 41.2203C4.1351 40.339 4.06649 39.4576 3.99788 38.5085C3.92928 37.6271 3.79206 36.7458 3.65485 35.8644L3.44903 34.6441C3.38042 34.2373 3.31182 33.8305 3.38042 33.6271C3.38042 33.1525 3.58624 32.4068 3.79206 32.0678C3.92928 31.9322 3.99788 31.8644 3.99788 31.8644C3.99788 31.8644 3.99788 31.8644 4.06649 31.8644H4.40952C6.2619 31.7966 7.83986 31.5254 9.41781 31.2542V31.3898C10.7213 31.2542 11.9563 31.1186 13.3284 30.8475C14.7005 30.5763 15.9354 30.2373 17.1704 29.8983C18.4053 29.5593 19.6402 29.2203 20.7379 28.8814C21.8356 28.6102 23.0705 28.4068 24.2368 28.2034C25.4718 28 26.7067 27.8644 28.0102 27.661C28.6963 27.5254 29.3823 27.3898 30.137 27.1864C30.8231 26.9153 31.3719 26.7119 32.058 26.4407C33.2929 25.8983 34.4592 25.2881 35.6256 24.6102C36.243 24.2712 36.7919 23.8644 37.3407 23.3898C37.6151 23.1864 37.8896 22.9153 38.164 22.6441C38.4384 22.3729 38.7129 22.0339 38.9873 21.6949C39.2617 21.1525 39.2617 21.0169 39.1931 20.8814C39.1245 20.7458 39.1245 20.678 39.2617 20.2034C39.4675 19.8644 39.8106 19.0508 39.9478 19.0508C39.742 19.7966 40.0164 19.4576 39.9478 19.7288C40.428 18.5085 41.0455 17.0847 40.9769 15.7288L40.8397 16.1356C40.8397 16.2034 40.7711 16.339 40.7711 16.4746L40.7024 16.678C40.7711 16.0678 40.7711 15.5254 40.8397 15.1864C40.9083 15.322 41.1827 14.8475 41.1827 15.1864C41.0455 14.1017 41.1141 13.6949 41.2513 13.3559C41.2513 13.2881 41.3199 13.1525 41.3199 13.0847H41.3885C41.3885 13.0847 41.3885 13.0847 41.3885 13.0169C41.1141 12.9492 41.5257 12.4068 42.006 12C42.5548 11.5254 43.3095 11.0508 43.927 10.7119C44.2014 10.6441 44.4072 10.6441 44.6816 10.5763C43.7211 10.8475 44.7502 10.8475 43.6525 11.1864C44.1328 11.0508 44.613 10.9153 45.0933 10.7797C45.5735 10.6441 46.0538 10.4407 46.534 10.3729C46.3282 10.3051 46.3282 10.1695 46.7398 10.0339C47.3573 9.89831 47.4945 10.1017 48.1806 9.89831L47.5631 10.2373C48.0434 10.2373 48.3864 9.9661 48.798 9.83051C49.0038 9.9661 50.0329 9.69492 49.8957 9.89831C50.7876 9.42373 51.1307 9.42373 52.0912 9.01695C50.9934 9.15254 52.297 8.74576 52.1598 8.61017L50.9934 9.01695C52.64 8.67797 50.4446 9.22034 50.6504 9.42373C49.8271 9.49153 51.6109 8.67797 50.3074 9.08475C51.8167 8.47458 52.1598 8.54237 53.6691 7.86441C52.7086 8.20339 53.8063 7.66102 53.2575 7.72881C54.4924 7.38983 53.6005 7.72881 54.0121 7.79661C54.6982 7.59322 54.9726 7.66102 55.5215 7.32203C56.6192 7.11864 55.4529 7.59322 56.0017 7.52542C55.6587 7.79661 52.983 8.13559 53.3947 8.67797C52.8458 8.81356 52.2284 9.28814 51.4051 9.49153C52.1598 9.35593 53.1889 9.28814 54.0121 8.88136L53.9435 8.54237C54.6296 8.33898 54.6982 8.0678 55.1785 8C54.9726 8.13559 55.4529 8.20339 56.0017 8C55.8645 8 55.6587 8.0678 55.6587 8C56.6192 7.66102 56.6878 7.45763 57.8541 7.05085C56.8936 7.25424 56.6192 7.18644 55.7273 7.32203C55.9331 7.05085 56.3448 7.11864 56.8936 6.91525C56.825 6.98305 56.6878 6.98305 56.8936 6.98305L57.4425 6.71186C58.6774 6.44068 57.3739 7.11864 58.403 6.91525C59.1576 6.91525 59.2948 6.50847 59.8437 6.50847C59.7751 6.50847 59.7751 6.50847 59.7065 6.50847C59.8437 6.50847 59.9123 6.44068 59.9809 6.44068C60.5984 6.23729 61.2844 6.0339 61.4217 5.83051C61.4903 5.89831 61.9705 5.62712 62.1763 5.55932C62.5194 5.35593 63.274 4.94915 63.8915 5.08475H63.8229C64.6462 4.88136 65.2636 4.81356 65.1264 4.94915L66.4299 4.67797L66.3613 4.94915C67.5276 4.54237 67.3218 4.47458 68.0765 4C68.9684 3.9322 70.3405 3.45763 70.8894 3.25424C70.958 3.25424 71.0952 3.18644 71.3696 3.18644H70.8894C71.7813 2.98305 71.6441 2.91525 72.2615 2.77966C72.1243 2.77966 72.1243 2.77966 72.4673 2.77966C72.6045 2.77966 72.6731 2.77966 72.8104 2.71186C72.8104 2.71186 72.6731 2.77966 72.5359 2.77966L72.6731 2.84746C73.4278 2.98305 73.7709 2.50847 74.5941 2.50847C74.5255 2.50847 74.3883 2.57627 74.3197 2.57627C74.8 2.57627 75.4174 2.84746 75.6232 2.64407C75.7604 2.64407 75.8977 2.57627 76.0349 2.50847H76.3779C76.2407 2.50847 76.1721 2.50847 76.0349 2.50847C76.2407 2.44068 76.4465 2.30508 76.4465 2.37288C76.8582 2.37288 77.2012 2.37288 77.5442 2.37288C77.75 2.37288 78.0931 2.37288 78.2989 2.37288L78.5047 2.44068C78.9164 2.44068 78.9164 2.50847 78.9164 2.50847C80.3571 2.84746 81.1804 2.30508 82.7583 2.64407C83.0328 2.1017 82.3467 2.0339 82.3467 1.89831C82.6211 1.76271 83.513 1.69492 83.9932 1.62712C84.6793 1.83051 86.8061 2.16949 86.4631 2.50847C87.698 2.64407 86.12 2.30508 86.7375 2.23729H86.8747C86.4631 2.16949 86.12 2.0339 85.8456 1.89831C85.777 1.69492 86.9433 1.76271 87.2864 1.83051L86.9433 2.0339C88.1096 2.1017 87.9038 1.69492 88.7271 1.55932C89.6876 1.83051 89.0701 1.9661 89.2074 2.23729C89.5504 2.30508 89.8248 2.37288 90.1678 2.44068L90.0992 2.64407C90.7167 2.77966 90.9225 2.71186 91.6772 3.11864C91.3342 3.05085 91.6086 3.25424 91.883 3.45763C92.0888 3.66102 92.2946 3.86441 91.883 3.72881C92.226 4 92.5691 3.79661 92.6377 4.13559C93.0493 4.13559 92.3633 3.79661 92.1574 3.66102C92.1574 3.32203 93.1179 4.13559 93.5982 4.47458C93.5296 4.61017 93.1865 4.33898 93.5982 4.88136C93.804 4.88136 94.147 5.15254 94.2842 5.55932C94.4215 5.42373 94.8331 6.1017 94.9703 6.44068C94.7645 6.0339 94.4901 5.49153 94.7645 5.62712C95.0389 5.83051 95.2447 6.1017 95.6564 6.77966C95.5878 6.57627 95.5192 6.44068 95.4506 6.23729C96.068 6.71186 95.8622 7.32203 96.411 8.13559C96.068 7.86441 95.9994 7.66102 95.6564 7.38983C95.9308 7.72881 96.5483 8.40678 97.0285 8.94915C97.0971 9.22034 97.2343 9.49153 97.3715 9.76271C97.5088 9.76271 98.0576 10.4407 98.1948 10.3051C98.5379 10.7119 98.332 10.5763 98.0576 10.4407C97.7832 10.2373 97.3715 9.8983 97.3029 9.9661C97.7146 10.5085 97.989 10.5763 98.1948 10.7119C98.4007 10.8475 98.6065 10.9831 99.0867 11.4576C98.9495 11.4576 98.8123 11.3898 98.6065 11.3898C98.7437 11.5254 99.0867 11.661 99.2925 11.7966C99.4983 11.9322 99.7042 12 99.7042 12.0678C99.7042 12 99.567 11.9322 99.3611 11.7966C99.7728 11.5932 101.076 12.5424 101.145 12.1356L100.665 11.7966C101.419 12.2034 102.105 12.339 102.586 12.8136C102.929 13.2203 102.174 12.8136 101.831 12.7458C102.517 13.2203 102.586 12.7458 103.409 13.2881C102.997 12.9492 103.203 12.8814 103.478 13.0169C103.066 12.678 102.105 12 102.174 12.2034L102.311 12.339C102.243 12.4068 101.968 12.2712 101.762 12.2034C101.145 11.7966 101.557 11.8644 101.488 11.7288C100.459 10.9831 101.214 12 100.253 11.3898L100.184 11.2542C99.6356 11.0508 98.9495 10.5763 98.6751 10.6441C98.4006 10.1695 97.5774 9.83051 97.3715 9.28814C97.5774 9.08475 97.8518 9.42373 98.2634 9.89831C98.6751 10.3051 99.1553 10.7797 99.4984 10.8475C99.0867 10.4407 99.91 10.7797 100.184 10.8475C99.567 10.5763 99.0867 10.3051 98.5379 9.9661C98.4693 9.83051 98.2634 9.28814 97.9204 9.15254L97.989 9.28814C97.4402 8.81356 97.4401 9.08475 97.0971 8.54237C97.0971 8.40678 97.2343 8.54237 97.3029 8.54237C97.0285 8.0678 96.8913 8.20339 96.6855 7.9322C96.411 7.38983 97.0285 8.0678 96.8227 7.59322C96.2738 7.11864 96.3424 6.64407 95.9994 6.1017C95.9308 6.30508 95.5192 5.83051 95.1075 5.49153C94.6959 5.15254 94.4215 5.01695 94.7645 5.55932C94.4215 5.22034 94.0098 4.94915 93.6668 4.67797C93.5296 4.47458 93.804 4.54237 94.0784 4.67797C94.3529 4.74576 94.6273 4.88136 94.5587 4.61017C94.8331 4.88136 95.1075 5.22034 95.3133 5.55932C95.3819 5.35593 94.9703 4.88136 94.4215 4.40678C93.8726 3.9322 93.2551 3.52542 93.0493 3.11864C92.7749 2.91525 92.7063 2.84746 92.5005 2.77966C92.3633 2.64407 92.1574 2.50847 91.6086 2.16949C91.6086 2.30508 91.6086 2.44068 91.6772 2.57627C91.1283 2.23729 90.9911 1.9661 90.9911 1.89831C90.6481 1.76271 90.3051 1.69492 89.962 1.55932C90.0306 1.55932 90.2365 1.49153 90.4423 1.55932C90.0306 1.22034 89.8248 1.28814 89.6876 1.35593C89.4132 1.35593 89.0015 1.28814 88.6585 1.22034L89.0015 1.15254C88.7271 1.15254 88.4527 1.15254 88.3841 1.15254C88.2469 1.15254 88.041 1.15254 87.9038 1.15254C87.9724 1.22034 88.2469 1.42373 88.7957 1.62712C87.355 1.28814 86.2573 1.28814 85.0223 0.881356C85.091 0.813559 85.5712 0.677966 85.434 0.677966C84.8165 0.61017 84.1305 0.745763 84.1991 0.881356C84.0619 0.881356 83.9246 0.881356 83.856 0.881356C83.7188 0.813559 83.5816 0.677966 83.3072 0.677966C83.2386 0.677966 83.1014 0.610169 82.8955 0.610169C82.6897 0.881356 81.5234 0.745763 81.249 0.881356C81.5234 0.881356 81.8664 0.881356 82.2095 0.881356C81.7292 1.08475 81.249 1.28814 80.9059 1.08475C81.7978 0.881356 79.9454 0.813559 81.3176 0.745763C80.3571 0.40678 80.8373 1.01695 79.8082 0.881356L79.1222 0.745763C79.1908 0.542373 80.2199 0.61017 80.0141 0.542373H79.5338C80.0141 0.40678 81.7292 0.474576 82.8269 0.271186L80.7001 0C80.0141 0.0677966 79.328 0.0677966 78.5733 0.135593C78.2303 0.135593 77.8186 0.135593 77.4756 0.135593C77.064 0.135593 76.7209 0.135593 76.3093 0.20339C74.7999 0.338983 73.3592 0.610169 72.2615 1.01695H72.3301C72.2615 1.01695 72.2615 1.08475 72.2615 1.15254H72.1243L71.7127 1.35593C71.1638 1.28814 70.2033 1.42373 69.38 1.49153C69.9289 1.49153 69.9289 1.49153 69.9975 1.62712C69.9289 1.83051 69.8603 1.9661 69.1056 2.0339C69.037 1.89831 69.5172 1.76271 68.9684 1.83051C69.2428 1.83051 69.037 1.9661 68.694 2.10169C68.2823 2.10169 67.5276 2.30508 67.5276 2.16949C67.7335 2.1017 67.8707 2.10169 68.0079 2.10169C68.2823 1.89831 67.2532 2.0339 67.8021 1.76271L67.0474 2.0339C66.5672 2.0339 67.2532 1.76271 67.116 1.76271C65.8811 2.23729 65.3322 2.71186 64.2345 3.11864C64.2345 3.05085 64.1659 2.71186 64.2345 2.84746C63.3426 2.98305 62.5194 3.72881 61.4903 4C61.6275 3.86441 61.9705 3.79661 62.2449 3.66102C59.2262 4.40678 56.7564 5.08475 53.8749 5.62712L53.2575 6.1017H52.4342C49.4155 6.77966 47.2201 7.59322 44.4072 8.54237C43.5153 8.81356 43.7897 8.47458 43.3095 8.54237C42.2804 8.88136 41.7315 9.22034 41.1141 9.62712C40.8397 9.83051 40.5652 10.0339 40.2908 10.3051C40.1536 10.4407 39.9478 10.5763 39.8106 10.7119C39.6733 10.8475 39.3303 11.1186 39.1245 11.3898C39.1931 11.1864 39.3303 10.9831 39.3303 10.8475C39.3303 10.7797 39.1245 10.7797 38.6442 11.2542C38.5756 11.3898 38.5756 11.4576 38.507 11.661C38.4384 11.8644 38.4384 12.0678 38.3698 12.4746C38.3698 12.339 38.3012 12.2034 38.3012 12C38.0268 12.8814 38.164 13.2203 38.0268 14.1695C37.9582 14.5763 37.9582 15.0508 37.9582 15.4576V15.7966V15.9322V16C37.9582 16.2034 37.9582 16.339 37.8896 16.5424C37.821 17.2881 37.7524 17.9661 37.6838 18.6441C37.0663 19.8644 37.4093 18.3729 37.2721 18.5763C37.7524 17.7627 37.4779 17.8983 37.4093 17.6949C37.3407 18.1695 37.1349 18.7797 36.7919 18.9153C36.5174 19.5254 36.3116 19.7288 36.0372 20.2712C36.1744 20 36.4488 19.8644 36.3116 20.1356C36.0372 20.4746 34.8709 21.4915 34.7337 21.2203C33.3615 22.2373 31.6464 23.1186 29.8626 23.7966L29.1765 24.0678C28.9707 24.1356 28.7649 24.2034 28.5591 24.2712C28.1474 24.4068 27.6672 24.4746 27.1869 24.5424C26.2264 24.678 25.1973 24.8136 24.2368 24.9492C23.5508 25.2203 24.7857 24.9492 24.3741 25.0847C23.4136 25.4237 23.5508 25.0847 22.7961 25.3559L23.0705 25.1525C21.9042 25.2881 20.6693 25.8305 19.5716 26.3051C19.7088 26.1017 18.6111 26.4407 19.503 26.0339C18.9541 26.2373 18.0622 25.6271 17.7192 25.8983L18.5425 26.4407C18.5425 26.5085 17.7878 26.7119 17.8564 26.7119C17.3762 26.7119 16.6901 26.7119 16.4157 26.7797C16.2099 26.6441 17.0331 26.4407 17.4448 26.3051C17.4448 25.9661 15.8668 26.5085 16.4843 26.1017C15.5238 26.4407 16.6901 26.2373 16.1413 26.5085L15.318 26.6441L16.004 26.5763C15.318 26.8475 15.1808 27.1864 14.2203 27.2542L13.5342 27.7966C13.397 27.5932 12.8481 27.9322 12.3679 27.9322C12.4365 27.8644 12.5737 27.7966 12.6423 27.7288C12.0249 27.8644 11.7504 27.8644 11.3388 27.7966C11.6818 27.5254 11.9563 27.7288 12.0935 27.5254L11.3388 27.5932C11.3388 27.7288 10.9272 27.9322 11.476 27.9322C10.8586 28.2712 10.5155 28.5424 8.80035 28.7458C7.97707 28.6102 9.62363 28.4068 9.2806 28.2034C7.49682 28.339 7.15379 29.0847 6.12469 29.1525C5.43862 29.1525 5.1642 29.2203 4.82116 29.2881C4.68395 29.2881 4.54674 29.3559 4.34092 29.3559C4.2037 29.3559 4.06649 29.3559 3.92928 29.4237C3.72346 29.4237 3.58624 29.4915 3.31182 29.5593C3.58624 29.4237 3.24321 29.4237 2.76296 29.6271C2.28272 29.8305 1.93968 30.2373 1.73386 30.3051C1.87108 30.1017 1.93968 29.8305 2.1455 29.6271C1.66526 30.1017 1.39083 30.5085 1.39083 30.3051C1.52804 30.3051 1.18501 30.8475 0.979191 31.5254C0.773371 32.2034 0.704765 32.9492 0.704765 33.5593L0.910585 33.3559C0.910585 33.8305 1.0478 34.3051 1.1164 34.7119C1.18501 35.1864 1.32222 35.5932 1.32222 36C1.59665 37.1525 1.66526 36.8136 2.00829 37.6949C1.87108 38.1695 1.66526 38.1695 1.45944 38.0339C1.52804 37.8305 1.45944 37.2881 1.39083 36.8136C1.18501 36.1356 0.910585 35.5254 0.704765 34.8475C0.567551 34.5085 0.498945 34.1695 0.430338 33.7627C0.430338 33.2881 0.430338 32.8814 0.567551 32.4746C0.430338 32.0678 0.361731 32.339 0.361731 32.8814C0.361731 33.1525 0.361731 33.4237 0.361731 33.7627C0.361731 34.1017 0.430338 34.3729 0.430338 34.5763C0.430338 34.5763 0.361731 34.5085 0.361731 34.4407C0.361731 34.5085 0.361731 34.5763 0.361731 34.6441C0.361731 34.5085 0.293125 34.3729 0.224518 34.1695C0.155912 33.9661 0.155912 33.6949 0.155912 33.5593C0.0873049 33.1525 0.0873049 32.8814 0.0186982 32.7458C-0.0499084 33.2881 0.0873049 33.5593 0.155912 33.8305C0.224518 34.1017 0.293125 34.3729 0.293125 34.9831C0.567551 35.7966 0.293125 36.4746 0.361731 36.9492C0.636158 37.2881 1.0478 37.2881 1.1164 38.5763L0.773371 38.0339C0.979191 39.4576 1.25362 38.6441 1.39083 40C1.39083 39.5254 1.66526 40.4068 1.59665 39.5254C1.80247 39.9322 1.87108 40.9492 1.80247 41.6949C1.87108 41.8983 1.87108 41.7627 2.00829 41.7627C2.1455 40.9492 1.80247 40.4746 2.00829 39.7966L1.66526 39.2542C1.66526 38.5085 1.87108 38.3729 2.0769 38.8475C2.0769 38.6441 2.00829 38.4407 2.00829 38.3051C2.41993 38.1017 1.93968 39.2542 2.35132 39.4576L2.28272 38.9153C2.55714 38.6441 2.62575 40.1356 2.62575 40.8814C2.55714 41.6949 2.48854 42.3729 2.28272 42.4407C2.28272 42.1017 2.21411 41.7627 2.21411 41.4237C2.0769 41.9661 2.28272 42.7797 2.28272 43.3898C2.1455 43.3898 2.1455 43.3898 2.0769 43.4576L2.1455 43.3898C2.1455 43.5254 2.0769 43.661 2.0769 43.7288C2.00829 44.2712 2.1455 45.0847 2.1455 45.6271L2.28272 45.5593L2.1455 45.4915C2.1455 45.0169 2.21411 44.2712 2.35132 44.678C2.48854 45.7627 2.28272 46.1017 2.21411 46.4407C2.00829 46.3729 1.93968 46.0339 1.87108 45.6271C1.87108 45.2881 1.87108 44.9492 1.87108 44.6102C1.73386 44.8136 1.73386 45.0847 1.80247 45.4915C1.87108 46.1017 2.0769 46.6441 2.35132 47.2542C2.0769 47.1186 1.93968 46.7119 1.80247 46.3729C1.66526 46.0339 1.66526 45.5593 1.52804 45.4915C1.52804 45.5593 1.52804 45.6271 1.52804 45.6949C1.52804 45.7627 1.52804 45.8305 1.52804 45.8983C1.52804 46.0339 1.59665 46.1695 1.59665 46.3051C1.66526 46.5085 1.73386 46.7119 1.87108 46.8475C2.0769 47.1864 2.28272 47.4576 2.48854 47.9322C2.41993 47.9322 2.21411 47.661 2.00829 47.4576C1.80247 47.2542 1.66526 46.9831 1.59665 47.0508C1.66526 47.322 1.80247 47.5254 1.87108 47.7966C1.59665 47.3898 1.52804 47.1864 1.45944 47.1186C1.39083 47.0508 1.39083 47.1186 1.32222 47.1864C1.39083 47.322 1.39083 47.5932 0.979191 46.7797C1.18501 47.5932 1.66526 47.7288 2.00829 48.6102C1.93968 48.339 1.73386 47.5254 2.35132 48.2712C2.55714 48.5424 2.76296 48.8136 2.90018 49.0847C3.03739 49.4915 2.00829 48.4746 2.28272 49.0847C2.55714 49.3559 2.76296 49.5593 3.03739 49.8305C3.106 49.7627 2.76296 49.3559 3.106 49.4915C3.44903 49.9661 3.99788 49.9661 4.54674 50.3051C4.88977 50.6441 5.2328 50.9831 5.30141 51.1864C6.46772 51.8644 7.70264 52.8814 8.80035 53.4237C8.04568 53.0847 8.66314 53.6949 8.93756 54.1017C8.18289 53.5593 7.97707 53.7627 7.90846 53.9661C8.38871 54.3051 8.86896 54.3051 8.66314 54.0339C9.3492 54.7119 9.2806 54.2373 9.89806 54.9153C10.3097 55.322 9.48642 54.9831 9.62363 55.1864C10.4469 55.7966 10.0353 55.0508 10.9272 55.7966C10.8586 55.7966 10.7899 55.7288 10.7899 55.8644C11.2702 56.2712 11.8876 56.4746 12.0249 56.4746C12.3679 57.1525 13.5342 57.4237 13.2598 57.6271C14.4947 58.3051 13.1912 57.3559 13.4656 57.4237C13.74 57.4915 14.0831 57.7627 14.4261 57.9661C14.7691 58.2373 15.1122 58.4407 15.2494 58.5763C14.9063 58.4407 14.5633 58.3051 14.2889 58.0339C14.2889 58.1695 14.3575 58.3051 14.4261 58.4407C15.2494 59.0508 15.5924 59.0508 15.8668 59.0508C16.2099 59.0508 16.4843 59.0508 17.239 59.5254C16.3471 59.2542 16.8959 59.5932 16.4157 59.5254C16.6901 59.5932 17.925 60.2034 17.239 59.7288C17.8564 60 18.2681 60.2034 18.6797 60.4746C19.2972 60.6102 19.9146 60.7458 20.2577 60.7458C21.1495 61.0847 21.767 61.4237 22.1786 61.6949C24.1682 62.0339 25.8148 62.7119 27.9416 62.7797L27.8044 62.7119C29.3823 62.9831 27.1869 62.3051 28.7649 62.5085C28.4905 62.7797 29.7254 62.8475 30.2056 63.0508C32.1952 63.4576 33.7046 63.1186 35.4883 63.4576C35.4883 63.5254 35.3511 63.5932 35.0081 63.5932C36.3802 63.7966 37.4779 63.7966 38.7129 63.9322H38.6442C40.5652 64.339 42.4176 64.2712 44.4072 64.6102C44.27 64.6102 44.2014 64.7458 44.0642 64.7458C44.5444 64.8814 45.2305 65.017 45.7793 65.1525C46.0538 65.2203 46.4654 65.3559 46.8084 65.4237C47.1515 65.8305 47.2887 65.8983 47.4259 66.0339C47.6317 66.1695 47.8375 66.3051 48.2492 66.9153C48.2492 66.983 48.112 66.8475 48.0434 66.7797C48.455 67.322 48.798 67.7288 49.2783 68.339C50.4446 69.5593 50.9934 69.6949 52.0912 71.3898C51.8167 71.7288 51.2679 70.4407 50.9934 70.5763C51.2679 70.8475 51.5423 71.1186 51.8167 71.5932C51.4737 71.3898 51.6795 71.5932 51.4051 71.4576C51.4737 71.661 51.8167 71.9322 52.1598 72.2034C52.297 72.339 52.5028 72.4746 52.5714 72.5424C52.64 72.6102 52.7086 72.6102 52.7086 72.6102C52.7772 72.5424 52.7772 72.4746 52.5028 72.1356C52.7772 72.339 52.983 72.6102 53.2575 73.017C53.4633 73.4237 53.7377 73.9661 53.9435 74.3729C53.8063 74.1017 53.5319 73.2203 53.8063 73.4915C54.2866 74.6441 54.7668 74.9153 55.1785 75.7288C55.3843 76.8814 54.561 74.9831 54.3552 75.322C54.3552 75.5254 54.2866 76.0678 54.0121 75.661C54.2866 76.6102 54.6982 77.2881 55.0412 78.1695H54.9726C55.1098 78.7797 55.3843 79.3898 55.5215 80.0678C55.7273 80.678 55.7959 81.3559 55.7959 81.8983V81.2881C55.8645 81.4915 55.9331 82.1695 56.1389 82.5085C56.0017 82.5085 56.0017 83.3898 55.8645 83.0508C56.3448 83.5932 56.5506 86.1017 57.0994 86.7119C57.0308 87.1186 56.825 86.8475 56.6878 86.7119C56.5506 85.8305 56.6192 85.5593 56.3448 85.0847C56.482 85.8305 56.4134 86.3729 56.3448 86.2373C56.6878 86.9153 57.168 88.6102 57.5111 88.8814C57.5111 89.4237 57.5797 89.9661 57.3053 89.8305C58.0599 92 57.6483 88.6102 58.3344 91.0508C58.4716 92.2034 57.7169 90.0339 58.1285 91.5932L57.9913 91.322C57.7855 92.6102 58.6088 92 59.0204 93.1525C58.8146 93.4237 58.5402 92.4068 58.6088 93.2881C59.089 94.3729 59.7065 94.7119 60.0495 95.7966L59.8437 95.661C60.1181 96.339 60.667 97.6949 60.9414 98.3729C60.8728 98.4407 60.8728 98.3051 60.8042 98.1695C61.2158 99.4576 61.1472 98.6441 61.4217 99.7288L61.6961 100C61.5589 99.4576 61.2844 98.3729 60.8042 97.7627C61.2158 98.3729 60.7356 96.6102 61.1472 96.8136L61.01 96.7458C60.7356 94.8475 59.9123 92.6102 59.3635 90.3051C58.6088 89.017 58.8832 87.9322 58.403 86.3729C57.9913 86.1695 58.2657 86.1017 57.9913 84.7458C58.1285 85.4237 58.2658 84.8136 58.2658 84.339C58.1285 84.0678 58.0599 83.7966 57.9913 83.4576C58.0599 83.1864 58.1285 81.4237 57.8541 80.8136C57.8541 79.9322 57.9913 81.017 58.0599 81.1525C58.1971 80.8136 57.8541 80.4746 57.9227 80.2034C57.9227 80.2034 57.9913 80.2034 57.9913 80.2712C57.7855 78.9831 57.7169 78.1695 57.4425 76.8136C57.0994 76.8136 56.9622 75.5254 56.6192 74.9831C56.825 75.1186 56.482 74.1695 56.4134 73.8305C56.2075 73.6271 56.0703 73.4237 55.8645 73.2203C55.3843 72.6102 55.5901 72.2034 54.9726 71.3898L55.0412 71.661C54.904 71.5254 54.7668 71.322 54.6296 71.0508C54.4924 70.7797 54.3552 70.5763 54.1493 70.3051C53.8749 69.7627 53.6005 69.2203 53.4633 68.8814C52.4342 67.7288 51.5423 66.6441 50.6504 65.6271C49.7585 64.6102 48.9352 63.661 47.7003 62.8475C47.3573 62.6441 47.0829 62.4407 46.6712 62.3051L46.3968 62.1695L46.191 62.1017L45.7107 61.9661C45.0933 61.7627 44.4072 61.6271 43.7897 61.4915C42.4176 61.2203 40.9769 61.017 39.3303 60.8814C38.9187 60.9492 39.6047 61.0848 39.2617 61.2203C38.5756 61.2203 38.4384 61.1525 37.821 61.0847C38.3698 61.2203 38.3012 61.0848 38.164 61.2203H39.1245C39.1931 61.2203 39.0559 61.2203 39.1245 61.2881C39.4675 61.2881 39.8106 61.2881 40.2222 61.2881C39.6047 61.2881 39.4675 61.5593 38.6442 61.3559C38.7129 61.3559 38.7815 61.3559 39.0559 61.3559C38.4384 61.2881 38.3698 61.4237 37.8896 61.2881C37.2721 61.1525 37.4093 61.2881 37.3407 61.1525L35.4883 60.8814C34.5278 61.1525 33.4301 60.7458 33.1557 60.678C33.3615 60.4746 34.3906 60.678 34.8709 60.4746L34.322 60.339L34.2534 60.5424L33.2929 60.4068H33.3615C33.2243 60.4746 33.1557 60.5424 32.8813 60.4746C32.8127 60.4746 32.7441 60.4068 32.8813 60.4068L32.1952 60.4746C32.6069 60.339 31.6464 60.339 31.715 60.1356C29.5882 59.7966 28.9021 60.1356 27.1183 59.5254C27.3928 59.661 26.4323 59.7966 25.8834 59.5932C25.5404 59.4576 25.4718 59.3898 25.7462 59.3898L24.9915 59.322C24.1682 58.7797 23.2078 58.7797 21.9728 58.2373L22.0414 58.1695C21.5612 58.1017 20.9437 58.0339 20.2577 57.6949L20.4635 57.5593C19.6402 57.0847 19.6402 57.6949 18.7483 57.1525C18.6797 57.3559 19.2286 57.6949 19.2286 57.8983C19.0913 57.6271 18.0622 57.1525 18.2681 57.3559C17.3076 57.0169 17.582 57.0169 17.582 56.9492L16.9645 56.8136C16.3471 56.4746 16.8959 56.4746 17.1704 56.4746C16.8273 56.4068 16.4843 56.2712 16.2099 56.0678C16.0727 56 15.9354 55.8644 15.7982 55.7966C15.661 55.661 15.4552 55.5254 15.318 55.4576L15.661 55.5254L14.7691 54.9153C14.0831 54.7119 13.3284 54.1695 12.6423 53.6271L13.3284 53.7627C12.9167 53.2881 12.9854 53.6949 12.8481 53.6271C11.9563 53.2203 11.8876 52.8814 11.6132 52.4746C10.1039 51.7966 9.3492 50.3051 8.11428 49.8305ZM78.5047 1.9661L78.3675 1.89831C78.7105 1.89831 78.8477 1.83051 78.5047 1.9661ZM69.9975 2.98305C70.958 2.64407 70.6835 2.84746 70.8208 2.91525C69.7917 3.05085 69.3114 3.25424 68.3509 3.38983C68.4881 3.38983 68.5567 3.45763 68.6254 3.52542C68.2823 3.59322 67.9393 3.66102 67.7335 3.52542C68.1451 3.11864 70.4777 3.05085 69.9975 2.98305ZM89.4818 1.15254C89.4132 1.15254 89.4132 1.15254 89.3446 1.15254H89.4818ZM84.1991 0.813559C84.1305 0.745763 83.9932 0.745763 83.856 0.677966C83.9246 0.745763 84.0619 0.813559 84.1991 0.813559ZM73.7709 0.745763C73.4964 0.677966 72.9476 0.813559 72.6045 0.881356C72.7418 0.881356 73.0848 0.881356 73.7709 0.745763ZM18.8855 26.7119C19.16 26.5763 19.7088 26.3051 19.16 26.3729C18.9541 26.5085 18.4053 26.5085 18.2681 26.7119H18.1995C18.5425 26.7119 18.8169 26.7119 18.8855 26.7119ZM2.69436 44C2.55714 43.9322 2.48854 43.7288 2.35132 43.8644V43.7966C2.28272 43.8644 2.28272 43.9322 2.28272 43.8644C2.21411 44.1356 2.21411 44.4068 2.28272 44.5424C2.62575 44.6102 2.69436 45.1525 2.69436 44Z" fill="#FED044"/>
<path d="M0.36377 34.1017C0.36377 34.2373 0.36377 34.3729 0.432062 34.4407C0.36377 34.3051 0.36377 34.2373 0.36377 34.1017Z" fill="#FED044"/>
<path d="M2.28418 44.4748C2.28418 44.4748 2.35293 44.2036 2.42168 43.8646C2.35293 43.9324 2.28418 44.1358 2.28418 44.4748Z" fill="#FED044"/>
<path d="M101.627 12.813L101.352 12.6774L101.764 13.0842C102.656 13.5588 102.793 13.4232 103.136 13.4232C102.313 13.0842 101.901 12.6774 100.872 12.0672L101.627 12.813Z" fill="#FED044"/>
<path d="M101.833 11.525C101.764 11.4572 101.627 11.1861 101.489 11.1183H101.283L101.833 11.525Z" fill="#FED044"/>
<path d="M94.0796 2.71162C94.3541 2.98281 94.6285 3.254 94.8344 3.52518C95.1775 3.66078 94.3541 2.64383 94.0796 2.71162Z" fill="#FED044"/>
<path d="M95.3839 7.25389L95.7276 7.66067C95.5901 7.18609 95.2464 6.71152 95.1089 6.71152C95.4526 7.18609 95.1089 6.84711 95.3839 7.25389Z" fill="#FED044"/>
<path d="M91.6099 1.22046C91.1982 1.28825 90.5806 0.745882 90.3062 0.881475C90.5806 0.881475 91.4727 1.35605 91.6099 1.22046Z" fill="#FED044"/>
<path d="M91.2664 3.38951C91.4036 3.72849 91.8839 3.72849 92.3643 4.13527C92.0212 3.86408 91.5408 3.32171 91.2664 3.38951Z" fill="#FED044"/>
<path d="M86.0531 0.745433C86.1217 0.60984 86.5334 0.60984 87.0138 0.745433C86.8765 0.81323 86.7393 0.81323 86.5334 0.881027C87.2882 0.81323 87.3569 0.881027 87.9744 0.881027C87.3569 0.677637 86.4648 0.542043 86.5334 0.338654C86.0531 0.40645 85.5042 0.542043 86.0531 0.745433Z" fill="#FED044"/>
<path d="M90.032 2.91551C90.4437 3.1189 90.6496 3.32229 91.1299 3.59347C91.1299 3.45788 90.9926 3.18669 90.3751 2.9833C90.4437 2.9833 90.5809 2.91551 90.6496 2.91551C90.1692 2.57652 90.7868 3.18669 90.032 2.91551Z" fill="#FED044"/>
<path d="M83.2397 0.203312L83.5142 0.271108C84.269 0.135515 85.1611 0.271108 85.5728 0.0677185C84.7494 0.0677185 83.6515 0.135515 83.2397 0.203312Z" fill="#FED044"/>
<path d="M87.8367 2.10196L87.6992 2.37315C88.3867 2.50874 87.6305 2.30535 87.9055 2.23755C88.1117 2.30535 88.3867 2.37315 88.5242 2.37315C87.768 2.23755 88.5242 2.10196 87.8367 2.10196Z" fill="#FED044"/>
<path d="M85.5041 2.16971L84.6121 2.2375L85.2982 2.57649C86.3275 2.50869 85.3669 2.3731 85.5041 2.16971Z" fill="#FED044"/>
<path d="M84.4063 1.96613L82.9653 2.23731C83.7888 2.10172 83.8574 2.10172 84.4063 1.96613Z" fill="#FED044"/>
<path d="M67.8036 1.76254C67.6661 1.89814 68.4911 1.83034 68.1473 1.83034C68.2848 1.69475 67.1849 1.83034 67.8036 1.76254Z" fill="#FED044"/>
<path d="M71.5083 3.05096C71.0966 3.05096 69.93 3.45774 69.4497 3.66113C69.9987 3.45774 71.5769 3.18656 71.5083 3.05096Z" fill="#FED044"/>
<path d="M69.1758 3.72911C69.2445 3.72911 69.3133 3.66132 69.382 3.66132C69.3133 3.72911 69.2445 3.72911 69.1758 3.72911Z" fill="#FED044"/>
<path d="M46.9468 10.7115C46.8781 10.7115 46.8093 10.7793 46.8093 10.7793C46.8093 10.7793 46.8781 10.7793 46.9468 10.7115Z" fill="#FED044"/>
<path d="M47.4271 10.5088C47.7702 10.441 48.525 10.1698 48.5936 10.0342C48.0447 10.2376 47.5644 10.441 46.8782 10.7121C47.1526 10.6443 47.4957 10.6443 47.4271 10.5088Z" fill="#FED044"/>
<path d="M42.6249 12.0676C42.8311 11.932 43.1061 11.7964 43.0374 11.7286C42.8999 11.7286 42.4186 12.0676 42.6249 12.0676Z" fill="#FED044"/>
<path d="M14.4969 27.0508C14.0157 27.1186 13.7407 27.2542 13.8782 27.3898C14.4282 27.1864 14.0844 27.1864 14.4969 27.0508Z" fill="#FED044"/>
<path d="M13.2621 27.525L13.1934 27.4572L12.8496 27.3894L13.2621 27.525Z" fill="#FED044"/>
<path d="M9.89915 27.8648C9.89915 27.8648 10.0366 27.797 10.1054 27.797C9.89915 27.797 9.6929 27.8648 9.89915 27.8648Z" fill="#FED044"/>
<path d="M10.38 27.7287C10.3112 27.6609 10.2425 27.7287 10.105 27.7287C10.2425 27.7287 10.38 27.7287 10.38 27.7287Z" fill="#FED044"/>
<path d="M8.80127 27.9322L9.48746 28.0678C10.1736 27.8644 8.66403 28.0678 9.35022 27.7289L8.80127 27.9322Z" fill="#FED044"/>
<path d="M6.53895 28.2715C5.92138 28.2715 5.02934 28.7461 4.68624 28.4749C3.93144 28.6105 3.7942 28.6783 4.00006 28.8139C4.06868 28.8817 4.1373 28.9494 3.93144 29.0172C3.7942 29.085 3.31387 29.085 2.62769 29.5596C3.31387 29.2206 3.86282 29.2206 4.1373 29.1528C4.34315 29.085 4.41177 29.0172 4.54901 28.9495C4.75486 28.8139 4.8921 28.6783 5.78414 28.6783C4.8921 28.4749 6.26447 28.4071 6.53895 28.2715Z" fill="#FED044"/>
<path d="M6.88107 28.7459C6.94969 28.6103 6.19488 28.6781 5.92041 28.8137C6.19488 28.8137 6.6066 28.9493 6.88107 28.7459Z" fill="#FED044"/>
<path d="M2.42184 29.0169C2.07875 29.1525 1.80427 29.3559 1.5298 29.5593C1.46118 29.6271 1.46118 29.6949 1.46118 29.8305C1.66704 29.4915 2.01013 29.2203 2.42184 29.0169Z" fill="#FED044"/>
<path d="M0.43224 31.5256C0.43224 31.2544 0.500989 31.051 0.569738 30.7798C0.500989 31.051 0.157245 32.068 0.43224 31.5256Z" fill="#FED044"/>
<path d="M0.0200195 35.1863C0.0200195 35.7287 0.501262 36.1355 0.226266 35.0507V35.3219C0.226266 35.2541 0.157517 35.8643 0.0200195 35.1863Z" fill="#FED044"/>
<path d="M1.39238 41.6951C1.39238 41.3562 1.32363 40.9494 1.25488 41.0172C1.32363 41.3562 1.32363 41.6273 1.32363 41.8985L1.39238 41.6951Z" fill="#FED044"/>
<path d="M2.35306 41.4917C2.55931 41.1527 2.28432 40.6103 2.35306 39.9323C2.35306 40.7459 2.28432 40.6103 2.35306 41.4917Z" fill="#FED044"/>
<path d="M1.04824 42.712C0.979947 42.4408 1.04824 42.1019 1.04824 41.8985C0.911655 41.9663 0.911655 42.5764 1.04824 42.712Z" fill="#FED044"/>
<path d="M1.05063 44.2715C0.981881 44.6105 0.913132 44.2037 0.844384 44.4749C0.775635 44.8817 0.775635 45.2207 0.775635 45.5597V45.6953C0.775635 45.7631 0.775635 45.8308 0.775635 45.8986C0.775635 46.0342 0.844384 46.1698 0.844384 46.2376C0.913132 46.441 0.981881 46.5766 1.05063 46.7122C1.05063 46.441 1.25688 46.0342 1.46312 46.3732C1.39437 46.0342 1.32563 45.5597 1.32563 45.4241C1.25688 45.2207 1.18813 45.0173 1.18813 44.8139C1.11938 44.4749 1.05063 44.1359 1.25688 43.8647C1.11938 43.5258 0.981881 43.1868 0.913132 42.9156C0.706886 43.7969 1.05063 43.5936 1.05063 44.2715Z" fill="#FED044"/>
<path d="M1.9417 42.1021L1.8042 42.6444C1.9417 42.5088 1.9417 42.9834 2.01045 43.2546C2.28544 43.119 1.9417 42.441 1.9417 42.1021Z" fill="#FED044"/>
<path d="M4.13672 50.3052C4.47981 50.5764 4.82291 50.8476 5.09738 51.1187L4.82291 50.8476C4.61705 50.6442 4.34257 50.5086 4.13672 50.3052Z" fill="#FED044"/>
<path d="M4.68506 50.9155C4.89131 51.1867 5.1663 51.3223 5.4413 51.5257C5.23505 51.3901 4.96005 51.1867 4.68506 50.9155Z" fill="#FED044"/>
<path d="M5.5786 51.9325L5.50985 51.7969C5.30361 51.6613 5.09736 51.5257 4.89111 51.3223L5.5786 51.9325Z" fill="#FED044"/>
<path d="M7.63594 53.6276L7.4987 53.3565C7.22423 53.2209 6.81252 52.6785 6.7439 52.8819C7.01837 53.0175 7.56732 53.4242 7.63594 53.6276Z" fill="#FED044"/>
<path d="M16.4859 55.729C16.2796 55.729 16.3484 55.7968 16.4171 55.9324L16.8296 55.8646C16.6921 55.8646 16.4859 55.7968 16.4859 55.729Z" fill="#FED044"/>
<path d="M17.5149 56.6778L18.4069 56.8134C17.5149 56.3388 17.309 56.4744 16.5542 56.1354C16.8287 56.4066 17.3776 56.4744 17.7207 56.6778H17.5149Z" fill="#FED044"/>
<path d="M34.7345 60.6783C34.6659 60.8139 34.8717 60.8139 34.1855 60.8817C35.1462 60.8139 35.901 60.9495 36.9989 61.0173C36.7931 60.8817 37.6165 60.8139 37.2048 60.8139H35.9696L36.1755 60.7461C35.3521 60.5427 35.6265 60.8139 34.7345 60.6783Z" fill="#FED044"/>
<path d="M59.8453 95.1187C59.7078 95.0509 59.7078 95.1865 59.7078 95.3899C60.0515 96 59.7765 94.9831 59.8453 95.1187Z" fill="#FED044"/>
</svg>
