<svg width="21" height="15" viewBox="0 0 21 15" fill="none" xmlns="http://www.w3.org/2000/svg">
<mask id="mask0" mask-type="alpha" maskUnits="userSpaceOnUse" x="0" y="0" width="21" height="15">
<path fill-rule="evenodd" clip-rule="evenodd" d="M0.484863 14.2728H20.8485V0.697021H0.484863V14.2728Z" fill="white"/>
</mask>
<g mask="url(#mask0)">
<path fill-rule="evenodd" clip-rule="evenodd" d="M20.6449 3.62577C20.6449 3.62577 20.4459 2.29565 19.8355 1.70978C19.0611 0.940951 18.1931 0.93712 17.7949 0.892101C14.9453 0.697021 10.6711 0.697021 10.6711 0.697021H10.662C10.662 0.697021 6.38785 0.697021 3.53786 0.892101C3.13971 0.93712 2.27235 0.940951 1.49762 1.70978C0.887265 2.29565 0.688529 3.62577 0.688529 3.62577C0.688529 3.62577 0.484741 5.18769 0.484741 6.7496V8.21413C0.484741 9.77605 0.688529 11.338 0.688529 11.338C0.688529 11.338 0.887265 12.6681 1.49762 13.2536C2.27235 14.0225 3.28994 13.9982 3.74299 14.0787C5.37195 14.2268 10.6664 14.2728 10.6664 14.2728C10.6664 14.2728 14.9453 14.2667 17.7949 14.0713C18.1931 14.0263 19.0611 14.0225 19.8355 13.2536C20.4459 12.6681 20.6449 11.338 20.6449 11.338C20.6449 11.338 20.8484 9.77605 20.8484 8.21413V6.7496C20.8484 5.18769 20.6449 3.62577 20.6449 3.62577ZM8.24353 10.394L8.24246 4.57581L14.0606 7.49518L8.24353 10.394Z" fill="black"/>
</g>
</svg>
