<svg width="23" height="19" viewBox="0 0 23 19" fill="none" xmlns="http://www.w3.org/2000/svg">
<mask id="mask0" mask-type="alpha" maskUnits="userSpaceOnUse" x="0" y="0" width="23" height="19">
<path fill-rule="evenodd" clip-rule="evenodd" d="M22.1516 18.2124V0.757812H0.818237L0.818237 18.2124H22.1516Z" fill="white"/>
</mask>
<g mask="url(#mask0)">
<path fill-rule="evenodd" clip-rule="evenodd" d="M20.2934 3.0382C20.1166 3.19707 19.9186 3.33459 19.725 3.47663C20.6555 3.37893 21.4404 3.13591 22.1516 2.81899C21.9916 3.15602 21.6544 3.50455 21.4085 3.82762H21.3868C21.3716 3.87852 21.3139 3.88632 21.2988 3.93723C21.1445 4.07434 20.9984 4.22048 20.8618 4.37606C20.7906 4.44298 20.6952 4.48608 20.6433 4.57311C20.4317 4.7406 20.2341 4.92286 20.0098 5.07763V5.23116C19.9587 5.50866 20.0016 5.88141 19.9873 6.19586V6.43683C19.9378 6.46762 19.9791 6.58954 19.9656 6.65604C19.6387 9.96887 18.3529 12.3186 16.665 14.2657C16.6048 14.3072 16.5537 14.3585 16.5124 14.4192C16.3286 14.5851 16.1535 14.7608 15.9874 14.9451C15.9276 14.987 15.8765 15.0383 15.8347 15.0986C13.9581 16.7542 11.6535 17.9796 8.33732 18.1906C8.16218 18.205 7.92935 18.1615 7.79063 18.2124H7.76894H7.20056H7.17887C7.05447 18.1615 6.83637 18.205 6.67596 18.1906C4.82228 18.051 3.23417 17.5974 1.88912 16.9188C1.5012 16.723 1.1325 16.505 0.818237 16.2608H0.905397C0.942635 16.3109 1.07235 16.269 1.14601 16.283H1.18979C1.23399 16.333 1.37107 16.2908 1.45209 16.3047C1.61986 16.3412 1.93986 16.3412 2.10763 16.3047C2.18825 16.2908 2.32533 16.333 2.36993 16.283H2.41331C2.48001 16.269 2.60195 16.3109 2.63223 16.2608C4.54157 16.0715 5.96231 15.3913 7.15677 14.4849C7.19565 14.4648 7.2247 14.4357 7.24434 14.3971H7.00373C5.92262 14.3121 5.16478 13.9032 4.5121 13.3884C4.48019 13.3252 4.40694 13.3039 4.35906 13.2567C4.27313 13.1528 4.17901 13.0576 4.07508 12.9718C4.05502 12.9332 4.02597 12.9036 3.98751 12.8839C3.64664 12.4434 3.3381 11.9713 3.15683 11.3708C3.26977 11.3749 3.40357 11.3576 3.4846 11.3925C3.5292 11.4434 3.66628 11.4007 3.7469 11.4147C3.84224 11.4512 4.08899 11.4512 4.18392 11.4147C4.26495 11.4007 4.40203 11.4434 4.44663 11.3925C4.69256 11.3839 4.88038 11.3162 5.10217 11.2833C4.33778 11.0633 3.66055 10.7562 3.13514 10.2965C3.11509 10.2579 3.08603 10.2287 3.04757 10.2086C2.94731 10.09 2.83806 9.98037 2.71939 9.87979C2.12809 9.22338 1.70743 8.39538 1.60513 7.24841C1.61905 7.1384 1.57608 6.97091 1.62682 6.89743C2.14037 7.1934 2.74108 7.40235 3.52838 7.42411C3.51692 7.33298 3.31642 7.24184 3.2223 7.16056C3.19079 7.09734 3.11713 7.076 3.06967 7.0292C2.97637 6.91754 2.87448 6.81532 2.76358 6.72214C2.7509 6.69053 2.72921 6.66877 2.69811 6.65604C2.17802 6.00128 1.76063 5.24306 1.64851 4.17861V3.34527C1.71234 2.63467 1.93945 2.08787 2.1952 1.56898C2.36175 1.62974 2.5152 1.88959 2.65392 2.05175C2.91417 2.36086 3.19488 2.64904 3.50669 2.90684C5.40662 4.57475 7.69365 5.85514 10.982 6.13018C11.0237 6.16302 11.3511 6.17985 11.2881 6.10842C11.259 5.88141 11.1821 5.70284 11.2009 5.4282V4.85841C11.2819 3.741 11.694 2.95569 12.228 2.29272C12.2665 2.27301 12.2959 2.24345 12.3152 2.20487C12.4412 2.0969 12.5574 1.98032 12.665 1.85388C12.7039 1.83417 12.733 1.80503 12.7526 1.76644C13.3893 1.25741 14.1218 0.84443 15.1792 0.757812H16.0094C17.0652 0.846073 17.7911 1.26562 18.436 1.76644C18.4552 1.80503 18.4847 1.83417 18.5232 1.85388C18.6341 1.9368 18.7421 2.21718 18.9164 2.09526C19.9464 1.90027 20.784 1.51274 21.5832 1.08663C21.3778 1.72867 21.0496 2.24715 20.6433 2.68722C20.554 2.75865 20.4738 2.83911 20.4031 2.9286C20.3572 2.95569 20.3204 2.99264 20.2934 3.0382Z" fill="black"/>
</g>
</svg>
