<svg width="20" height="20" viewBox="0 0 20 20" fill="none" xmlns="http://www.w3.org/2000/svg">
<mask id="mask0" mask-type="alpha" maskUnits="userSpaceOnUse" x="0" y="0" width="20" height="20">
<path fill-rule="evenodd" clip-rule="evenodd" d="M9.99987 19.2121H0.787842V0.787842H9.99987H19.2119V19.2121H9.99987Z" fill="white"/>
</mask>
<g mask="url(#mask0)">
<path fill-rule="evenodd" clip-rule="evenodd" d="M16.4909 16.4872H13.7583V12.2118C13.7583 11.1927 13.7389 9.88069 12.3377 9.88069C10.9141 9.88069 10.6979 10.991 10.6979 12.1381V16.4872H7.96626V7.69499H10.5874V8.89645H10.6252C10.9898 8.20505 11.8819 7.47584 13.2123 7.47584C15.9789 7.47584 16.4909 9.29693 16.4909 11.6649V16.4872ZM4.88263 6.49257C4.00408 6.49257 3.2962 5.78275 3.2962 4.90808C3.2962 4.03439 4.00408 3.32457 4.88263 3.32457C5.75729 3.32457 6.46808 4.03439 6.46808 4.90808C6.46808 5.78275 5.75729 6.49257 4.88263 6.49257ZM3.51342 16.4872H6.25087V7.69499H3.51342V16.4872ZM17.8475 0.787842H2.14711C1.39754 0.787842 0.787598 1.38227 0.787598 2.11536V17.8826C0.787598 18.6167 1.39754 19.2121 2.14711 19.2121H17.8475C18.598 19.2121 19.2118 18.6167 19.2118 17.8826V2.11536C19.2118 1.38227 18.598 0.787842 17.8475 0.787842Z" fill="black"/>
</g>
</svg>
