<svg width="32" height="32" viewBox="0 0 32 32" fill="none" xmlns="http://www.w3.org/2000/svg">
<path fill-rule="evenodd" clip-rule="evenodd" d="M16 0C7.16344 0 0 7.16342 0 16C0 24.8366 7.16344 32 16 32C24.8366 32 32 24.8366 32 16C32 7.16342 24.8366 0 16 0ZM15.3795 22.8812H12.8044V17.6401C12.8044 16.5998 12.758 15.941 12.6601 15.6612C12.5622 15.3794 12.3903 15.158 12.1431 14.9948C11.8952 14.8273 11.5865 14.7445 11.2138 14.7445C10.7878 14.7445 10.4044 14.8517 10.0718 15.0632C9.73238 15.2766 9.4877 15.5953 9.33333 16.0213C9.17586 16.448 9.09742 17.078 9.10054 17.9118L9.09742 22.8812H6.5261V8.7793H9.10054V14.2218C9.9288 13.2342 10.922 12.7366 12.074 12.7366C12.6676 12.7366 13.1991 12.8496 13.6753 13.0748C14.1534 13.2982 14.5111 13.5849 14.752 13.9325C14.9948 14.2839 15.1586 14.6685 15.2471 15.0927C15.3356 15.5144 15.3795 16.1713 15.3795 17.0616V22.8812ZM25.5166 22.8812H22.9446V17.6401C22.9446 16.5998 22.8963 15.941 22.7978 15.6612C22.6999 15.3794 22.5286 15.158 22.2802 14.9948C22.0348 14.8273 21.7236 14.7445 21.3509 14.7445C20.9248 14.7445 20.5421 14.8517 20.2089 15.0632C19.8732 15.2766 19.6279 15.5953 19.4711 16.0213C19.3167 16.448 19.2383 17.078 19.2383 17.9118V22.8812H16.6663V8.7793H19.2383V14.2218C20.0672 13.2342 21.0598 12.7366 22.2118 12.7366C22.8028 12.7366 23.3374 12.8496 23.8156 13.0748C24.2911 13.2982 24.6488 13.5849 24.8891 13.9325C25.1319 14.2839 25.2963 14.6685 25.3841 15.0927C25.4726 15.5144 25.5166 16.1713 25.5166 17.0616V22.8812Z" fill="#DF1B12"/>
</svg>
