<svg xmlns="http://www.w3.org/2000/svg" width="18.665" height="18.386" viewBox="0 0 18.665 18.386"><defs><style>.a{fill:#e3be84;}</style></defs><g transform="translate(-4 -4.797)"><path class="a" d="M9.628,4.8c.1,0,.1,0,.187.1s.377.374.377.564a4.689,4.689,0,0,0,.092,1.03c.187.469.377,1.689.656,2.345s.377,1.033.1,1.407a28.179,28.179,0,0,1-2.063,2.253A6.866,6.866,0,0,0,10,13.99a12.017,12.017,0,0,0,2.158,2.345,12.239,12.239,0,0,0,3,2.063c1.033-1.03,1.876-1.876,2.158-2.063s.282-.282.751-.092a7.394,7.394,0,0,0,1.876.561c.656.1,1.407.187,1.876.282s.469.1.564.282a1.028,1.028,0,0,1,.278.561v3.847a.715.715,0,0,1-.092.469,3.645,3.645,0,0,0-.187.656c0,.1-.469.282-.751.282a16.507,16.507,0,0,1-1.971-.1,18.732,18.732,0,0,1-3.1-.747,17.958,17.958,0,0,1-5.437-2.909A19.282,19.282,0,0,1,5.876,12.96,17.246,17.246,0,0,1,4.187,7.519,10.247,10.247,0,0,1,4,5.643a1.3,1.3,0,0,1,.564-.656A1.74,1.74,0,0,1,5.312,4.8H9.628Z" transform="translate(0)"/></g></svg>