<?xml version="1.0" standalone="no"?>
<!DOCTYPE svg PUBLIC "-//W3C//DTD SVG 20010904//EN"
 "http://www.w3.org/TR/2001/REC-SVG-20010904/DTD/svg10.dtd">
<svg version="1.0" xmlns="http://www.w3.org/2000/svg"
 width="1000.000000pt" height="1000.000000pt" viewBox="0 0 1000.000000 1000.000000"
 preserveAspectRatio="xMidYMid meet">
<metadata>
Created by potrace 1.11, written by Peter Selinger 2001-2013
</metadata>
<g transform="translate(0.000000,1000.000000) scale(0.100000,-0.100000)"
fill="#000000" stroke="none">
<path d="M904 8563 c-1 -27 -15 -184 -19 -213 -2 -14 -6 -54 -10 -90 -3 -36
-8 -81 -10 -100 -2 -19 -7 -71 -10 -115 -4 -44 -8 -91 -11 -105 -2 -14 -6 -59
-9 -100 -4 -41 -8 -86 -10 -101 -3 -14 -7 -56 -10 -95 -7 -87 -11 -133 -19
-214 -4 -36 -9 -85 -11 -110 -2 -25 -7 -67 -9 -95 -7 -59 -14 -138 -22 -215
-2 -30 -7 -73 -9 -95 -3 -22 -7 -69 -10 -105 -3 -36 -7 -87 -10 -115 -3 -27
-8 -75 -11 -105 -3 -30 -7 -68 -9 -85 -2 -16 -7 -66 -10 -110 -4 -44 -8 -91
-10 -105 -3 -14 -7 -61 -10 -105 -3 -44 -8 -91 -10 -105 -2 -14 -7 -59 -10
-100 -4 -41 -8 -91 -10 -110 -2 -19 -6 -62 -10 -95 -3 -33 -7 -80 -10 -105 -2
-25 -7 -72 -10 -105 -3 -33 -8 -80 -10 -105 -3 -25 -7 -72 -10 -105 -3 -33 -8
-76 -10 -95 -2 -19 -7 -67 -10 -105 -13 -150 -25 -275 -30 -315 -2 -19 -7 -64
-10 -100 -3 -36 -8 -81 -10 -100 -2 -19 -7 -64 -10 -100 -3 -36 -8 -85 -10
-110 -2 -25 -7 -74 -10 -110 -4 -36 -8 -76 -10 -90 -2 -14 -7 -65 -11 -115 -3
-49 -8 -99 -10 -109 -2 -10 -6 -51 -9 -90 -4 -39 -8 -93 -11 -121 -10 -105
-13 -132 -19 -200 -3 -38 -8 -86 -10 -105 -8 -64 -16 -144 -20 -195 -8 -99
-17 -191 -20 -215 -2 -14 -6 -59 -10 -100 -3 -41 -8 -86 -10 -100 -2 -14 -7
-59 -11 -100 -4 -41 -8 -88 -10 -105 -1 -16 -6 -68 -9 -115 -4 -47 -8 -92 -10
-100 -2 -8 -6 -53 -10 -99 -4 -47 -8 -92 -10 -100 -2 -9 -6 -54 -9 -101 -4
-47 -9 -101 -11 -120 -7 -58 -14 -131 -21 -205 -3 -38 -7 -81 -9 -95 -2 -14
-7 -59 -10 -100 -4 -41 -10 -106 -14 -143 -4 -37 -5 -70 -2 -71 3 -2 318 -3
699 -4 l692 0 1 32 c0 17 2 42 4 56 1 14 6 75 10 135 4 61 8 126 10 145 2 19
6 80 10 135 3 55 8 116 10 135 2 19 7 78 10 130 3 52 8 127 11 165 7 84 11
149 13 193 l1 32 435 0 435 0 1 -37 c0 -21 2 -49 4 -63 1 -14 6 -63 9 -110 4
-47 9 -101 11 -120 2 -19 6 -71 10 -115 3 -44 7 -96 9 -115 2 -19 7 -71 10
-115 4 -44 9 -105 13 -135 3 -30 7 -71 8 -90 6 -82 17 -222 19 -238 3 -16 84
-17 1332 -18 l1329 -1 0 2539 c0 1397 3 2542 7 2545 5 2 9 -10 9 -26 1 -17 2
-34 3 -38 2 -9 18 -100 21 -123 2 -8 6 -31 10 -50 3 -19 8 -46 10 -60 2 -14
11 -68 20 -120 9 -52 18 -106 20 -120 2 -14 14 -79 25 -145 12 -66 23 -131 25
-145 2 -14 6 -38 9 -55 3 -16 8 -47 11 -69 7 -41 12 -66 20 -106 3 -14 7 -41
10 -60 2 -19 6 -46 9 -60 3 -14 12 -68 20 -120 9 -52 18 -104 20 -115 8 -41
19 -111 22 -132 1 -12 5 -34 8 -50 4 -15 8 -41 10 -58 3 -16 12 -70 21 -120 8
-49 18 -106 21 -125 3 -19 9 -57 14 -85 9 -49 14 -73 25 -149 4 -21 8 -48 11
-59 2 -12 6 -39 9 -62 3 -22 8 -47 10 -55 2 -8 7 -31 10 -50 3 -19 8 -47 11
-62 3 -15 7 -39 9 -55 2 -15 6 -44 10 -63 3 -19 8 -46 10 -60 2 -14 18 -108
35 -210 18 -102 34 -198 36 -215 3 -16 12 -68 21 -115 8 -47 16 -94 18 -105 2
-11 8 -51 15 -90 6 -38 14 -83 16 -100 3 -16 9 -52 14 -80 5 -27 12 -63 15
-80 2 -16 7 -41 9 -55 3 -14 7 -41 10 -60 3 -19 19 -116 36 -215 17 -99 33
-196 36 -215 2 -19 7 -46 10 -60 11 -58 13 -69 18 -106 7 -40 16 -94 22 -129
3 -11 11 -60 19 -110 8 -49 17 -100 19 -111 2 -12 7 -39 10 -60 4 -22 11 -64
16 -94 5 -30 12 -71 15 -90 3 -19 8 -42 10 -50 2 -8 7 -40 10 -70 4 -30 9 -58
11 -61 2 -4 293 -6 646 -5 l642 1 13 75 c7 41 15 95 18 120 3 25 8 56 10 70 9
53 75 457 80 495 4 22 8 51 11 65 2 14 9 54 14 90 6 36 13 76 15 90 2 14 14
86 25 160 12 74 23 144 25 155 3 11 7 36 9 55 3 19 19 121 36 225 17 105 44
276 61 380 17 105 33 204 35 220 3 17 7 44 9 60 4 27 13 83 20 125 5 30 16 96
20 125 2 17 9 59 15 95 6 36 13 76 15 90 9 62 18 117 21 135 2 11 13 79 24
150 12 72 23 141 25 155 11 65 87 538 90 560 2 14 6 39 9 55 2 17 14 91 26
165 12 74 25 158 30 185 5 28 12 70 15 95 3 25 10 68 15 95 5 28 12 68 15 90
3 22 12 83 21 135 8 52 17 109 20 125 2 17 6 41 9 55 6 32 13 75 20 125 3 22
10 65 15 95 6 30 13 74 16 98 3 23 9 54 12 67 4 14 7 -1119 6 -2518 0 -1398 1
-2547 3 -2553 3 -8 184 -11 656 -10 l652 1 2 3578 1 3577 -1102 0 -1102 0 -12
-87 c-7 -49 -15 -108 -18 -133 -3 -25 -9 -70 -14 -100 -5 -30 -12 -80 -15
-110 -3 -30 -8 -62 -10 -70 -2 -8 -7 -44 -10 -80 -4 -36 -8 -67 -10 -70 -2 -3
-6 -34 -10 -70 -3 -36 -8 -72 -10 -80 -2 -8 -7 -40 -10 -70 -3 -30 -8 -62 -10
-70 -2 -8 -7 -40 -10 -70 -3 -30 -8 -66 -10 -80 -3 -14 -7 -44 -10 -68 -3 -24
-7 -53 -10 -65 -2 -12 -7 -44 -10 -72 -3 -27 -10 -77 -15 -110 -5 -33 -11 -82
-15 -110 -3 -27 -7 -61 -10 -75 -2 -14 -7 -47 -10 -75 -3 -27 -8 -62 -10 -76
-3 -14 -7 -43 -10 -64 -10 -77 -26 -201 -30 -225 -2 -14 -7 -45 -10 -70 -3
-25 -8 -58 -10 -75 -12 -84 -15 -104 -21 -149 -3 -27 -7 -56 -9 -65 -1 -9 -6
-41 -9 -72 -4 -31 -8 -65 -10 -75 -2 -11 -7 -44 -11 -74 -4 -30 -8 -62 -10
-70 -1 -8 -6 -42 -10 -75 -4 -32 -9 -68 -11 -78 -2 -11 -6 -38 -8 -61 -9 -73
-17 -130 -21 -156 -5 -36 -24 -167 -30 -220 -3 -25 -8 -56 -10 -70 -2 -14 -6
-41 -9 -60 -7 -48 -45 -335 -52 -385 -3 -22 -7 -51 -9 -65 -2 -14 -6 -47 -10
-75 -3 -27 -10 -75 -15 -105 -5 -30 -11 -75 -14 -100 -7 -54 -16 -118 -21
-145 -2 -11 -4 -31 -4 -44 -2 -44 -10 -16 -20 69 -6 47 -13 94 -15 105 -2 11
-7 46 -11 79 -3 32 -8 68 -10 80 -4 20 -32 225 -41 291 -2 17 -8 62 -13 100
-6 39 -13 90 -16 115 -3 25 -8 56 -10 70 -2 14 -7 45 -10 70 -3 25 -8 56 -10
70 -2 14 -7 49 -10 79 -4 30 -8 61 -10 70 -1 9 -6 39 -9 66 -6 45 -10 79 -21
155 -2 14 -6 45 -10 70 -3 25 -8 63 -11 85 -3 22 -7 51 -9 65 -2 14 -6 45 -10
70 -4 25 -8 56 -10 70 -2 14 -9 63 -15 110 -6 47 -13 96 -15 110 -4 25 -24
170 -31 225 -2 17 -8 64 -14 105 -19 130 -21 144 -25 180 -3 19 -7 51 -10 70
-2 19 -7 58 -10 85 -3 28 -8 57 -10 65 -2 8 -7 40 -10 70 -7 59 -13 100 -20
140 -2 14 -7 46 -10 72 -3 26 -10 80 -15 120 -9 61 -22 157 -45 331 -2 16 -6
40 -9 55 -3 15 -8 52 -11 82 -3 30 -10 82 -15 115 -5 33 -11 78 -15 100 -3 22
-8 58 -10 80 -3 22 -8 58 -11 80 -3 22 -7 51 -9 65 -2 14 -6 44 -9 68 -10 69
-18 126 -21 142 -2 8 -4 27 -4 43 l-1 27 -1095 0 -1095 0 0 -3567 c0 -1961 -2
-3564 -4 -3562 -2 2 -7 43 -11 91 -3 47 -7 95 -9 105 -2 10 -7 58 -11 107 -4
50 -8 97 -10 105 -1 9 -6 54 -10 101 -8 102 -12 149 -20 215 -8 80 -14 141
-20 218 -3 40 -7 88 -10 107 -2 19 -7 64 -10 100 -3 36 -8 81 -10 100 -3 19
-7 67 -10 105 -3 39 -7 84 -9 100 -2 17 -7 66 -10 110 -4 44 -9 91 -11 105 -2
14 -7 61 -10 105 -4 44 -8 94 -10 110 -2 17 -6 64 -10 105 -4 41 -8 86 -10
100 -2 14 -6 61 -10 105 -4 44 -8 96 -10 115 -6 65 -16 165 -20 200 -6 49 -14
132 -21 220 -3 41 -7 86 -9 100 -2 14 -7 61 -10 105 -4 44 -8 91 -10 105 -2
14 -6 59 -10 100 -3 41 -8 91 -10 110 -2 19 -7 64 -10 100 -3 36 -8 81 -10
100 -3 19 -7 64 -10 100 -6 83 -14 163 -20 220 -3 25 -7 65 -9 90 -7 80 -17
184 -21 225 -2 22 -7 72 -10 110 -4 39 -8 81 -10 95 -2 14 -6 59 -10 100 -3
41 -8 91 -10 110 -2 19 -7 64 -10 100 -3 36 -8 83 -10 105 -2 22 -6 69 -10
105 -3 36 -10 108 -15 160 -25 262 -27 280 -35 370 -3 41 -8 86 -10 100 -2 14
-7 60 -10 104 -4 43 -8 93 -10 110 -2 17 -7 60 -10 96 -8 105 -16 183 -20 220
-5 44 -15 141 -19 200 -3 25 -7 72 -10 105 -3 33 -8 85 -11 115 -9 95 -15 164
-20 205 -3 22 -7 63 -10 90 -2 28 -7 82 -10 120 -4 39 -8 86 -10 105 -2 19 -7
69 -11 110 -4 41 -8 83 -8 93 0 16 -65 17 -1216 17 -1151 0 -1216 -1 -1216
-17z m1227 -1215 c0 -7 2 -20 3 -28 2 -8 7 -58 11 -110 3 -52 8 -108 9 -125 2
-16 6 -60 10 -97 3 -38 8 -96 11 -130 3 -35 8 -90 11 -123 3 -33 7 -78 8 -100
4 -40 13 -151 21 -235 2 -25 7 -81 11 -125 3 -44 8 -98 10 -120 2 -22 6 -67 9
-100 3 -33 7 -86 10 -117 7 -75 14 -157 20 -238 3 -36 8 -83 10 -105 2 -22 7
-71 10 -110 13 -164 21 -256 30 -350 2 -22 7 -74 10 -115 3 -41 8 -95 10 -120
3 -25 7 -77 10 -116 3 -40 7 -87 10 -105 2 -19 6 -72 10 -119 4 -47 8 -101 11
-120 2 -19 6 -69 9 -110 3 -41 7 -91 10 -110 2 -19 7 -73 10 -120 4 -47 8
-101 10 -120 2 -19 7 -69 10 -110 4 -41 8 -91 10 -111 l4 -36 -325 0 -324 0 4
46 c3 25 7 89 11 141 3 52 8 115 10 140 2 25 6 86 10 135 3 50 8 110 10 135 2
25 6 92 10 150 3 58 8 116 10 130 2 14 6 70 10 125 3 55 7 120 9 145 2 25 7
86 10 135 4 50 9 113 11 140 3 28 7 88 10 135 3 47 8 110 10 140 2 30 7 96 10
145 4 50 8 108 10 130 2 22 7 83 10 135 3 52 8 111 10 130 1 19 6 80 9 135 4
55 9 116 11 135 2 19 7 82 10 140 3 58 8 121 10 140 2 19 6 82 10 140 3 58 8
116 10 130 2 14 7 75 10 135 10 156 12 179 20 280 8 98 11 133 13 153 1 6 16
12 32 12 17 0 30 -5 31 -12z"/>
</g>
</svg>
