<svg width="12" height="10" viewBox="0 0 12 10" fill="none" xmlns="http://www.w3.org/2000/svg">
<path fill-rule="evenodd" clip-rule="evenodd" d="M5.8992 0.324281C6.2724 -0.0828378 6.90496 -0.110341 7.31208 0.262852L11.6757 4.26285C11.8823 4.45226 12 4.7197 12 5.00001C12 5.28031 11.8823 5.54775 11.6757 5.73716L7.31208 9.73716C6.90496 10.1104 6.2724 10.0828 5.8992 9.67573C5.52601 9.26861 5.55351 8.63604 5.96063 8.26285L9.5201 5.00001L5.96063 1.73716C5.55351 1.36397 5.52601 0.7314 5.8992 0.324281Z" fill="#004EFF"/>
<path d="M0 5C0 4.44772 0.447715 4 1 4H9C9.55229 4 10 4.44772 10 5C10 5.55228 9.55229 6 9 6H1C0.447716 6 0 5.55228 0 5Z" fill="#004EFF"/>
</svg>
