<svg width="40" height="40" viewBox="0 0 40 40" fill="none" xmlns="http://www.w3.org/2000/svg">
<path d="M31 35.5C31 35.7326 30.8778 36.074 30.3936 36.5033C29.9105 36.9317 29.1543 37.3631 28.1342 37.7457C26.1012 38.508 23.2255 39 20 39C16.7745 39 13.8988 38.508 11.8658 37.7457C10.8457 37.3631 10.0895 36.9317 9.60643 36.5033C9.12215 36.074 9 35.7326 9 35.5C9 35.2674 9.12215 34.926 9.60643 34.4967C10.0895 34.0683 10.8457 33.6369 11.8658 33.2543C13.8988 32.492 16.7745 32 20 32C23.2255 32 26.1012 32.492 28.1342 33.2543C29.1543 33.6369 29.9105 34.0683 30.3936 34.4967C30.8778 34.926 31 35.2674 31 35.5Z" fill="white" stroke="black" stroke-width="2"/>
<path d="M20 35V15" stroke="black" stroke-width="2" stroke-linecap="round" stroke-linejoin="round"/>
<path d="M19.9999 24C19.9999 12.2776 14.4866 9.10042 8.34313 9.00236C8.17834 8.99973 8.04402 9.13089 8.04173 9.29568C7.9585 15.291 6.82463 24 19.9999 24Z" fill="#FFDD2C" stroke="black" stroke-width="2"/>
<path d="M20 30C20 18.279 25.512 15.1012 31.6545 15.0024C31.8202 14.9997 31.9549 15.1307 31.9568 15.2964C32.0097 19.9437 33.1075 30 20 30Z" fill="#FFDD2C" stroke="black" stroke-width="2"/>
<path d="M19.9999 14.5C19.9999 6.1572 22.4083 4.0762 26.7524 2.58377C26.8936 2.53526 27.0504 2.59949 27.1125 2.73526C29.3903 7.71654 25.9063 14.5 19.9999 14.5Z" fill="#FFDD2C" stroke="black" stroke-width="2"/>
<ellipse cx="20" cy="35.5" rx="3" ry="1" fill="black"/>
</svg>
