<svg width="300" height="158" viewBox="0 0 300 158" fill="none" xmlns="http://www.w3.org/2000/svg">
<path d="M172.947 83.5104C231.61 72.696 299.108 84.1441 299.106 108.315C299.105 132.485 224.67 168.743 125.636 146.482C108.254 142.575 85.5577 127.727 42.5687 135.658C-0.420347 143.59 -14.2548 106.32 19.8384 103.739C53.9315 101.159 57.3929 89.9379 74.1926 97.7544C90.9923 105.571 116.806 89.7228 136.36 95.5962C155.915 101.47 149.607 87.813 172.947 83.5104Z" fill="#F4F4F4"/>
<path fill-rule="evenodd" clip-rule="evenodd" d="M134.755 141.793C134.234 141.947 133.673 141.883 133.201 141.615L81.1273 112.113C80.3425 111.668 80.5011 110.493 81.3758 110.273L128.836 98.3087C129.256 98.2028 129.699 98.2362 130.099 98.4039L190.022 123.555C190.888 123.918 190.82 125.168 189.919 125.435L134.755 141.793Z" fill="#AFAFAF"/>
<path fill-rule="evenodd" clip-rule="evenodd" d="M135.291 134.188C136.265 134.643 137.24 135.116 138.232 135.59C137.186 135.881 136.121 136.172 135.056 136.463C134.154 135.953 133.288 135.444 132.404 134.935C133.378 134.68 134.334 134.443 135.291 134.188Z" fill="white" stroke="white" stroke-linecap="round" stroke-linejoin="round"/>
<path fill-rule="evenodd" clip-rule="evenodd" d="M177.752 123.218C178.763 123.618 179.791 124.018 180.82 124.418C179.918 124.673 178.997 124.91 178.095 125.165C177.139 124.728 176.2 124.291 175.262 123.854C176.11 123.636 176.94 123.418 177.752 123.218Z" fill="white" stroke="white" stroke-linecap="round" stroke-linejoin="round"/>
<path fill-rule="evenodd" clip-rule="evenodd" d="M171.094 124.928C172.104 125.346 173.115 125.747 174.144 126.165C173.205 126.42 172.285 126.675 171.347 126.93C170.408 126.475 169.47 126.02 168.531 125.583C169.398 125.365 170.246 125.146 171.094 124.928Z" fill="white" stroke="white" stroke-linecap="round" stroke-linejoin="round"/>
<path fill-rule="evenodd" clip-rule="evenodd" d="M164.291 126.694C165.302 127.112 166.294 127.531 167.323 127.967C166.367 128.222 165.41 128.495 164.454 128.75C163.515 128.295 162.595 127.822 161.675 127.367C162.541 127.148 163.425 126.912 164.291 126.694Z" fill="white" stroke="white" stroke-linecap="round" stroke-linejoin="round"/>
<path fill-rule="evenodd" clip-rule="evenodd" d="M157.309 128.495C158.302 128.932 159.312 129.35 160.323 129.787C159.348 130.06 158.374 130.333 157.382 130.587C156.461 130.114 155.541 129.641 154.639 129.168C155.523 128.968 156.407 128.731 157.309 128.495Z" fill="white" stroke="white" stroke-linecap="round" stroke-linejoin="round"/>
<path fill-rule="evenodd" clip-rule="evenodd" d="M150.142 130.349C151.117 130.786 152.127 131.241 153.12 131.678C152.127 131.951 151.117 132.224 150.106 132.496C149.186 132.005 148.284 131.532 147.382 131.041C148.32 130.822 149.24 130.586 150.142 130.349Z" fill="white" stroke="white" stroke-linecap="round" stroke-linejoin="round"/>
<path fill-rule="evenodd" clip-rule="evenodd" d="M142.82 132.243C143.795 132.698 144.787 133.153 145.78 133.608C144.751 133.899 143.723 134.172 142.676 134.463C141.774 133.972 140.872 133.463 139.987 132.971C140.944 132.735 141.882 132.498 142.82 132.243Z" fill="white" stroke="white" stroke-linecap="round" stroke-linejoin="round"/>
<path fill-rule="evenodd" clip-rule="evenodd" d="M139.754 106.586C140.566 106.896 141.378 107.223 142.19 107.533C141.324 107.733 140.458 107.933 139.592 108.115C138.852 107.769 138.13 107.423 137.39 107.096C138.184 106.914 138.978 106.75 139.754 106.586Z" fill="white" stroke="white" stroke-linecap="round" stroke-linejoin="round"/>
<path fill-rule="evenodd" clip-rule="evenodd" d="M133.452 107.932C134.264 108.259 135.058 108.569 135.87 108.896C134.985 109.096 134.101 109.297 133.217 109.497C132.495 109.151 131.773 108.805 131.034 108.441C131.846 108.278 132.658 108.114 133.452 107.932Z" fill="white" stroke="white" stroke-linecap="round" stroke-linejoin="round"/>
<path fill-rule="evenodd" clip-rule="evenodd" d="M127.028 109.317C127.822 109.644 128.635 109.972 129.429 110.299C128.526 110.5 127.624 110.7 126.722 110.918C126 110.554 125.278 110.209 124.574 109.845C125.386 109.663 126.198 109.481 127.028 109.317Z" fill="white" stroke="white" stroke-linecap="round" stroke-linejoin="round"/>
<path fill-rule="evenodd" clip-rule="evenodd" d="M120.462 110.718C121.256 111.063 122.05 111.391 122.826 111.718C121.906 111.918 120.985 112.137 120.047 112.337C119.343 111.973 118.639 111.609 117.936 111.245C118.784 111.081 119.614 110.899 120.462 110.718Z" fill="white" stroke="white" stroke-linecap="round" stroke-linejoin="round"/>
<path fill-rule="evenodd" clip-rule="evenodd" d="M113.748 112.156C114.524 112.501 115.318 112.847 116.094 113.193C115.156 113.411 114.217 113.63 113.261 113.83C112.575 113.466 111.871 113.084 111.186 112.702C112.034 112.52 112.9 112.338 113.748 112.156Z" fill="white" stroke="white" stroke-linecap="round" stroke-linejoin="round"/>
<path fill-rule="evenodd" clip-rule="evenodd" d="M106.891 113.625C107.666 113.971 108.442 114.335 109.218 114.681C108.262 114.899 107.288 115.118 106.313 115.336C105.627 114.954 104.942 114.572 104.256 114.19C105.14 114.008 106.006 113.807 106.891 113.625Z" fill="white" stroke="white" stroke-linecap="round" stroke-linejoin="round"/>
<path fill-rule="evenodd" clip-rule="evenodd" d="M99.8868 115.135C100.645 115.499 101.421 115.844 102.179 116.208C101.186 116.427 100.212 116.663 99.2191 116.882C98.5515 116.499 97.8657 116.099 97.1981 115.717C98.0823 115.517 98.9845 115.317 99.8868 115.135Z" fill="white" stroke="white" stroke-linecap="round" stroke-linejoin="round"/>
<path fill-rule="evenodd" clip-rule="evenodd" d="M157.613 114.411C158.515 114.756 159.418 115.12 160.338 115.466C159.472 115.684 158.569 115.903 157.685 116.121C156.837 115.739 156.025 115.339 155.195 114.957C155.989 114.775 156.801 114.593 157.613 114.411Z" fill="white" stroke="white" stroke-linecap="round" stroke-linejoin="round"/>
<path fill-rule="evenodd" clip-rule="evenodd" d="M151.135 115.918C152.038 116.282 152.94 116.646 153.842 117.01C152.94 117.228 152.038 117.465 151.117 117.683C150.287 117.283 149.457 116.901 148.645 116.5C149.493 116.3 150.305 116.118 151.135 115.918Z" fill="white" stroke="white" stroke-linecap="round" stroke-linejoin="round"/>
<path fill-rule="evenodd" clip-rule="evenodd" d="M144.515 117.467C145.399 117.83 146.302 118.213 147.204 118.577C146.284 118.813 145.363 119.05 144.425 119.268C143.613 118.868 142.801 118.449 141.989 118.049C142.819 117.867 143.667 117.667 144.515 117.467Z" fill="white" stroke="white" stroke-linecap="round" stroke-linejoin="round"/>
<path fill-rule="evenodd" clip-rule="evenodd" d="M137.734 119.069C138.618 119.451 139.502 119.833 140.404 120.215C139.466 120.451 138.51 120.688 137.553 120.925C136.741 120.506 135.929 120.088 135.135 119.687C136.019 119.469 136.867 119.269 137.734 119.069Z" fill="white" stroke="white" stroke-linecap="round" stroke-linejoin="round"/>
<path fill-rule="evenodd" clip-rule="evenodd" d="M130.801 120.686C131.685 121.068 132.57 121.469 133.436 121.851C132.461 122.087 131.505 122.342 130.512 122.579C129.718 122.16 128.924 121.723 128.13 121.305C129.033 121.105 129.935 120.886 130.801 120.686Z" fill="white" stroke="white" stroke-linecap="round" stroke-linejoin="round"/>
<path fill-rule="evenodd" clip-rule="evenodd" d="M123.707 122.344C124.573 122.744 125.458 123.144 126.324 123.526C125.331 123.781 124.339 124.018 123.346 124.272C122.552 123.836 121.776 123.399 121.001 122.98C121.903 122.78 122.805 122.562 123.707 122.344Z" fill="white" stroke="white" stroke-linecap="round" stroke-linejoin="round"/>
<path fill-rule="evenodd" clip-rule="evenodd" d="M116.455 124.054C117.303 124.454 118.169 124.873 119.035 125.273C118.025 125.528 116.996 125.783 115.967 126.037C115.191 125.582 114.434 125.146 113.658 124.709C114.596 124.491 115.534 124.272 116.455 124.054Z" fill="white" stroke="white" stroke-linecap="round" stroke-linejoin="round"/>
<path fill-rule="evenodd" clip-rule="evenodd" d="M170.769 120.16C171.743 120.542 172.736 120.924 173.728 121.324C172.826 121.561 171.924 121.797 171.022 122.052C170.101 121.634 169.199 121.215 168.297 120.797C169.127 120.56 169.939 120.36 170.769 120.16Z" fill="white" stroke="white" stroke-linecap="round" stroke-linejoin="round"/>
<path fill-rule="evenodd" clip-rule="evenodd" d="M164.167 121.799C165.123 122.199 166.116 122.582 167.09 122.982C166.17 123.218 165.25 123.473 164.311 123.71C163.409 123.273 162.507 122.854 161.623 122.418C162.489 122.218 163.319 122.017 164.167 121.799Z" fill="white" stroke="white" stroke-linecap="round" stroke-linejoin="round"/>
<path fill-rule="evenodd" clip-rule="evenodd" d="M157.416 123.49C158.373 123.89 159.347 124.29 160.322 124.709C159.383 124.964 158.427 125.218 157.489 125.455C156.604 125.018 155.702 124.563 154.836 124.127C155.684 123.926 156.55 123.708 157.416 123.49Z" fill="white" stroke="white" stroke-linecap="round" stroke-linejoin="round"/>
<path fill-rule="evenodd" clip-rule="evenodd" d="M150.505 125.218C151.461 125.637 152.417 126.037 153.392 126.455C152.417 126.71 151.461 126.965 150.487 127.22C149.602 126.765 148.718 126.31 147.852 125.873C148.736 125.655 149.62 125.436 150.505 125.218Z" fill="white" stroke="white" stroke-linecap="round" stroke-linejoin="round"/>
<path fill-rule="evenodd" clip-rule="evenodd" d="M143.429 126.984C144.367 127.402 145.324 127.821 146.298 128.257C145.306 128.53 144.313 128.785 143.321 129.058C142.455 128.603 141.588 128.13 140.722 127.675C141.606 127.439 142.509 127.22 143.429 126.984Z" fill="white" stroke="white" stroke-linecap="round" stroke-linejoin="round"/>
<path fill-rule="evenodd" clip-rule="evenodd" d="M136.159 128.803C137.098 129.239 138.054 129.676 138.993 130.113C137.982 130.386 136.953 130.659 135.925 130.932C135.059 130.459 134.211 129.985 133.362 129.512C134.319 129.258 135.239 129.039 136.159 128.803Z" fill="white" stroke="white" stroke-linecap="round" stroke-linejoin="round"/>
<path fill-rule="evenodd" clip-rule="evenodd" d="M128.742 130.657C129.663 131.094 130.619 131.549 131.557 131.986C130.511 132.258 129.464 132.531 128.418 132.823C127.569 132.331 126.721 131.858 125.891 131.367C126.83 131.13 127.786 130.894 128.742 130.657Z" fill="white" stroke="white" stroke-linecap="round" stroke-linejoin="round"/>
<path fill-rule="evenodd" clip-rule="evenodd" d="M134.23 104.164C135.006 104.473 135.8 104.764 136.594 105.074C135.746 105.256 134.88 105.456 134.032 105.638C133.31 105.31 132.606 104.983 131.903 104.637C132.678 104.491 133.454 104.328 134.23 104.164Z" fill="white" stroke="white" stroke-linecap="round" stroke-linejoin="round"/>
<path fill-rule="evenodd" clip-rule="evenodd" d="M128.003 105.474C128.779 105.783 129.555 106.092 130.349 106.402C129.483 106.602 128.598 106.784 127.732 106.984C127.028 106.638 126.325 106.311 125.621 105.965C126.415 105.801 127.209 105.637 128.003 105.474Z" fill="white" stroke="white" stroke-linecap="round" stroke-linejoin="round"/>
<path fill-rule="evenodd" clip-rule="evenodd" d="M121.634 106.803C122.41 107.113 123.186 107.44 123.962 107.75C123.078 107.95 122.176 108.15 121.274 108.35C120.57 108.004 119.884 107.659 119.198 107.313C120.01 107.131 120.822 106.967 121.634 106.803Z" fill="white" stroke="white" stroke-linecap="round" stroke-linejoin="round"/>
<path fill-rule="evenodd" clip-rule="evenodd" d="M115.139 108.151C115.897 108.478 116.654 108.788 117.43 109.115C116.51 109.315 115.608 109.516 114.688 109.716C114.002 109.352 113.316 109.006 112.648 108.66C113.479 108.497 114.309 108.315 115.139 108.151Z" fill="white" stroke="white" stroke-linecap="round" stroke-linejoin="round"/>
<path fill-rule="evenodd" clip-rule="evenodd" d="M108.496 109.534C109.254 109.861 110.011 110.189 110.769 110.535C109.831 110.735 108.911 110.953 107.972 111.153C107.305 110.789 106.637 110.426 105.969 110.08C106.799 109.88 107.648 109.716 108.496 109.534Z" fill="white" stroke="white" stroke-linecap="round" stroke-linejoin="round"/>
<path fill-rule="evenodd" clip-rule="evenodd" d="M101.713 110.954C102.453 111.3 103.211 111.628 103.951 111.973C103.012 112.192 102.056 112.392 101.1 112.61C100.432 112.246 99.7643 111.882 99.1147 111.5C99.9809 111.318 100.847 111.136 101.713 110.954Z" fill="white" stroke="white" stroke-linecap="round" stroke-linejoin="round"/>
<path fill-rule="evenodd" clip-rule="evenodd" d="M94.7804 112.388C95.5203 112.734 96.2421 113.08 97 113.426C96.0256 113.644 95.0511 113.862 94.0767 114.062C93.4271 113.68 92.7774 113.316 92.1278 112.934C93.012 112.752 93.8962 112.57 94.7804 112.388Z" fill="white" stroke="white" stroke-linecap="round" stroke-linejoin="round"/>
<path fill-rule="evenodd" clip-rule="evenodd" d="M151.428 111.698C152.294 112.044 153.178 112.371 154.062 112.717C153.196 112.935 152.312 113.154 151.428 113.354C150.634 112.99 149.822 112.608 149.028 112.244C149.84 112.062 150.634 111.88 151.428 111.698Z" fill="white" stroke="white" stroke-linecap="round" stroke-linejoin="round"/>
<path fill-rule="evenodd" clip-rule="evenodd" d="M145.014 113.154C145.88 113.5 146.747 113.846 147.613 114.191C146.729 114.41 145.826 114.628 144.924 114.846C144.13 114.464 143.336 114.082 142.542 113.7C143.372 113.518 144.184 113.336 145.014 113.154Z" fill="white" stroke="white" stroke-linecap="round" stroke-linejoin="round"/>
<path fill-rule="evenodd" clip-rule="evenodd" d="M138.45 114.647C139.316 115.011 140.164 115.357 141.03 115.721C140.11 115.939 139.207 116.176 138.269 116.394C137.475 116.012 136.699 115.612 135.923 115.23C136.771 115.03 137.619 114.829 138.45 114.647Z" fill="white" stroke="white" stroke-linecap="round" stroke-linejoin="round"/>
<path fill-rule="evenodd" clip-rule="evenodd" d="M131.738 116.177C132.587 116.54 133.453 116.904 134.301 117.268C133.363 117.505 132.424 117.723 131.486 117.96C130.71 117.559 129.934 117.159 129.176 116.759C130.024 116.559 130.89 116.358 131.738 116.177Z" fill="white" stroke="white" stroke-linecap="round" stroke-linejoin="round"/>
<path fill-rule="evenodd" clip-rule="evenodd" d="M124.902 117.721C125.732 118.085 126.598 118.467 127.428 118.831C126.472 119.068 125.497 119.304 124.541 119.523C123.783 119.104 123.025 118.704 122.267 118.303C123.133 118.122 124.017 117.921 124.902 117.721Z" fill="white" stroke="white" stroke-linecap="round" stroke-linejoin="round"/>
<path fill-rule="evenodd" clip-rule="evenodd" d="M117.88 119.323C118.71 119.705 119.558 120.087 120.388 120.47C119.414 120.706 118.422 120.943 117.429 121.179C116.671 120.761 115.931 120.342 115.191 119.924C116.076 119.724 116.978 119.523 117.88 119.323Z" fill="white" stroke="white" stroke-linecap="round" stroke-linejoin="round"/>
<path fill-rule="evenodd" clip-rule="evenodd" d="M110.702 120.961C111.532 121.343 112.363 121.743 113.175 122.125C112.182 122.38 111.172 122.617 110.143 122.853C109.403 122.416 108.663 121.998 107.923 121.579C108.862 121.379 109.782 121.161 110.702 120.961Z" fill="white" stroke="white" stroke-linecap="round" stroke-linejoin="round"/>
<path fill-rule="evenodd" clip-rule="evenodd" d="M164.059 117.21C164.997 117.574 165.953 117.956 166.892 118.32C166.008 118.557 165.105 118.793 164.221 119.012C163.355 118.611 162.489 118.211 161.623 117.811C162.435 117.611 163.247 117.41 164.059 117.21Z" fill="white" stroke="white" stroke-linecap="round" stroke-linejoin="round"/>
<path fill-rule="evenodd" clip-rule="evenodd" d="M157.528 118.794C158.466 119.177 159.404 119.559 160.343 119.923C159.44 120.159 158.52 120.396 157.6 120.632C156.752 120.214 155.886 119.813 155.019 119.395C155.849 119.195 156.68 118.995 157.528 118.794Z" fill="white" stroke="white" stroke-linecap="round" stroke-linejoin="round"/>
<path fill-rule="evenodd" clip-rule="evenodd" d="M150.831 120.414C151.751 120.796 152.689 121.196 153.628 121.579C152.707 121.815 151.751 122.07 150.813 122.306C149.965 121.888 149.116 121.469 148.268 121.033C149.134 120.833 149.983 120.614 150.831 120.414Z" fill="white" stroke="white" stroke-linecap="round" stroke-linejoin="round"/>
<path fill-rule="evenodd" clip-rule="evenodd" d="M143.99 122.069C144.91 122.47 145.83 122.87 146.751 123.252C145.794 123.507 144.838 123.743 143.882 123.998C143.033 123.561 142.203 123.143 141.373 122.706C142.239 122.488 143.106 122.288 143.99 122.069Z" fill="white" stroke="white" stroke-linecap="round" stroke-linejoin="round"/>
<path fill-rule="evenodd" clip-rule="evenodd" d="M136.972 123.764C137.874 124.164 138.795 124.583 139.715 124.983C138.741 125.238 137.748 125.493 136.774 125.747C135.944 125.311 135.114 124.856 134.302 124.419C135.186 124.201 136.088 123.982 136.972 123.764Z" fill="white" stroke="white" stroke-linecap="round" stroke-linejoin="round"/>
<path fill-rule="evenodd" clip-rule="evenodd" d="M129.806 125.51C130.709 125.929 131.629 126.347 132.513 126.747C131.521 127.002 130.51 127.275 129.499 127.53C128.669 127.075 127.857 126.62 127.045 126.165C127.966 125.947 128.886 125.728 129.806 125.51Z" fill="white" stroke="white" stroke-linecap="round" stroke-linejoin="round"/>
<path fill-rule="evenodd" clip-rule="evenodd" d="M122.462 127.274C123.364 127.692 124.248 128.129 125.15 128.547C124.122 128.82 123.093 129.075 122.046 129.348C121.252 128.875 120.44 128.42 119.628 127.965C120.585 127.729 121.523 127.51 122.462 127.274Z" fill="white" stroke="white" stroke-linecap="round" stroke-linejoin="round"/>
<path fill-rule="evenodd" clip-rule="evenodd" d="M128.923 101.855C129.663 102.147 130.439 102.438 131.197 102.729C130.349 102.911 129.501 103.093 128.653 103.275C127.967 102.947 127.281 102.638 126.596 102.31C127.39 102.165 128.147 102.001 128.923 101.855Z" fill="white" stroke="white" stroke-linecap="round" stroke-linejoin="round"/>
<path fill-rule="evenodd" clip-rule="evenodd" d="M122.752 103.093C123.492 103.384 124.25 103.693 125.008 103.984C124.141 104.166 123.275 104.348 122.409 104.548C121.723 104.221 121.056 103.893 120.388 103.566C121.164 103.42 121.958 103.256 122.752 103.093Z" fill="white" stroke="white" stroke-linecap="round" stroke-linejoin="round"/>
<path fill-rule="evenodd" clip-rule="evenodd" d="M116.452 104.383C117.192 104.692 117.932 105.001 118.69 105.293C117.806 105.475 116.922 105.675 116.037 105.857C115.37 105.529 114.702 105.183 114.034 104.856C114.846 104.692 115.64 104.528 116.452 104.383Z" fill="white" stroke="white" stroke-linecap="round" stroke-linejoin="round"/>
<path fill-rule="evenodd" clip-rule="evenodd" d="M96.7492 108.368C97.471 108.695 98.1928 109.023 98.9147 109.351C97.9763 109.551 97.0199 109.751 96.0816 109.951C95.45 109.587 94.8003 109.241 94.1688 108.896C95.0349 108.714 95.8831 108.55 96.7492 108.368Z" fill="white" stroke="white" stroke-linecap="round" stroke-linejoin="round"/>
<path fill-rule="evenodd" clip-rule="evenodd" d="M90.1155 109.845C90.8373 110.173 91.5591 110.501 92.2809 110.828C91.3426 111.028 90.3862 111.228 89.4478 111.429C88.8162 111.065 88.1666 110.719 87.535 110.373C88.4012 110.191 89.2493 110.027 90.1155 109.845Z" fill="white" stroke="white" stroke-linecap="round" stroke-linejoin="round"/>
<path fill-rule="evenodd" clip-rule="evenodd" d="M145.491 109.096C146.321 109.423 147.187 109.751 148.017 110.079C147.151 110.279 146.285 110.497 145.4 110.697C144.624 110.333 143.867 109.988 143.091 109.624C143.903 109.442 144.697 109.26 145.491 109.096Z" fill="white" stroke="white" stroke-linecap="round" stroke-linejoin="round"/>
<path fill-rule="evenodd" clip-rule="evenodd" d="M139.119 110.499C139.949 110.826 140.797 111.172 141.627 111.499C140.743 111.718 139.859 111.918 138.956 112.118C138.199 111.754 137.441 111.39 136.683 111.026C137.495 110.844 138.307 110.68 139.119 110.499Z" fill="white" stroke="white" stroke-linecap="round" stroke-linejoin="round"/>
<path fill-rule="evenodd" clip-rule="evenodd" d="M132.623 111.919C133.453 112.265 134.283 112.61 135.113 112.938C134.211 113.156 133.291 113.375 132.389 113.575C131.631 113.193 130.873 112.829 130.133 112.465C130.981 112.301 131.793 112.101 132.623 111.919Z" fill="white" stroke="white" stroke-linecap="round" stroke-linejoin="round"/>
<path fill-rule="evenodd" clip-rule="evenodd" d="M125.998 113.391C126.81 113.737 127.64 114.082 128.47 114.446C127.55 114.665 126.612 114.883 125.673 115.101C124.934 114.719 124.194 114.337 123.454 113.955C124.302 113.773 125.15 113.573 125.998 113.391Z" fill="white" stroke="white" stroke-linecap="round" stroke-linejoin="round"/>
<path fill-rule="evenodd" clip-rule="evenodd" d="M119.213 114.882C120.007 115.246 120.837 115.592 121.649 115.956C120.711 116.174 119.755 116.411 118.798 116.629C118.058 116.247 117.337 115.847 116.615 115.465C117.481 115.264 118.347 115.082 119.213 114.882Z" fill="white" stroke="white" stroke-linecap="round" stroke-linejoin="round"/>
<path fill-rule="evenodd" clip-rule="evenodd" d="M112.27 116.413C113.064 116.777 113.876 117.141 114.688 117.505C113.713 117.741 112.739 117.96 111.765 118.196C111.043 117.796 110.321 117.396 109.617 116.995C110.501 116.813 111.386 116.613 112.27 116.413Z" fill="white" stroke="white" stroke-linecap="round" stroke-linejoin="round"/>
<path fill-rule="evenodd" clip-rule="evenodd" d="M105.179 117.974C105.973 118.338 106.767 118.72 107.561 119.102C106.568 119.338 105.576 119.575 104.565 119.811C103.861 119.411 103.157 118.993 102.454 118.592C103.374 118.392 104.276 118.192 105.179 117.974Z" fill="white" stroke="white" stroke-linecap="round" stroke-linejoin="round"/>
<path d="M44.7018 115.166C39.1472 113.966 46.2872 95.563 46.2872 95.563C46.2872 95.563 58.9839 97.1632 55.0164 99.9637C51.049 102.764 49.663 108.967 50.652 109.165C54.4958 109.934 53.8262 117.137 44.7018 115.166Z" fill="url(#paint0_linear)"/>
<path d="M38.2031 84.4702C43.5109 76.7607 57.7937 75.2741 59.7774 73.9602C61.7611 72.6464 97.1318 61.0709 98.9914 78.6196C100.851 96.1684 106.197 102.365 109.37 105.572C115.322 104.365 114.365 113.085 110.164 113.631C105.963 114.177 102.847 113.631 101.039 110.766C98.913 107.397 95.0877 101.877 91.517 102.365C87.9463 102.852 85.9766 103.913 84.7723 107.032C83.568 110.15 82.7886 111.566 82.7886 113.631C89.93 113.631 85.9625 123.968 75.8564 119.632C72.3038 118.108 74.5929 110.447 73.9285 105.572C69.5876 101.522 46.1189 103.748 43.5109 106.372C40.9028 108.997 36.2194 113.15 38.75 113.631C43.0909 114.456 41.3887 122.931 33.1955 119.632C24.0704 115.958 37.2123 94.7801 37.4489 86.719C29.476 86.719 26.6227 74.9814 31.938 72.2816C37.2533 69.5818 35.5455 80.4205 38.2031 84.4702Z" fill="url(#paint1_linear)"/>
<path d="M60.6349 73.9092C69.6863 86.456 91.5159 85.5606 98.9561 82.5927" stroke="black" stroke-width="8" stroke-linecap="round" stroke-linejoin="round"/>
<path d="M55.8093 47.9591C55.8082 42.3149 59.8995 31.252 74.9706 31.252C93.7923 31.252 84.2939 54.1508 98.5255 42.6533C104.964 42.6533 118.622 44.8603 116.179 57.8494C111.443 83.0314 90.4072 86.1074 70.9686 79.1239C56.6033 73.963 55.8105 53.6032 55.8093 47.9591Z" fill="url(#paint2_linear)"/>
<path d="M99.3757 63.7199C98.8344 62.9385 96.2031 64.4679 97.1639 65.2525C98.1248 66.037 98.169 64.9294 98.3942 65.0813C98.4907 65.1464 101.493 68.3433 103.191 68.4517C104.431 68.5308 106.384 68.2632 107.634 67.0379C108.233 66.45 107.483 65.6606 106.657 65.8044C104.395 66.198 101.058 66.1487 99.3757 63.7199Z" fill="black"/>
<path d="M95.8584 52.3894C94.4163 50.0751 94.0695 41.2501 103.616 39.439C113.162 37.628 117.559 42.0358 117.695 45.9496C117.83 49.8633 115.025 55.2622 105.503 55.5974C100.244 55.7825 97.3004 54.7037 95.8584 52.3894Z" fill="black"/>
<ellipse rx="3.22857" ry="4.19363" transform="matrix(0.974415 -0.224754 0.225835 0.974166 78.8842 45.4287)" fill="black"/>
<ellipse rx="0.982838" ry="1.44027" transform="matrix(0.999719 0.0236984 -0.0355792 0.999367 77.7229 44.3367)" fill="white"/>
<ellipse rx="2.949" ry="3.82566" transform="matrix(0.938708 -0.344713 0.343941 0.938991 86.7883 42.2261)" fill="black"/>
<ellipse rx="0.897246" ry="1.31464" transform="matrix(0.99483 -0.101551 0.0874253 0.996171 85.6117 41.3721)" fill="white"/>
<path d="M33.6705 32.7997C38.4517 47.9749 48.3404 27.457 55.0979 35.8816C61.8553 44.3062 67.8375 45.5182 58.136 33.6793C48.4345 21.8404 28.8894 17.6245 33.6705 32.7997Z" fill="#FFDD2C"/>
<path d="M91.9548 17.7569C96.0957 26.8418 74.4621 12.8944 76.0133 23.7622C77.5645 34.63 75.2673 42.3795 71.4545 23.7624C67.6417 5.1453 87.814 8.67206 91.9548 17.7569Z" fill="#FFDD2C"/>
<path d="M198.974 92.8103C210.318 90.8739 193.294 68.9302 192.386 65.832L231.91 66.8312C231.91 66.8312 241.561 95.53 233.62 100.694C227.584 104.619 219.117 108.945 215.403 110.795C214.205 111.391 212.822 111.462 211.562 111.013L180.201 99.8177C178.263 99.1259 178.503 96.3118 180.532 95.9644C185.751 95.0706 192.84 93.8572 198.974 92.8103Z" fill="#AFAFAF"/>
<path d="M198.974 92.8103C210.318 90.8739 193.294 68.9302 192.386 65.832L231.91 66.8312C231.91 66.8312 241.561 95.53 233.62 100.694C227.584 104.619 219.117 108.945 215.403 110.795C214.205 111.391 212.822 111.462 211.562 111.013L180.201 99.8177C178.263 99.1259 178.503 96.3118 180.532 95.9644C185.751 95.0706 192.84 93.8572 198.974 92.8103Z" fill="url(#paint3_linear)"/>
<path d="M160.662 11.3975C160.662 7.07828 164.091 3.53892 168.408 3.40154L267.042 0.262683C271.558 0.118979 275.297 3.74064 275.297 8.25863V89.9092C275.297 94.9835 270.633 98.7758 265.666 97.7411L167.031 77.1979C163.321 76.4252 160.662 73.1556 160.662 69.366V11.3975Z" fill="#AFAFAF"/>
<ellipse rx="3.18026" ry="2.29176" transform="matrix(0.986687 0.162633 -0.15971 0.987164 211.033 80.9776)" fill="#F4F4F4"/>
<path d="M163.628 14.833C163.628 10.5025 167.074 6.95817 171.403 6.83615L264.108 4.22284C268.613 4.09585 272.334 7.71308 272.334 12.2197V78.1676C272.334 83.1672 267.799 86.9419 262.882 86.0348L170.177 68.9312C166.383 68.2311 163.628 64.9224 163.628 61.0639V14.833Z" fill="url(#paint4_linear)"/>
<path d="M187.623 44.5032C187.623 48.9171 187.623 52.3526 187.224 57.2865C177.053 56.8031 181.505 69.0785 189.612 61.3168C192.088 68.4473 204.725 62.1102 193.047 57.2865C193.047 55.5017 193.45 48.3446 193.45 45.2229C204.832 45.7394 198.648 34.2355 192.058 40.6057C184.519 32.7224 177.317 47.0868 187.623 44.5032Z" fill="white"/>
<path d="M213.774 31.7266C213.774 36.8425 214.241 56.3634 213.779 62.082C201.991 61.5217 206.993 75.7493 216.389 66.7532C219.26 75.0176 233.748 67.6728 220.213 62.082L220.213 32.5607C233.406 33.1595 226.395 19.826 218.758 27.2093C210.019 18.0723 201.829 34.7211 213.774 31.7266Z" fill="white"/>
<path d="M240.365 18.1828C240.365 23.1932 240.818 62.4894 240.365 68.09C228.82 67.5413 233.74 81.4754 242.942 72.6649C245.753 80.7589 259.964 73.5655 246.708 68.09C246.708 66.064 246.712 22.5433 246.712 18.9997C259.633 19.5861 252.746 6.52763 245.266 13.7587C236.708 4.81013 228.667 21.1156 240.365 18.1828Z" fill="white"/>
<defs>
<linearGradient id="paint0_linear" x1="49.0772" y1="115.506" x2="49.0772" y2="102.491" gradientUnits="userSpaceOnUse">
<stop stop-color="#FFA32D"/>
<stop offset="1" stop-color="#FFDD2C"/>
</linearGradient>
<linearGradient id="paint1_linear" x1="70.71" y1="120.694" x2="70.71" y2="86.9591" gradientUnits="userSpaceOnUse">
<stop stop-color="#FFA32D"/>
<stop offset="1" stop-color="#FFDD2C"/>
</linearGradient>
<linearGradient id="paint2_linear" x1="85.6416" y1="82.3687" x2="85.6416" y2="49.0086" gradientUnits="userSpaceOnUse">
<stop stop-color="#FFA32D"/>
<stop offset="1" stop-color="#FFDD2C"/>
</linearGradient>
<linearGradient id="paint3_linear" x1="202.661" y1="65.832" x2="202.661" y2="111.716" gradientUnits="userSpaceOnUse">
<stop stop-color="#111111"/>
<stop offset="1" stop-color="white" stop-opacity="0"/>
</linearGradient>
<linearGradient id="paint4_linear" x1="217.09" y1="87.7785" x2="217.09" y2="33.0966" gradientUnits="userSpaceOnUse">
<stop stop-color="#FFA32D"/>
<stop offset="1" stop-color="#FFDD2C"/>
</linearGradient>
</defs>
</svg>
