<svg width="248" height="64" viewBox="0 0 248 64" fill="none" xmlns="http://www.w3.org/2000/svg">
<path d="M58.1641 21.592H59.9321L67.6801 40H65.7561L63.7541 35.112H54.0041L51.9241 40H50.1301L58.1641 21.592ZM58.9701 23.464L54.6801 33.552H63.1301L58.9701 23.464Z" fill="white"/>
<path d="M79.941 38.232C79.3516 38.9427 78.6843 39.4714 77.939 39.818C77.1936 40.1474 76.3876 40.312 75.521 40.312C74.6023 40.312 73.753 40.156 72.973 39.844C72.193 39.532 71.5256 39.0987 70.971 38.544C70.4163 37.972 69.983 37.3047 69.671 36.542C69.359 35.762 69.203 34.9127 69.203 33.994C69.203 33.0754 69.359 32.2347 69.671 31.472C69.983 30.692 70.4163 30.0247 70.971 29.47C71.5256 28.898 72.193 28.456 72.973 28.144C73.753 27.832 74.6023 27.676 75.521 27.676C76.405 27.676 77.2196 27.858 77.965 28.222C78.7276 28.586 79.4036 29.0974 79.993 29.756L78.745 30.692C78.2943 30.1894 77.8003 29.7994 77.263 29.522C76.7256 29.2274 76.145 29.08 75.521 29.08C74.793 29.08 74.1343 29.21 73.545 29.47C72.9556 29.73 72.453 30.0854 72.037 30.536C71.621 30.9694 71.3003 31.4894 71.075 32.096C70.867 32.6854 70.763 33.318 70.763 33.994C70.763 34.67 70.867 35.3114 71.075 35.918C71.3003 36.5074 71.621 37.0274 72.037 37.478C72.453 37.9114 72.9556 38.258 73.545 38.518C74.1343 38.778 74.793 38.908 75.521 38.908C76.1796 38.908 76.7776 38.7607 77.315 38.466C77.8696 38.154 78.3463 37.7467 78.745 37.244L79.941 38.232Z" fill="white"/>
<path d="M92.4585 38.232C91.8692 38.9427 91.2019 39.4714 90.4565 39.818C89.7112 40.1474 88.9052 40.312 88.0385 40.312C87.1199 40.312 86.2705 40.156 85.4905 39.844C84.7105 39.532 84.0432 39.0987 83.4885 38.544C82.9339 37.972 82.5005 37.3047 82.1885 36.542C81.8765 35.762 81.7205 34.9127 81.7205 33.994C81.7205 33.0754 81.8765 32.2347 82.1885 31.472C82.5005 30.692 82.9339 30.0247 83.4885 29.47C84.0432 28.898 84.7105 28.456 85.4905 28.144C86.2705 27.832 87.1199 27.676 88.0385 27.676C88.9225 27.676 89.7372 27.858 90.4825 28.222C91.2452 28.586 91.9212 29.0974 92.5105 29.756L91.2625 30.692C90.8119 30.1894 90.3179 29.7994 89.7805 29.522C89.2432 29.2274 88.6625 29.08 88.0385 29.08C87.3105 29.08 86.6519 29.21 86.0625 29.47C85.4732 29.73 84.9705 30.0854 84.5545 30.536C84.1385 30.9694 83.8179 31.4894 83.5925 32.096C83.3845 32.6854 83.2805 33.318 83.2805 33.994C83.2805 34.67 83.3845 35.3114 83.5925 35.918C83.8179 36.5074 84.1385 37.0274 84.5545 37.478C84.9705 37.9114 85.4732 38.258 86.0625 38.518C86.6519 38.778 87.3105 38.908 88.0385 38.908C88.6972 38.908 89.2952 38.7607 89.8325 38.466C90.3872 38.154 90.8639 37.7467 91.2625 37.244L92.4585 38.232Z" fill="white"/>
<path d="M94.2381 33.994C94.2381 33.0754 94.3941 32.2347 94.7061 31.472C95.0181 30.692 95.4514 30.0247 96.0061 29.47C96.5608 28.898 97.2281 28.456 98.0081 28.144C98.7881 27.832 99.6374 27.676 100.556 27.676C101.475 27.676 102.315 27.832 103.078 28.144C103.858 28.456 104.525 28.898 105.08 29.47C105.652 30.0247 106.094 30.692 106.406 31.472C106.718 32.2347 106.874 33.0754 106.874 33.994C106.874 34.9127 106.718 35.762 106.406 36.542C106.094 37.3047 105.652 37.972 105.08 38.544C104.525 39.0987 103.858 39.532 103.078 39.844C102.315 40.156 101.475 40.312 100.556 40.312C99.6374 40.312 98.7881 40.156 98.0081 39.844C97.2281 39.532 96.5608 39.0987 96.0061 38.544C95.4514 37.972 95.0181 37.3047 94.7061 36.542C94.3941 35.762 94.2381 34.9127 94.2381 33.994ZM95.7981 33.994C95.7981 34.67 95.9021 35.3114 96.1101 35.918C96.3354 36.5074 96.6561 37.0274 97.0721 37.478C97.4881 37.9114 97.9908 38.258 98.5801 38.518C99.1694 38.778 99.8281 38.908 100.556 38.908C101.284 38.908 101.943 38.778 102.532 38.518C103.121 38.258 103.624 37.9114 104.04 37.478C104.456 37.0274 104.768 36.5074 104.976 35.918C105.201 35.3114 105.314 34.67 105.314 33.994C105.314 33.318 105.201 32.6854 104.976 32.096C104.768 31.4894 104.456 30.9694 104.04 30.536C103.624 30.0854 103.121 29.73 102.532 29.47C101.943 29.21 101.284 29.08 100.556 29.08C99.8281 29.08 99.1694 29.21 98.5801 29.47C97.9908 29.73 97.4881 30.0854 97.0721 30.536C96.6561 30.9694 96.3354 31.4894 96.1101 32.096C95.9021 32.6854 95.7981 33.318 95.7981 33.994Z" fill="white"/>
<path d="M120.518 36.62C120.518 36.8454 120.526 37.1227 120.544 37.452C120.561 37.764 120.57 38.0847 120.57 38.414C120.587 38.7434 120.604 39.0554 120.622 39.35C120.639 39.6274 120.648 39.844 120.648 40H119.088C119.07 39.5494 119.053 39.116 119.036 38.7C119.036 38.284 119.018 38.0154 118.984 37.894H118.906C118.594 38.5527 118.074 39.1247 117.346 39.61C116.618 40.078 115.768 40.312 114.798 40.312C113.862 40.312 113.09 40.1647 112.484 39.87C111.894 39.5754 111.426 39.194 111.08 38.726C110.75 38.2407 110.525 37.686 110.404 37.062C110.282 36.438 110.222 35.7967 110.222 35.138V27.988H111.782V35.06C111.782 35.5454 111.825 36.022 111.912 36.49C111.998 36.9407 112.146 37.348 112.354 37.712C112.579 38.076 112.882 38.3707 113.264 38.596C113.662 38.804 114.174 38.908 114.798 38.908C115.37 38.908 115.907 38.8127 116.41 38.622C116.93 38.414 117.372 38.1107 117.736 37.712C118.117 37.296 118.412 36.7847 118.62 36.178C118.845 35.554 118.958 34.826 118.958 33.994V27.988H120.518V36.62Z" fill="white"/>
<path d="M124.799 31.368C124.799 31.1427 124.79 30.874 124.773 30.562C124.756 30.2327 124.738 29.9034 124.721 29.574C124.721 29.2447 124.712 28.9414 124.695 28.664C124.678 28.3694 124.669 28.144 124.669 27.988H126.229C126.246 28.4387 126.255 28.872 126.255 29.288C126.272 29.704 126.298 29.9727 126.333 30.094H126.411C126.723 29.4354 127.243 28.872 127.971 28.404C128.699 27.9187 129.548 27.676 130.519 27.676C131.455 27.676 132.218 27.8234 132.807 28.118C133.396 28.4127 133.856 28.8027 134.185 29.288C134.532 29.756 134.766 30.302 134.887 30.926C135.026 31.55 135.095 32.1914 135.095 32.85V40H133.535V32.928C133.535 32.4427 133.492 31.9747 133.405 31.524C133.318 31.056 133.162 30.64 132.937 30.276C132.729 29.912 132.426 29.626 132.027 29.418C131.646 29.1927 131.143 29.08 130.519 29.08C129.947 29.08 129.401 29.184 128.881 29.392C128.378 29.5827 127.936 29.886 127.555 30.302C127.191 30.7007 126.896 31.212 126.671 31.836C126.463 32.4427 126.359 33.162 126.359 33.994V40H124.799V31.368Z" fill="white"/>
<path d="M145.122 29.392H141.69V37.218C141.69 37.7554 141.837 38.1714 142.132 38.466C142.427 38.7607 142.834 38.908 143.354 38.908C143.649 38.908 143.943 38.8734 144.238 38.804C144.55 38.7174 144.845 38.6134 145.122 38.492L145.252 39.896C144.957 40 144.619 40.0954 144.238 40.182C143.857 40.2687 143.519 40.312 143.224 40.312C142.669 40.312 142.193 40.2254 141.794 40.052C141.395 39.896 141.075 39.6794 140.832 39.402C140.589 39.1247 140.407 38.804 140.286 38.44C140.182 38.0587 140.13 37.6514 140.13 37.218V29.392H137.53V27.988H140.13V24.53H141.69V27.988H145.122V29.392Z" fill="white"/>
<path d="M148.19 27.988H149.75V40H148.19V27.988ZM147.8 23.23C147.8 22.9007 147.912 22.6234 148.138 22.398C148.363 22.1727 148.64 22.06 148.97 22.06C149.299 22.06 149.576 22.1727 149.802 22.398C150.027 22.6234 150.14 22.9007 150.14 23.23C150.14 23.5594 150.027 23.8367 149.802 24.062C149.576 24.2874 149.299 24.4 148.97 24.4C148.64 24.4 148.363 24.2874 148.138 24.062C147.912 23.8367 147.8 23.5594 147.8 23.23Z" fill="white"/>
<path d="M154.176 31.368C154.176 31.1427 154.167 30.874 154.15 30.562C154.132 30.2327 154.115 29.9034 154.098 29.574C154.098 29.2447 154.089 28.9414 154.072 28.664C154.054 28.3694 154.046 28.144 154.046 27.988H155.606C155.623 28.4387 155.632 28.872 155.632 29.288C155.649 29.704 155.675 29.9727 155.71 30.094H155.788C156.1 29.4354 156.62 28.872 157.348 28.404C158.076 27.9187 158.925 27.676 159.896 27.676C160.832 27.676 161.594 27.8234 162.184 28.118C162.773 28.4127 163.233 28.8027 163.562 29.288C163.909 29.756 164.143 30.302 164.264 30.926C164.402 31.55 164.472 32.1914 164.472 32.85V40H162.912V32.928C162.912 32.4427 162.868 31.9747 162.782 31.524C162.695 31.056 162.539 30.64 162.314 30.276C162.106 29.912 161.802 29.626 161.404 29.418C161.022 29.1927 160.52 29.08 159.896 29.08C159.324 29.08 158.778 29.184 158.258 29.392C157.755 29.5827 157.313 29.886 156.932 30.302C156.568 30.7007 156.273 31.212 156.048 31.836C155.84 32.4427 155.736 33.162 155.736 33.994V40H154.176V31.368Z" fill="white"/>
<path d="M180.687 39.22C180.687 40.7107 180.47 41.9154 180.037 42.834C179.604 43.7527 179.058 44.4634 178.399 44.966C177.758 45.4687 177.064 45.8067 176.319 45.98C175.574 46.1534 174.898 46.24 174.291 46.24C173.684 46.24 173.086 46.1794 172.497 46.058C171.925 45.954 171.379 45.7894 170.859 45.564C170.339 45.356 169.862 45.096 169.429 44.784C169.013 44.472 168.649 44.1167 168.337 43.718L169.559 42.574C170.114 43.354 170.807 43.926 171.639 44.29C172.471 44.654 173.355 44.836 174.291 44.836C175.088 44.836 175.756 44.732 176.293 44.524C176.848 44.316 177.298 44.0387 177.645 43.692C178.009 43.3627 178.286 42.99 178.477 42.574C178.685 42.1754 178.832 41.768 178.919 41.352C179.023 40.9534 179.084 40.572 179.101 40.208C179.118 39.844 179.127 39.5494 179.127 39.324V37.66H179.075C178.624 38.388 178.009 38.96 177.229 39.376C176.466 39.792 175.565 40 174.525 40C173.641 40 172.809 39.844 172.029 39.532C171.249 39.2027 170.564 38.7607 169.975 38.206C169.403 37.634 168.944 36.9754 168.597 36.23C168.268 35.4847 168.103 34.6874 168.103 33.838C168.103 32.9887 168.268 32.1914 168.597 31.446C168.944 30.7007 169.403 30.0507 169.975 29.496C170.564 28.9414 171.249 28.4994 172.029 28.17C172.809 27.8407 173.641 27.676 174.525 27.676C175.565 27.676 176.466 27.884 177.229 28.3C178.009 28.716 178.624 29.288 179.075 30.016H179.127V27.988H180.687V39.22ZM179.179 33.838C179.179 33.1794 179.049 32.564 178.789 31.992C178.546 31.4027 178.208 30.9 177.775 30.484C177.359 30.0507 176.856 29.7127 176.267 29.47C175.695 29.21 175.08 29.08 174.421 29.08C173.762 29.08 173.138 29.21 172.549 29.47C171.977 29.7127 171.474 30.0507 171.041 30.484C170.625 30.9 170.287 31.4027 170.027 31.992C169.784 32.564 169.663 33.1794 169.663 33.838C169.663 34.4967 169.784 35.1207 170.027 35.71C170.287 36.282 170.625 36.7847 171.041 37.218C171.474 37.634 171.977 37.972 172.549 38.232C173.138 38.4747 173.762 38.596 174.421 38.596C175.08 38.596 175.695 38.4747 176.267 38.232C176.856 37.972 177.359 37.634 177.775 37.218C178.208 36.7847 178.546 36.282 178.789 35.71C179.049 35.1207 179.179 34.4967 179.179 33.838Z" fill="white"/>
<path d="M193.514 25.544C193.167 25.0414 192.699 24.6774 192.11 24.452C191.538 24.2094 190.931 24.088 190.29 24.088C189.908 24.088 189.536 24.1314 189.172 24.218C188.825 24.3047 188.504 24.4434 188.21 24.634C187.932 24.8247 187.707 25.076 187.534 25.388C187.36 25.6827 187.274 26.038 187.274 26.454C187.274 27.078 187.49 27.5547 187.924 27.884C188.357 28.2134 188.894 28.4994 189.536 28.742C190.177 28.9847 190.879 29.2187 191.642 29.444C192.404 29.6694 193.106 29.9814 193.748 30.38C194.389 30.7787 194.926 31.3074 195.36 31.966C195.793 32.6247 196.01 33.5 196.01 34.592C196.01 35.58 195.828 36.4467 195.464 37.192C195.1 37.92 194.606 38.5267 193.982 39.012C193.375 39.4974 192.664 39.8614 191.85 40.104C191.035 40.3467 190.177 40.468 189.276 40.468C188.132 40.468 187.031 40.2774 185.974 39.896C184.916 39.5147 184.006 38.8734 183.244 37.972L185.714 35.58C186.112 36.1867 186.632 36.6634 187.274 37.01C187.932 37.3394 188.626 37.504 189.354 37.504C189.735 37.504 190.116 37.452 190.498 37.348C190.879 37.244 191.226 37.088 191.538 36.88C191.85 36.672 192.101 36.412 192.292 36.1C192.482 35.7707 192.578 35.398 192.578 34.982C192.578 34.306 192.361 33.786 191.928 33.422C191.494 33.058 190.957 32.7547 190.316 32.512C189.674 32.252 188.972 32.0094 188.21 31.784C187.447 31.5587 186.745 31.2554 186.104 30.874C185.462 30.4754 184.925 29.9554 184.492 29.314C184.058 28.6554 183.842 27.78 183.842 26.688C183.842 25.7347 184.032 24.9114 184.414 24.218C184.812 23.5247 185.324 22.9527 185.948 22.502C186.589 22.034 187.317 21.6874 188.132 21.462C188.946 21.2367 189.778 21.124 190.628 21.124C191.598 21.124 192.534 21.2714 193.436 21.566C194.354 21.8607 195.178 22.346 195.906 23.022L193.514 25.544Z" fill="white"/>
<path d="M210.523 40H207.559V37.998H207.507C207.213 38.622 206.762 39.168 206.155 39.636C205.549 40.0867 204.725 40.312 203.685 40.312C202.853 40.312 202.143 40.182 201.553 39.922C200.981 39.6447 200.513 39.2807 200.149 38.83C199.785 38.362 199.525 37.8334 199.369 37.244C199.213 36.6547 199.135 36.0394 199.135 35.398V27.52H202.255V33.838C202.255 34.1847 202.273 34.5747 202.307 35.008C202.342 35.424 202.429 35.8227 202.567 36.204C202.723 36.568 202.949 36.88 203.243 37.14C203.555 37.3827 203.989 37.504 204.543 37.504C205.063 37.504 205.497 37.4174 205.843 37.244C206.207 37.0707 206.502 36.8367 206.727 36.542C206.97 36.2474 207.143 35.9094 207.247 35.528C207.351 35.1467 207.403 34.748 207.403 34.332V27.52H210.523V40Z" fill="white"/>
<path d="M214.117 27.52H217.237V40H214.117V27.52ZM213.675 23.282C213.675 22.7794 213.857 22.346 214.221 21.982C214.602 21.6007 215.079 21.41 215.651 21.41C216.223 21.41 216.7 21.592 217.081 21.956C217.48 22.3027 217.679 22.7447 217.679 23.282C217.679 23.8194 217.48 24.27 217.081 24.634C216.7 24.9807 216.223 25.154 215.651 25.154C215.079 25.154 214.602 24.972 214.221 24.608C213.857 24.2267 213.675 23.7847 213.675 23.282Z" fill="white"/>
<path d="M219.363 30.172V27.52H221.937V23.906H225.057V27.52H228.489V30.172H225.057V35.632C225.057 36.256 225.17 36.75 225.395 37.114C225.638 37.478 226.106 37.66 226.799 37.66C227.076 37.66 227.38 37.634 227.709 37.582C228.038 37.5127 228.298 37.4087 228.489 37.27V39.896C228.16 40.052 227.752 40.156 227.267 40.208C226.799 40.2774 226.383 40.312 226.019 40.312C225.187 40.312 224.502 40.2167 223.965 40.026C223.445 39.8527 223.029 39.584 222.717 39.22C222.422 38.8387 222.214 38.3707 222.093 37.816C221.989 37.2614 221.937 36.62 221.937 35.892V30.172H219.363Z" fill="white"/>
<path d="M233.42 34.852C233.524 35.788 233.888 36.516 234.512 37.036C235.136 37.556 235.89 37.816 236.774 37.816C237.554 37.816 238.204 37.66 238.724 37.348C239.262 37.0187 239.73 36.6114 240.128 36.126L242.364 37.816C241.636 38.7174 240.822 39.3587 239.92 39.74C239.019 40.1214 238.074 40.312 237.086 40.312C236.15 40.312 235.266 40.156 234.434 39.844C233.602 39.532 232.883 39.09 232.276 38.518C231.67 37.946 231.184 37.2614 230.82 36.464C230.474 35.6494 230.3 34.748 230.3 33.76C230.3 32.772 230.474 31.8794 230.82 31.082C231.184 30.2674 231.67 29.574 232.276 29.002C232.883 28.43 233.602 27.988 234.434 27.676C235.266 27.364 236.15 27.208 237.086 27.208C237.953 27.208 238.742 27.364 239.452 27.676C240.18 27.9707 240.796 28.404 241.298 28.976C241.818 29.548 242.217 30.2587 242.494 31.108C242.789 31.94 242.936 32.902 242.936 33.994V34.852H233.42ZM239.816 32.512C239.799 31.5934 239.513 30.874 238.958 30.354C238.404 29.8167 237.632 29.548 236.644 29.548C235.708 29.548 234.963 29.8167 234.408 30.354C233.871 30.8914 233.542 31.6107 233.42 32.512H239.816Z" fill="white"/>
<path d="M242.762 25.72H241.954V25.168H244.194V25.72H243.386V28H242.762V25.72Z" fill="white"/>
<path d="M244.511 25.168H245.455L246.107 27.016H246.115L246.771 25.168H247.711V28H247.087V25.828H247.079L246.335 28H245.859L245.143 25.828H245.135V28H244.511V25.168Z" fill="white"/>
<path d="M69.5951 11.0643C69.8591 11.1077 69.5511 10.9775 69.3311 10.804L69.5951 11.0643Z" fill="#FED044"/>
<path d="M69.3752 10.8474L69.1992 10.6738C69.2432 10.7172 69.2872 10.804 69.3752 10.8474Z" fill="#FED044"/>
<path d="M67.6624 9.37215C68.1454 9.5891 68.5407 10.0664 68.892 10.1532C68.5407 9.76266 67.838 9.32876 67.6624 9.37215Z" fill="#FED044"/>
<path d="M68.1901 9.93626L68.3221 9.89287L67.8821 9.7627L68.1901 9.93626Z" fill="#FED044"/>
<path d="M68.409 10.1966L68.3651 10.1532L67.7502 9.7627L68.409 10.1966Z" fill="#FED044"/>
<path d="M66.2573 8.3309L66.6965 8.59123C67.0478 8.98174 66.3452 8.54784 66.5647 8.80818C67.0917 9.19869 66.8722 8.7214 67.5309 9.24208C67.5309 9.11191 66.4769 8.50446 66.6965 8.41768C66.1256 7.98378 66.5647 8.50446 66.2573 8.3309Z" fill="#FED044"/>
<path d="M38.3758 3.99194C38.3318 3.99194 38.3318 3.99194 38.2878 3.99194C38.3318 4.03533 38.3758 4.03533 38.3758 3.99194Z" fill="#FED044"/>
<path d="M30.1655 6.50854C30.0335 6.50854 29.9455 6.55193 29.8135 6.55193C29.8575 6.55193 29.9015 6.55193 29.9455 6.55193L30.1655 6.50854Z" fill="#FED044"/>
<path d="M43.425 2.21282C43.557 2.21282 43.645 2.16943 43.777 2.16943C43.689 2.16943 43.557 2.16943 43.425 2.21282Z" fill="#FED044"/>
<path d="M25.6425 12.583C25.5986 12.7132 25.5106 12.8867 25.4666 12.9735C25.5985 12.7566 25.6425 12.6264 25.6425 12.583Z" fill="#FED044"/>
<path d="M46.3671 1.51855C46.3231 1.51855 46.2791 1.51855 46.2351 1.51855C46.3231 1.56194 46.3671 1.56194 46.3671 1.51855C46.4111 1.51855 46.4111 1.51855 46.3671 1.51855Z" fill="#FED044"/>
<path d="M32.9315 5.94434C32.7995 5.94434 32.7115 5.98773 32.6235 6.03111C32.7555 5.98773 32.8435 5.98773 32.9315 5.94434Z" fill="#FED044"/>
<path d="M60.8573 2.86379C60.7693 2.73362 60.6813 2.64684 60.5933 2.56006C60.6373 2.69023 60.7253 2.77701 60.8573 2.86379Z" fill="#FED044"/>
<path d="M60.5935 2.60339C60.4618 2.38644 60.5496 2.1261 60.1104 2.08271L60.1543 2.16949C60.0226 1.99593 59.7152 1.86577 59.4956 1.7356C59.4956 1.77899 59.4956 1.77899 59.5395 1.82238C59.6274 1.90915 59.7591 1.99593 59.9348 2.16949C60.1104 2.38644 60.33 2.42983 60.5935 2.60339Z" fill="#FED044"/>
<path d="M38.3757 3.94856C38.4197 3.99195 38.6397 3.90517 38.3757 3.94856V3.94856Z" fill="#FED044"/>
<path d="M40.879 3.03735C40.791 3.03735 40.703 3.08074 40.615 3.08074C40.703 3.08074 40.791 3.08074 40.879 3.03735Z" fill="#FED044"/>
<path d="M50.4504 1.34497C50.4065 1.389 50.4504 1.34497 50.4504 1.34497V1.34497Z" fill="#FED044"/>
<path d="M40.3955 3.16741L40.6155 3.12402C40.5275 3.12402 40.4835 3.12402 40.3955 3.16741Z" fill="#FED044"/>
<path d="M32.5805 44.8218C32.4485 44.6916 32.4485 44.5614 32.3605 44.3879C32.0085 44.1709 32.8445 45.0821 32.4045 44.6916C32.4925 44.8218 32.6245 44.952 32.7125 45.0387L32.6685 44.735C32.4045 44.4747 32.7565 44.952 32.5805 44.8218Z" fill="#FED044"/>
<path d="M1.01017 27.8998V27.813C0.922173 27.8564 0.922173 27.813 0.878174 28.1601C0.966172 28.4638 1.14217 28.0299 1.27417 28.5072C1.27417 28.4204 1.27417 28.2469 1.27417 28.1167C1.14217 28.3337 1.05417 28.1167 1.01017 27.8998Z" fill="#FED044"/>
<path d="M1.27344 28.1165C1.27344 28.0732 1.31744 28.0731 1.31744 28.0298C1.31744 27.943 1.31744 27.8996 1.36144 27.8562C1.31744 27.8996 1.27344 27.9864 1.27344 28.1165Z" fill="#FED044"/>
<path d="M28.2771 41.2636C28.1891 41.2636 28.1451 41.2202 28.0571 41.2202C28.1451 41.2636 28.1891 41.2636 28.2771 41.2636Z" fill="#FED044"/>
<path d="M24.0616 11.2813C24.0616 11.1946 24.1056 11.1078 24.1056 11.021C24.0176 11.1946 24.0176 11.2379 24.0616 11.2813Z" fill="#FED044"/>
<path d="M0.83399 23.3437C0.83399 23.2569 0.83399 23.2135 0.83399 23.1268C0.83399 23.0834 0.83399 23.04 0.790283 22.9966L0.83399 23.3437Z" fill="#FED044"/>
<path d="M9.08881 34.842C8.86923 34.8854 9.22055 34.8854 9.44013 35.1458L9.74754 35.2325C9.48405 35.1024 9.26447 34.9722 9.08881 34.842Z" fill="#FED044"/>
<path d="M17.2119 38.0095C17.2559 38.0095 17.2999 38.0529 17.3439 38.0529C17.3439 38.0529 17.2999 38.0095 17.2119 38.0095Z" fill="#FED044"/>
<path d="M1.36109 26.2943C1.36109 25.9038 1.31738 25.5133 1.31738 25.1228V25.4699C1.4048 25.6435 1.27368 26.1642 1.36109 26.2943Z" fill="#FED044"/>
<path d="M5.1802 31.8915V31.7614C4.69721 31.501 4.25813 31.0671 3.86295 30.6766C3.46778 30.2861 3.20433 29.8956 2.85306 29.6786C2.80916 29.4183 2.76525 29.2881 2.76525 29.2014C2.76525 29.158 2.72134 29.158 2.72134 29.158H2.67743L2.63352 29.0278C2.54571 28.8108 2.41398 28.6373 2.63352 28.0732L2.58961 28.1166C2.58961 27.5959 2.63352 26.9451 2.63352 26.381C2.63352 25.8169 2.58961 25.2529 2.54571 24.6454C2.5018 24.0814 2.41398 23.5173 2.32617 22.9532L2.19444 22.1722C2.15053 21.9119 2.10662 21.6515 2.15053 21.5214C2.15053 21.2176 2.28226 20.7403 2.41398 20.5234C2.5018 20.4366 2.54571 20.3932 2.54571 20.3932C2.54571 20.3932 2.54571 20.3932 2.58961 20.3932H2.80916C3.99468 20.3498 5.00457 20.1763 6.01446 20.0027V20.0895C6.84872 20.0027 7.63906 19.9159 8.51723 19.7424C9.39539 19.5688 10.1857 19.3519 10.9761 19.1349C11.7664 18.918 12.5568 18.701 13.2593 18.4841C13.9619 18.3105 14.7522 18.1803 15.4986 18.0502C16.289 17.92 17.0793 17.8332 17.9136 17.7031C18.3527 17.6163 18.7918 17.5295 19.2748 17.3993C19.7138 17.2258 20.0651 17.0956 20.5042 16.922C21.2945 16.5749 22.041 16.1844 22.7874 15.7505C23.1826 15.5336 23.5339 15.2732 23.8851 14.9695C24.0608 14.8393 24.2364 14.6658 24.412 14.4922C24.5877 14.3186 24.7633 14.1017 24.9389 13.8847C25.1146 13.5376 25.1146 13.4508 25.0706 13.3641C25.0267 13.2773 25.0267 13.2339 25.1146 12.9302C25.2463 12.7132 25.4658 12.1925 25.5536 12.1925C25.4219 12.6698 25.5975 12.4529 25.5536 12.6264C25.861 11.8454 26.2562 10.9342 26.2123 10.0664L26.1244 10.3268C26.1244 10.3702 26.0805 10.4569 26.0805 10.5437L26.0366 10.6739C26.0805 10.2834 26.0805 9.93627 26.1244 9.71932C26.1684 9.8061 26.344 9.50237 26.344 9.71932C26.2562 9.02508 26.3001 8.76475 26.3879 8.5478C26.3879 8.50441 26.4318 8.41763 26.4318 8.37424H26.4757C26.4757 8.37424 26.4757 8.37424 26.4757 8.33085C26.3001 8.28746 26.5635 7.94034 26.8709 7.68C27.2221 7.37627 27.7051 7.07254 28.1003 6.85559C28.2759 6.8122 28.4077 6.8122 28.5833 6.76881C27.9686 6.94237 28.6272 6.94237 27.9247 7.15932C28.232 7.07254 28.5394 6.98576 28.8468 6.89898C29.1541 6.8122 29.4615 6.68203 29.7688 6.63864C29.6371 6.59525 29.6371 6.50847 29.9006 6.42169C30.2957 6.33492 30.3835 6.46509 30.8226 6.33492L30.4275 6.55186C30.7348 6.55186 30.9543 6.3783 31.2178 6.29153C31.3495 6.3783 32.0081 6.20475 31.9203 6.33492C32.4911 6.03119 32.7107 6.03119 33.3254 5.77085C32.6229 5.85763 33.4571 5.59729 33.3693 5.51051L32.6229 5.77085C33.6767 5.5539 32.2716 5.90102 32.4033 6.03119C31.8764 6.07458 33.018 5.5539 32.1838 5.81424C33.1498 5.42373 33.3693 5.46712 34.3353 5.03322C33.7206 5.25017 34.4231 4.90305 34.0718 4.94644C34.8622 4.72949 34.2914 4.94644 34.5548 4.98983C34.9939 4.85966 35.1695 4.90305 35.5208 4.6861C36.2233 4.55593 35.4769 4.85966 35.8282 4.81627C35.6086 4.98983 33.8962 5.20678 34.1597 5.5539C33.8084 5.64068 33.4132 5.94441 32.8863 6.07458C33.3693 5.9878 34.0279 5.94441 34.5548 5.68407L34.5109 5.46712C34.95 5.33695 34.9939 5.16339 35.3013 5.12C35.1695 5.20678 35.4769 5.25017 35.8282 5.12C35.7403 5.12 35.6086 5.16339 35.6086 5.12C36.2233 4.90305 36.2673 4.77288 37.0137 4.51254C36.399 4.64271 36.2233 4.59932 35.6525 4.6861C35.7843 4.51254 36.0477 4.55593 36.399 4.42576C36.3551 4.46915 36.2673 4.46915 36.399 4.46915L36.7502 4.29559C37.5406 4.12203 36.7063 4.55593 37.365 4.42576C37.8479 4.42576 37.9358 4.16542 38.287 4.16542C38.2431 4.16542 38.2431 4.16542 38.1992 4.16542C38.287 4.16542 38.3309 4.12203 38.3748 4.12203C38.77 3.99186 39.2091 3.8617 39.2969 3.73153C39.3408 3.77492 39.6482 3.60136 39.7799 3.55797C39.9995 3.4278 40.4824 3.16746 40.8776 3.25424H40.8337C41.3606 3.12407 41.7558 3.08068 41.668 3.16746L42.5022 2.9939L42.4583 3.16746C43.2048 2.90712 43.073 2.86373 43.556 2.56C44.1268 2.51661 45.005 2.21288 45.3563 2.08271C45.4002 2.08271 45.488 2.03932 45.6636 2.03932H45.3563C45.9271 1.90915 45.8392 1.86576 46.2344 1.77898C46.1466 1.77898 46.1466 1.77898 46.3661 1.77898C46.454 1.77898 46.4979 1.77898 46.5857 1.73559C46.5857 1.73559 46.4979 1.77898 46.4101 1.77898L46.4979 1.82237C46.9809 1.90915 47.2004 1.60542 47.7273 1.60542C47.6834 1.60542 47.5956 1.64881 47.5517 1.64881C47.859 1.64881 48.2542 1.82237 48.3859 1.6922C48.4737 1.6922 48.5616 1.64881 48.6494 1.60542H48.8689C48.7811 1.60542 48.7372 1.60542 48.6494 1.60542C48.7811 1.56203 48.9128 1.47525 48.9128 1.51864C49.1763 1.51864 49.3958 1.51864 49.6154 1.51864C49.7471 1.51864 49.9666 1.51864 50.0984 1.51864L50.2301 1.56203C50.4935 1.56203 50.4935 1.60542 50.4935 1.60542C51.4156 1.82237 51.9425 1.47525 52.9524 1.6922C53.128 1.34508 52.6889 1.30169 52.6889 1.21492C52.8646 1.12814 53.4354 1.08475 53.7427 1.04136C54.1818 1.17153 55.543 1.38847 55.3234 1.60542C56.1138 1.6922 55.1039 1.47525 55.4991 1.43186H55.5869C55.3234 1.38847 55.1039 1.30169 54.9283 1.21492C54.8843 1.08475 55.6308 1.12814 55.8503 1.17153L55.6308 1.30169C56.3772 1.34508 56.2455 1.08475 56.7724 0.997966C57.3871 1.17153 56.9919 1.25831 57.0798 1.43186C57.2993 1.47525 57.4749 1.51864 57.6945 1.56203L57.6506 1.6922C58.0457 1.77898 58.1775 1.73559 58.6605 1.99593C58.4409 1.95254 58.6166 2.08271 58.7922 2.21288C58.9239 2.34305 59.0556 2.47322 58.7922 2.38644C59.0117 2.56 59.2313 2.42983 59.2752 2.64678C59.5386 2.64678 59.0995 2.42983 58.9678 2.34305C58.9678 2.1261 59.5825 2.64678 59.8899 2.86373C59.846 2.95051 59.6264 2.77695 59.8899 3.12407C60.0216 3.12407 60.2412 3.29763 60.329 3.55797C60.4168 3.47119 60.6802 3.90508 60.7681 4.12203C60.6363 3.86169 60.4607 3.51458 60.6363 3.60136C60.812 3.73153 60.9437 3.90508 61.2071 4.33898C61.1632 4.20881 61.1193 4.12203 61.0754 3.99186C61.4706 4.29559 61.3389 4.6861 61.6901 5.20678C61.4706 5.03322 61.4267 4.90305 61.2071 4.72949C61.3828 4.94644 61.7779 5.38034 62.0853 5.72746C62.1292 5.90102 62.217 6.07458 62.3048 6.24814C62.3927 6.24814 62.7439 6.68203 62.8317 6.59525C63.0513 6.85559 62.9196 6.76881 62.7439 6.68203C62.5683 6.55186 62.3048 6.33492 62.2609 6.3783C62.5244 6.72542 62.7 6.76881 62.8317 6.85559C62.9635 6.94237 63.0952 7.02915 63.4025 7.33288C63.3147 7.33288 63.2269 7.28949 63.0952 7.28949C63.183 7.37627 63.4025 7.46305 63.5343 7.54983C63.666 7.63661 63.7977 7.68 63.7977 7.72339C63.7977 7.68 63.7099 7.63661 63.5782 7.54983C63.8416 7.41966 64.6759 8.02712 64.7198 7.76678L64.4124 7.54983C64.8954 7.81017 65.3345 7.89695 65.6419 8.20068C65.8614 8.46102 65.3784 8.20068 65.1589 8.15729C65.598 8.46102 65.6419 8.15729 66.1688 8.50441C65.9053 8.28746 66.037 8.24407 66.2127 8.33085C65.9492 8.1139 65.3345 7.68 65.3784 7.81017L65.4662 7.89695C65.4223 7.94034 65.2467 7.85356 65.115 7.81017C64.7198 7.54983 64.9832 7.59322 64.9393 7.50644C64.2807 7.02915 64.7637 7.68 64.149 7.28949L64.1051 7.20271C63.7538 7.07254 63.3147 6.76881 63.1391 6.8122C62.9635 6.50847 62.4366 6.29153 62.3048 5.94441C62.4366 5.81424 62.6122 6.03119 62.8757 6.33492C63.1391 6.59525 63.4465 6.89898 63.666 6.94237C63.4026 6.68203 63.9295 6.89898 64.1051 6.94237C63.7099 6.76881 63.4026 6.59525 63.0513 6.3783C63.0074 6.29153 62.8757 5.94441 62.6561 5.85763L62.7 5.94441C62.3488 5.64068 62.3488 5.81424 62.1292 5.46712C62.1292 5.38034 62.217 5.46712 62.2609 5.46712C62.0853 5.16339 61.9975 5.25017 61.8658 5.07661C61.6901 4.72949 62.0853 5.16339 61.9536 4.85966C61.6023 4.55593 61.6462 4.2522 61.4267 3.90508C61.3828 4.03525 61.1193 3.73153 60.8559 3.51458C60.5924 3.29763 60.4168 3.21085 60.6363 3.55797C60.4168 3.34102 60.1533 3.16746 59.9338 2.9939C59.846 2.86373 60.0216 2.90712 60.1973 2.9939C60.3729 3.03729 60.5485 3.12407 60.5046 2.95051C60.6802 3.12407 60.8559 3.34102 60.9876 3.55797C61.0315 3.4278 60.7681 3.12407 60.4168 2.82034C60.0655 2.51661 59.6704 2.25627 59.5386 1.99593C59.363 1.86576 59.3191 1.82237 59.1874 1.77898C59.0995 1.6922 58.9678 1.60542 58.6166 1.38847C58.6166 1.47525 58.6166 1.56203 58.6605 1.64881C58.3092 1.43186 58.2214 1.25831 58.2214 1.21492C58.0018 1.12814 57.7823 1.08475 57.5628 0.997966C57.6067 0.997966 57.7384 0.954576 57.8701 0.997966C57.6067 0.781017 57.4749 0.824407 57.3871 0.867797C57.2115 0.867797 56.948 0.824407 56.7285 0.781017L56.948 0.737627C56.7724 0.737627 56.5968 0.737627 56.5529 0.737627C56.465 0.737627 56.3333 0.737627 56.2455 0.737627C56.2894 0.781017 56.465 0.911186 56.8163 1.04136C55.8942 0.824407 55.1917 0.824407 54.4014 0.564068C54.4453 0.520678 54.7526 0.433898 54.6648 0.433898C54.2696 0.390508 53.8306 0.477288 53.8745 0.564068C53.7866 0.564068 53.6988 0.564068 53.6549 0.564068C53.5671 0.520678 53.4793 0.433898 53.3037 0.433898C53.2597 0.433898 53.1719 0.390508 53.0402 0.390508C52.9085 0.564068 52.162 0.477288 51.9864 0.564068C52.162 0.564068 52.3816 0.564068 52.6011 0.564068C52.2938 0.694237 51.9864 0.824407 51.7669 0.694237C52.3377 0.564068 51.1521 0.520678 52.0303 0.477288C51.4156 0.260339 51.723 0.650847 51.0643 0.564068L50.6253 0.477288C50.6692 0.347119 51.3278 0.390508 51.1961 0.347119H50.8887C51.1961 0.260339 52.2938 0.303729 52.9963 0.173559L51.6351 0C51.1961 0.0433898 50.757 0.0433898 50.274 0.0867797C50.0544 0.0867797 49.791 0.0867797 49.5715 0.0867797C49.308 0.0867797 49.0885 0.0867797 48.825 0.130169C47.859 0.216949 46.937 0.390508 46.2344 0.650847H46.2783C46.2344 0.650847 46.2344 0.694237 46.2344 0.737627H46.1466L45.8832 0.867797C45.5319 0.824407 44.9172 0.911186 44.3903 0.954576C44.7415 0.954576 44.7415 0.954576 44.7854 1.04136C44.7415 1.17153 44.6976 1.25831 44.2146 1.30169C44.1707 1.21492 44.4781 1.12814 44.1268 1.17153C44.3025 1.17153 44.1707 1.25831 43.9512 1.34508C43.6877 1.34508 43.2048 1.47525 43.2048 1.38847C43.3365 1.34508 43.4243 1.34508 43.5121 1.34508C43.6877 1.21492 43.0291 1.30169 43.3804 1.12814L42.8974 1.30169C42.59 1.30169 43.0291 1.12814 42.9413 1.12814C42.151 1.43186 41.7997 1.73559 41.0972 1.99593C41.0972 1.95254 41.0532 1.73559 41.0972 1.82237C40.5263 1.90915 39.9995 2.38644 39.3408 2.56C39.4286 2.47322 39.6482 2.42983 39.8238 2.34305C37.8919 2.82034 36.3112 3.25424 34.467 3.60136L34.0718 3.90508H33.5449C31.613 4.33898 30.2079 4.85966 28.4077 5.46712C27.8369 5.64068 28.0125 5.42373 27.7051 5.46712C27.0465 5.68407 26.6952 5.90102 26.3001 6.16136C26.1244 6.29153 25.9488 6.42169 25.7732 6.59525C25.6854 6.68203 25.5536 6.76881 25.4658 6.85559C25.378 6.94237 25.1585 7.11593 25.0267 7.28949C25.0706 7.15932 25.1585 7.02915 25.1585 6.94237C25.1585 6.89898 25.0267 6.89898 24.7194 7.20271C24.6755 7.28949 24.6755 7.33288 24.6316 7.46305C24.5877 7.59322 24.5877 7.72339 24.5437 7.98373C24.5437 7.89695 24.4998 7.81017 24.4998 7.68C24.3242 8.24407 24.412 8.46102 24.3242 9.06847C24.2803 9.32881 24.2803 9.63254 24.2803 9.89288V10.1098V10.1966V10.24C24.2803 10.3702 24.2803 10.4569 24.2364 10.5871C24.1925 11.0644 24.1486 11.4983 24.1047 11.9322C23.7095 12.7132 23.929 11.7586 23.8412 11.8888C24.1486 11.3681 23.9729 11.4549 23.929 11.3247C23.8851 11.6285 23.7534 12.019 23.5339 12.1058C23.3582 12.4963 23.2265 12.6264 23.0509 12.9736C23.1387 12.8 23.3143 12.7132 23.2265 12.8868C23.0509 13.1037 22.3044 13.7546 22.2166 13.581C21.3384 14.2319 20.2407 14.7959 19.0991 15.2298L18.66 15.4034C18.5283 15.4468 18.3966 15.4902 18.2649 15.5336C18.0014 15.6203 17.6941 15.6637 17.3867 15.7071C16.772 15.7939 16.1134 15.8807 15.4986 15.9675C15.0596 16.141 15.8499 15.9675 15.5865 16.0542C14.9717 16.2712 15.0596 16.0542 14.5766 16.2278L14.7522 16.0976C14.0058 16.1844 13.2154 16.5315 12.5129 16.8353C12.6007 16.7051 11.8982 16.922 12.469 16.6617C12.1177 16.7919 11.5469 16.4014 11.3274 16.5749L11.8543 16.922C11.8543 16.9654 11.3713 17.0956 11.4152 17.0956C11.1078 17.0956 10.6687 17.0956 10.4931 17.139C10.3614 17.0522 10.8883 16.922 11.1517 16.8353C11.1517 16.6183 10.1418 16.9654 10.537 16.7051C9.92229 16.922 10.6687 16.7919 10.3175 16.9654L9.79057 17.0522L10.2297 17.0088C9.79057 17.1824 9.70275 17.3993 9.08804 17.4427L8.64895 17.7898C8.56114 17.6597 8.20987 17.8766 7.90251 17.8766C7.94642 17.8332 8.03424 17.7898 8.07815 17.7464C7.68297 17.8332 7.50734 17.8332 7.24389 17.7898C7.46343 17.6163 7.63906 17.7464 7.72688 17.6163L7.24389 17.6597C7.24389 17.7464 6.98044 17.8766 7.33171 17.8766C6.93653 18.0936 6.71699 18.2671 5.61928 18.3973C5.09239 18.3105 6.14618 18.1803 5.92664 18.0502C4.78503 18.1369 4.56549 18.6142 3.90686 18.6576C3.46778 18.6576 3.29215 18.701 3.07261 18.7444C2.98479 18.7444 2.89697 18.7878 2.76525 18.7878C2.67743 18.7878 2.58961 18.7878 2.5018 18.8312C2.37007 18.8312 2.28226 18.8746 2.10662 18.918C2.28226 18.8312 2.06272 18.8312 1.75536 18.9614C1.448 19.0915 1.22846 19.3519 1.09673 19.3953C1.18455 19.2651 1.22846 19.0915 1.36018 18.9614C1.05283 19.2651 0.877193 19.5254 0.877193 19.3953C0.965009 19.3953 0.745468 19.7424 0.613743 20.1763C0.482018 20.6102 0.43811 21.0875 0.43811 21.478L0.569835 21.3478C0.569835 21.6515 0.657651 21.9553 0.70156 22.2156C0.745468 22.5193 0.833284 22.7797 0.833284 23.04C1.00892 23.7776 1.05283 23.5607 1.27237 24.1247C1.18455 24.4285 1.05283 24.4285 0.921101 24.3417C0.965009 24.2115 0.921101 23.8644 0.877193 23.5607C0.745468 23.1268 0.569835 22.7363 0.43811 22.3024C0.350293 22.0854 0.306385 21.8685 0.262477 21.6081C0.262477 21.3044 0.262477 21.0441 0.350293 20.7837C0.262477 20.5234 0.218569 20.6969 0.218569 21.0441C0.218569 21.2176 0.218569 21.3912 0.218569 21.6081C0.218569 21.8251 0.262477 21.9986 0.262477 22.1288C0.262477 22.1288 0.218569 22.0854 0.218569 22.042C0.218569 22.0854 0.218569 22.1288 0.218569 22.1722C0.218569 22.0854 0.17466 21.9986 0.130752 21.8685C0.0868439 21.7383 0.0868439 21.5647 0.0868439 21.478C0.0429357 21.2176 0.0429357 21.0441 -0.000972587 20.9573C-0.0448808 21.3044 0.0429357 21.478 0.0868439 21.6515C0.130752 21.8251 0.17466 21.9986 0.17466 22.3892C0.350293 22.9098 0.17466 23.3437 0.218569 23.6475C0.394202 23.8644 0.657651 23.8644 0.70156 24.6888L0.482018 24.3417C0.613743 25.2529 0.789376 24.7322 0.877193 25.6C0.877193 25.2963 1.05283 25.8603 1.00892 25.2963C1.14064 25.5566 1.18455 26.2075 1.14064 26.6847C1.18455 26.8149 1.18455 26.7281 1.27237 26.7281C1.36018 26.2075 1.14064 25.9037 1.27237 25.4698L1.05283 25.1227C1.05283 24.6454 1.18455 24.5586 1.31628 24.8624C1.31628 24.7322 1.27237 24.602 1.27237 24.5153C1.53582 24.3851 1.22846 25.1227 1.49191 25.2529L1.448 24.9058C1.62363 24.7322 1.66754 25.6868 1.66754 26.1641C1.62363 26.6847 1.57972 27.1186 1.448 27.162C1.448 26.9451 1.40409 26.7281 1.40409 26.5112C1.31628 26.8583 1.448 27.379 1.448 27.7695C1.36018 27.7695 1.36018 27.7695 1.31628 27.8129L1.36018 27.7695C1.36018 27.8563 1.31628 27.9431 1.31628 27.9864C1.27237 28.3336 1.36018 28.8542 1.36018 29.2014L1.448 29.158L1.36018 29.1146C1.36018 28.8108 1.40409 28.3336 1.49191 28.5939C1.57972 29.2881 1.448 29.5051 1.40409 29.722C1.27237 29.6786 1.22846 29.4617 1.18455 29.2014C1.18455 28.9844 1.18455 28.7675 1.18455 28.5505C1.09673 28.6807 1.09673 28.8542 1.14064 29.1146C1.18455 29.5051 1.31628 29.8522 1.49191 30.2427C1.31628 30.1559 1.22846 29.8956 1.14064 29.6786C1.05283 29.4617 1.05283 29.158 0.965009 29.1146C0.965009 29.158 0.965009 29.2014 0.965009 29.2447C0.965009 29.2881 0.965009 29.3315 0.965009 29.3749C0.965009 29.4617 1.00892 29.5485 1.00892 29.6353C1.05283 29.7654 1.09673 29.8956 1.18455 29.9824C1.31628 30.1993 1.448 30.3729 1.57972 30.6766C1.53582 30.6766 1.40409 30.503 1.27237 30.3729C1.14064 30.2427 1.05283 30.0692 1.00892 30.1125C1.05283 30.2861 1.14064 30.4163 1.18455 30.5898C1.00892 30.3295 0.965009 30.1993 0.921101 30.1559C0.877193 30.1125 0.877193 30.1559 0.833284 30.1993C0.877193 30.2861 0.877193 30.4597 0.613743 29.939C0.745468 30.4597 1.05283 30.5464 1.27237 31.1105C1.22846 30.9369 1.09673 30.4163 1.49191 30.8936C1.62363 31.0671 1.75536 31.2407 1.84317 31.4142C1.93099 31.6746 1.27237 31.0237 1.448 31.4142C1.62363 31.5878 1.75536 31.718 1.93099 31.8915C1.9749 31.8481 1.75536 31.5878 1.9749 31.6746C2.19444 31.9783 2.54571 31.9783 2.89697 32.1953C3.11651 32.4122 3.33606 32.6292 3.37996 32.7593C4.1264 33.1932 4.91675 33.8441 5.61928 34.1912C5.13629 33.9742 5.53147 34.3647 5.7071 34.6251C5.22411 34.278 5.09239 34.4081 5.04848 34.5383C5.35583 34.7553 5.66319 34.7553 5.53147 34.5817C5.97055 35.0156 5.92664 34.7119 6.32182 35.1458C6.58527 35.4061 6.05837 35.1892 6.14618 35.3193C6.67308 35.7098 6.40963 35.2325 6.98044 35.7098C6.93653 35.7098 6.89262 35.6664 6.89262 35.7532C7.19998 36.0136 7.59516 36.1437 7.68297 36.1437C7.90251 36.5776 8.64895 36.7512 8.47332 36.8814C9.26367 37.3153 8.42941 36.7078 8.60505 36.7512C8.78068 36.7946 9.00022 36.9681 9.21976 37.0983C9.4393 37.2719 9.65884 37.402 9.74666 37.4888C9.52712 37.402 9.30758 37.3153 9.13194 37.1417C9.13194 37.2285 9.17585 37.3153 9.21976 37.402C9.74666 37.7925 9.9662 37.7925 10.1418 37.7925C10.3614 37.7925 10.537 37.7925 11.02 38.0963C10.4492 37.9227 10.8005 38.1397 10.4931 38.0963C10.6687 38.1397 11.4591 38.5302 11.02 38.2264C11.4152 38.4 11.6786 38.5302 11.9421 38.7037C12.3372 38.7905 12.7324 38.8773 12.952 38.8773C13.5228 39.0942 13.9179 39.3112 14.1814 39.4847C15.4547 39.7017 16.5085 40.1356 17.8697 40.179L17.7819 40.1356C18.7918 40.3092 17.3867 39.8753 18.3966 40.0054C18.221 40.179 19.0113 40.2224 19.3187 40.3525C20.592 40.6129 21.558 40.3959 22.6996 40.6129C22.6996 40.6563 22.6118 40.6997 22.3922 40.6997C23.2704 40.8298 23.9729 40.8298 24.7633 40.9166H24.7194C25.9488 41.1769 27.1343 41.1336 28.4077 41.3505C28.3199 41.3505 28.2759 41.4373 28.1881 41.4373C28.4955 41.5241 28.9346 41.6108 29.2858 41.6976C29.4615 41.741 29.7249 41.8278 29.9445 41.8712C30.164 42.1315 30.2518 42.1749 30.3396 42.2617C30.4714 42.3485 30.6031 42.4353 30.8665 42.8258C30.8665 42.8692 30.7787 42.7824 30.7348 42.739C30.9983 43.0861 31.2178 43.3464 31.5252 43.7369C32.2716 44.518 32.6229 44.6047 33.3254 45.6895C33.1498 45.9064 32.7985 45.082 32.6229 45.1688C32.7985 45.3424 32.9741 45.5159 33.1498 45.8197C32.9302 45.6895 33.0619 45.8197 32.8863 45.7329C32.9302 45.8631 33.1498 46.0366 33.3693 46.2102C33.4571 46.2969 33.5888 46.3837 33.6328 46.4271C33.6767 46.4705 33.7206 46.4705 33.7206 46.4705C33.7645 46.4271 33.7645 46.3837 33.5888 46.1668C33.7645 46.2969 33.8962 46.4705 34.0718 46.7308C34.2036 46.9912 34.3792 47.3383 34.5109 47.5986C34.4231 47.4251 34.2475 46.861 34.4231 47.0346C34.7305 47.7722 35.0378 47.9458 35.3013 48.4664C35.433 49.2041 34.9061 47.9892 34.7744 48.2061C34.7744 48.3363 34.7305 48.6834 34.5548 48.423C34.7305 49.0305 34.9939 49.4644 35.2134 50.0285H35.1695C35.2574 50.419 35.433 50.8095 35.5208 51.2434C35.6525 51.6339 35.6964 52.0678 35.6964 52.4149V52.0244C35.7404 52.1546 35.7843 52.5885 35.916 52.8054C35.8282 52.8054 35.8282 53.3695 35.7403 53.1525C36.0477 53.4997 36.1794 55.1051 36.5307 55.4956C36.4868 55.7559 36.3551 55.5824 36.2672 55.4956C36.1794 54.9315 36.2233 54.758 36.0477 54.4542C36.1355 54.9315 36.0916 55.2786 36.0477 55.1919C36.2672 55.6258 36.5746 56.7105 36.7941 56.8841C36.7941 57.2312 36.8381 57.5783 36.6624 57.4915C37.1454 58.88 36.882 56.7105 37.321 58.2725C37.4089 59.0102 36.9259 57.6217 37.1893 58.6197L37.1015 58.4461C36.9698 59.2705 37.4967 58.88 37.7601 59.6176C37.6284 59.7912 37.4528 59.1403 37.4967 59.7044C37.804 60.3986 38.1992 60.6156 38.4188 61.3098L38.287 61.2231C38.4627 61.657 38.8139 62.5247 38.9896 62.9586C38.9457 63.002 38.9457 62.9153 38.9017 62.8285C39.1652 63.6529 39.1213 63.1322 39.2969 63.8264L39.4726 64C39.3847 63.6529 39.2091 62.9586 38.9017 62.5681C39.1652 62.9586 38.8578 61.8305 39.1213 61.9607L39.0335 61.9173C38.8578 60.7024 38.3309 59.2705 37.9797 57.7953C37.4967 56.9708 37.6723 56.2766 37.365 55.2786C37.1015 55.1485 37.2771 55.1051 37.1015 54.2373C37.1893 54.6712 37.2771 54.2807 37.2771 53.9769C37.1893 53.8034 37.1454 53.6298 37.1015 53.4129C37.1454 53.2393 37.1893 52.1112 37.0137 51.7207C37.0137 51.1566 37.1015 51.8508 37.1454 51.9376C37.2332 51.7207 37.0137 51.5037 37.0576 51.3302C37.0576 51.3302 37.1015 51.3302 37.1015 51.3736C36.9698 50.5492 36.9259 50.0285 36.7502 49.1607C36.5307 49.1607 36.4429 48.3363 36.2233 47.9892C36.3551 48.0759 36.1355 47.4685 36.0916 47.2515C35.9599 47.1214 35.8721 46.9912 35.7403 46.861C35.433 46.4705 35.5647 46.2102 35.1695 45.6895L35.2134 45.863C35.1256 45.7763 35.0378 45.6461 34.95 45.4725C34.8622 45.299 34.7744 45.1688 34.6426 44.9953C34.467 44.6481 34.2914 44.301 34.2036 44.0841C33.5449 43.3464 32.9741 42.6522 32.4033 42.0014C31.8325 41.3505 31.3056 40.743 30.5153 40.2224C30.2957 40.0922 30.1201 39.962 29.8566 39.8753L29.681 39.7885L29.5493 39.7451L29.2419 39.6583C28.8468 39.5281 28.4077 39.4414 28.0125 39.3546C27.1343 39.181 26.2123 39.0508 25.1585 38.9641C24.895 39.0075 25.3341 39.0942 25.1146 39.181C24.6755 39.181 24.5877 39.1376 24.1925 39.0942C24.5437 39.181 24.4998 39.0942 24.412 39.181H25.0267C25.0706 39.181 24.9828 39.181 25.0267 39.2244C25.2463 39.2244 25.4658 39.2244 25.7293 39.2244C25.3341 39.2244 25.2463 39.398 24.7194 39.2678C24.7633 39.2678 24.8072 39.2678 24.9828 39.2678C24.5877 39.2244 24.5437 39.3112 24.2364 39.2244C23.8412 39.1376 23.929 39.2244 23.8851 39.1376L22.6996 38.9641C22.0849 39.1376 21.3824 38.8773 21.2067 38.8339C21.3384 38.7037 21.9971 38.8339 22.3044 38.7037L21.9532 38.6169L21.9093 38.7471L21.2945 38.6603H21.3384C21.2506 38.7037 21.2067 38.7471 21.0311 38.7037C20.9872 38.7037 20.9433 38.6603 21.0311 38.6603L20.592 38.7037C20.8555 38.6169 20.2407 38.6169 20.2846 38.4868C18.9235 38.2698 18.4844 38.4868 17.3428 38.0963C17.5184 38.1831 16.9037 38.2698 16.5524 38.1397C16.3329 38.0529 16.289 38.0095 16.4646 38.0095L15.9816 37.9661C15.4547 37.619 14.84 37.619 14.0497 37.2719L14.0936 37.2285C13.7862 37.1851 13.391 37.1417 12.952 36.9247L13.0837 36.838C12.5568 36.5342 12.5568 36.9247 11.986 36.5776C11.9421 36.7078 12.2933 36.9247 12.2933 37.0549C12.2055 36.8814 11.5469 36.5776 11.6786 36.7078C11.0639 36.4908 11.2395 36.4908 11.2395 36.4475L10.8444 36.3607C10.4492 36.1437 10.8005 36.1437 10.9761 36.1437C10.7566 36.1003 10.537 36.0136 10.3614 35.8834C10.2736 35.84 10.1857 35.7532 10.0979 35.7098C10.0101 35.6231 9.87839 35.5363 9.79057 35.4929L10.0101 35.5363L9.4393 35.1458C9.00022 35.0156 8.51723 34.6685 8.07815 34.3214L8.51723 34.4081C8.25378 34.1044 8.29769 34.3647 8.20987 34.3214C7.63906 34.061 7.59516 33.8441 7.41952 33.5837C6.45354 33.1498 5.97055 32.1953 5.1802 31.8915ZM50.2301 1.25831L50.1423 1.21492C50.3618 1.21492 50.4496 1.17153 50.2301 1.25831ZM44.7854 1.90915C45.4002 1.6922 45.2245 1.82237 45.3123 1.86576C44.6537 1.95254 44.3464 2.08271 43.7317 2.16949C43.8195 2.16949 43.8634 2.21288 43.9073 2.25627C43.6877 2.29966 43.4682 2.34305 43.3365 2.25627C43.5999 1.99593 45.0928 1.95254 44.7854 1.90915ZM57.2554 0.737627C57.2115 0.737627 57.2115 0.737627 57.1676 0.737627H57.2554ZM53.8745 0.520678C53.8306 0.477288 53.7427 0.477288 53.6549 0.433898C53.6988 0.477288 53.7866 0.520678 53.8745 0.520678ZM47.2004 0.477288C47.0248 0.433898 46.6735 0.520678 46.454 0.564068C46.5418 0.564068 46.7613 0.564068 47.2004 0.477288ZM12.0738 17.0956C12.2494 17.0088 12.6007 16.8353 12.2494 16.8786C12.1177 16.9654 11.7664 16.9654 11.6786 17.0956H11.6347C11.8543 17.0956 12.0299 17.0956 12.0738 17.0956ZM1.71145 28.16C1.62363 28.1166 1.57972 27.9864 1.49191 28.0732V28.0298C1.448 28.0732 1.448 28.1166 1.448 28.0732C1.40409 28.2468 1.40409 28.4203 1.448 28.5071C1.66754 28.5505 1.71145 28.8976 1.71145 28.16Z" fill="#FED044"/>
<path d="M0.219727 21.8252C0.219727 21.912 0.219727 21.9988 0.263434 22.0421C0.219727 21.9554 0.219727 21.912 0.219727 21.8252Z" fill="#FED044"/>
<path d="M1.44897 28.4637C1.44897 28.4637 1.49297 28.2902 1.53697 28.0732C1.49297 28.1166 1.44897 28.2468 1.44897 28.4637Z" fill="#FED044"/>
<path d="M65.028 8.20068L64.8523 8.1139L65.1158 8.37424C65.6867 8.67796 65.7746 8.59119 65.9942 8.59119C65.4672 8.37424 65.2037 8.1139 64.5449 7.72339L65.028 8.20068Z" fill="#FED044"/>
<path d="M65.1603 7.37631C65.1163 7.33292 65.0283 7.15936 64.9403 7.11597H64.8083L65.1603 7.37631Z" fill="#FED044"/>
<path d="M60.198 1.73572C60.3737 1.90928 60.5493 2.08284 60.6811 2.2564C60.9007 2.34318 60.3737 1.69233 60.198 1.73572Z" fill="#FED044"/>
<path d="M61.0327 4.64277L61.2527 4.90311C61.1647 4.59938 60.9447 4.29565 60.8567 4.29565C61.0767 4.59938 60.8567 4.38243 61.0327 4.64277Z" fill="#FED044"/>
<path d="M58.6176 0.780986C58.3541 0.824376 57.9589 0.477257 57.7832 0.564037C57.9589 0.564037 58.5298 0.867765 58.6176 0.780986Z" fill="#FED044"/>
<path d="M58.3977 2.16949C58.4855 2.38644 58.793 2.38644 59.1004 2.64678C58.8808 2.47322 58.5734 2.1261 58.3977 2.16949Z" fill="#FED044"/>
<path d="M55.0607 0.47738C55.1046 0.3906 55.3681 0.3906 55.6755 0.47738C55.5877 0.52077 55.4999 0.52077 55.3681 0.56416C55.8512 0.52077 55.8951 0.56416 56.2904 0.56416C55.8951 0.43399 55.3242 0.347211 55.3681 0.217041C55.0607 0.260431 54.7094 0.347211 55.0607 0.47738Z" fill="#FED044"/>
<path d="M57.6074 1.86564C57.8709 1.99581 58.0027 2.12598 58.3101 2.29954C58.3101 2.21276 58.2222 2.0392 57.827 1.90903C57.8709 1.90903 57.9588 1.86564 58.0027 1.86564C57.6953 1.64869 58.0905 2.0392 57.6074 1.86564Z" fill="#FED044"/>
<path d="M53.2605 0.130237L53.4362 0.173627C53.9192 0.0868469 54.4901 0.173627 54.7536 0.043457C54.2266 0.043457 53.524 0.0868469 53.2605 0.130237Z" fill="#FED044"/>
<path d="M56.2025 1.34497L56.1145 1.51853C56.5545 1.60531 56.0705 1.47514 56.2465 1.43175C56.3785 1.47514 56.5545 1.51853 56.6425 1.51853C56.1585 1.43175 56.6425 1.34497 56.2025 1.34497Z" fill="#FED044"/>
<path d="M54.7096 1.38843L54.1387 1.43182L54.5778 1.64877C55.2366 1.60538 54.6217 1.5186 54.7096 1.38843Z" fill="#FED044"/>
<path d="M54.0072 1.2583L53.085 1.43186C53.612 1.34508 53.6559 1.34508 54.0072 1.2583Z" fill="#FED044"/>
<path d="M43.3813 1.12817C43.2933 1.21495 43.8213 1.17156 43.6013 1.17156C43.6893 1.08478 42.9853 1.17156 43.3813 1.12817Z" fill="#FED044"/>
<path d="M45.7525 1.95264C45.489 1.95264 44.7425 2.21298 44.4351 2.34315C44.7864 2.21298 45.7965 2.03942 45.7525 1.95264Z" fill="#FED044"/>
<path d="M44.2593 2.38641C44.3033 2.38641 44.3473 2.34302 44.3913 2.34302C44.3473 2.38641 44.3033 2.38641 44.2593 2.38641Z" fill="#FED044"/>
<path d="M30.0333 6.85571C29.9893 6.85571 29.9453 6.8991 29.9453 6.8991C29.9453 6.8991 29.9893 6.8991 30.0333 6.85571Z" fill="#FED044"/>
<path d="M30.3406 6.72536C30.5602 6.68197 31.0432 6.50841 31.0871 6.42163C30.7358 6.5518 30.4284 6.68197 29.9893 6.85553C30.1649 6.81214 30.3845 6.81214 30.3406 6.72536Z" fill="#FED044"/>
<path d="M27.2668 7.7233C27.3988 7.63652 27.5748 7.54974 27.5308 7.50635C27.4428 7.50635 27.1348 7.7233 27.2668 7.7233Z" fill="#FED044"/>
<path d="M9.26532 17.3125C8.95733 17.3559 8.78133 17.4427 8.86933 17.5294C9.22133 17.3993 9.00133 17.3993 9.26532 17.3125Z" fill="#FED044"/>
<path d="M8.47469 17.6163L8.43069 17.5729L8.21069 17.5295L8.47469 17.6163Z" fill="#FED044"/>
<path d="M6.32274 17.8332C6.32274 17.8332 6.41074 17.7898 6.45474 17.7898C6.32274 17.7898 6.19074 17.8332 6.32274 17.8332Z" fill="#FED044"/>
<path d="M6.63034 17.7463C6.58634 17.7029 6.54234 17.7463 6.45435 17.7463C6.54234 17.7463 6.63034 17.7463 6.63034 17.7463Z" fill="#FED044"/>
<path d="M5.62012 17.8765L6.05928 17.9633C6.49844 17.8331 5.53229 17.9633 5.97145 17.7463L5.62012 17.8765Z" fill="#FED044"/>
<path d="M4.17191 18.0935C3.77667 18.0935 3.20576 18.3972 2.98618 18.2237C2.5031 18.3105 2.41527 18.3538 2.54702 18.4406C2.59094 18.484 2.63485 18.5274 2.5031 18.5708C2.41527 18.6142 2.10786 18.6142 1.6687 18.9179C2.10786 18.701 2.45919 18.701 2.63485 18.6576C2.7666 18.6142 2.81052 18.5708 2.89835 18.5274C3.03009 18.4406 3.11793 18.3538 3.68883 18.3538C3.11793 18.2237 3.99625 18.1803 4.17191 18.0935Z" fill="#FED044"/>
<path d="M4.3907 18.3974C4.43462 18.3106 3.95154 18.354 3.77588 18.4408C3.95154 18.4408 4.21504 18.5276 4.3907 18.3974Z" fill="#FED044"/>
<path d="M1.53694 18.5708C1.31736 18.6576 1.1417 18.7878 0.966035 18.9179C0.922119 18.9613 0.922119 19.0047 0.922119 19.0915C1.05387 18.8745 1.27345 18.701 1.53694 18.5708Z" fill="#FED044"/>
<path d="M0.263792 20.1763C0.263792 20.0027 0.307791 19.8725 0.351791 19.699C0.307791 19.8725 0.087795 20.5234 0.263792 20.1763Z" fill="#FED044"/>
<path d="M-0.000244141 22.5194C-0.000244141 22.8665 0.307751 23.1269 0.131754 22.4326V22.6062C0.131754 22.5628 0.0877544 22.9533 -0.000244141 22.5194Z" fill="#FED044"/>
<path d="M0.878282 26.6848C0.878282 26.4678 0.834283 26.2075 0.790283 26.2509C0.834283 26.4678 0.834283 26.6414 0.834283 26.8149L0.878282 26.6848Z" fill="#FED044"/>
<path d="M1.49294 26.5546C1.62494 26.3377 1.44894 25.9905 1.49294 25.5566C1.49294 26.0773 1.44894 25.9905 1.49294 26.5546Z" fill="#FED044"/>
<path d="M0.658334 27.3356C0.614627 27.1621 0.658334 26.9451 0.658334 26.8149C0.57092 26.8583 0.57092 27.2488 0.658334 27.3356Z" fill="#FED044"/>
<path d="M0.659884 28.3336C0.615884 28.5506 0.571885 28.2902 0.527886 28.4638C0.483887 28.7241 0.483887 28.9411 0.483887 29.158V29.2448C0.483887 29.2882 0.483887 29.3316 0.483887 29.375C0.483887 29.4618 0.527886 29.5485 0.527886 29.5919C0.571885 29.7221 0.615884 29.8089 0.659884 29.8957C0.659884 29.7221 0.791881 29.4618 0.923879 29.6787C0.87988 29.4618 0.835881 29.158 0.835881 29.0712C0.791882 28.9411 0.747882 28.8109 0.747882 28.6807C0.703883 28.4638 0.659884 28.2468 0.791882 28.0733C0.703883 27.8563 0.615884 27.6394 0.571885 27.4658C0.439887 28.0299 0.659884 27.8997 0.659884 28.3336Z" fill="#FED044"/>
<path d="M1.2296 26.9451L1.1416 27.2922C1.2296 27.2054 1.2296 27.5091 1.2736 27.6827C1.4496 27.5959 1.2296 27.162 1.2296 26.9451Z" fill="#FED044"/>
<path d="M2.63428 32.1953C2.85386 32.3689 3.07344 32.5424 3.2491 32.716L3.07344 32.5424C2.94169 32.4123 2.76603 32.3255 2.63428 32.1953Z" fill="#FED044"/>
<path d="M2.9856 32.5857C3.11759 32.7593 3.29359 32.846 3.46959 32.9762C3.33759 32.8894 3.16159 32.7593 2.9856 32.5857Z" fill="#FED044"/>
<path d="M3.55718 33.2367L3.51318 33.1499C3.38118 33.0631 3.24919 32.9764 3.11719 32.8462L3.55718 33.2367Z" fill="#FED044"/>
<path d="M4.87364 34.3213L4.78581 34.1478C4.61015 34.061 4.34665 33.7139 4.30273 33.8441C4.4784 33.9308 4.82973 34.1912 4.87364 34.3213Z" fill="#FED044"/>
<path d="M10.5379 35.6665C10.406 35.6665 10.45 35.7099 10.494 35.7967L10.7579 35.7533C10.6699 35.7533 10.5379 35.7099 10.5379 35.6665Z" fill="#FED044"/>
<path d="M11.1966 36.2739L11.7675 36.3607C11.1966 36.0569 11.0649 36.1437 10.5818 35.9268C10.7575 36.1003 11.1088 36.1437 11.3284 36.2739H11.1966Z" fill="#FED044"/>
<path d="M22.2175 38.8339C22.1736 38.9207 22.3054 38.9207 21.8662 38.9641C22.481 38.9207 22.9641 39.0075 23.6668 39.0508C23.535 38.9641 24.062 38.9207 23.7985 38.9207H23.008L23.1398 38.8773C22.6128 38.7471 22.7884 38.9207 22.2175 38.8339Z" fill="#FED044"/>
<path d="M38.288 60.876C38.1999 60.8326 38.2 60.9194 38.2 61.0496C38.42 61.4401 38.244 60.7893 38.288 60.876Z" fill="#FED044"/>
</svg>
