<svg width="11" height="21" viewBox="0 0 11 21" fill="none" xmlns="http://www.w3.org/2000/svg">
<mask id="mask0" mask-type="alpha" maskUnits="userSpaceOnUse" x="0" y="0" width="11" height="21">
<path fill-rule="evenodd" clip-rule="evenodd" d="M10.6972 20.2121V0.818115H0.0305176V20.2121H10.6972Z" fill="white"/>
</mask>
<g mask="url(#mask0)">
<path fill-rule="evenodd" clip-rule="evenodd" d="M10.6972 0.853333V4.14972C10.0339 4.20765 9.38342 4.126 8.84207 4.16569C8.33203 4.20263 7.91119 4.48999 7.68251 4.85033C7.41302 5.27589 7.46521 5.9441 7.4671 6.69762C8.50568 6.73411 9.61543 6.70263 10.6811 6.71313C10.6853 7.7581 10.6777 8.92896 10.6811 10.0255H7.48418C7.44528 13.3853 7.47849 16.8144 7.4671 20.2006C6.06414 20.2344 4.45527 20.1806 2.94556 20.2006V10.041C2.00709 10.004 0.996505 10.036 0.0305176 10.0255V6.71313H2.92895C2.94556 5.84148 2.89242 5.04828 2.96217 4.34038C3.09596 2.98616 3.88356 1.99227 4.88323 1.41071C5.42885 1.09325 6.08312 0.871577 6.83798 0.837368C8.05875 0.781722 9.42138 0.865648 10.6972 0.853333Z" fill="black"/>
</g>
</svg>
