<svg width="70" height="43" viewBox="0 0 70 43" fill="none" xmlns="http://www.w3.org/2000/svg">
<g clip-path="url(#clip0)">
<path fill-rule="evenodd" clip-rule="evenodd" d="M0.148071 37.0657H4.38242V42.3946H3.31643V37.9538H1.21406V42.3946H0.148071V37.0657ZM9.00171 42.3946V40.1742H8.79443C8.4391 40.1742 8.20222 40.2334 8.08377 40.3223C7.93572 40.4111 7.69883 40.7367 7.37311 41.24L6.60323 42.3946H5.32997L5.98141 41.3584C6.2479 40.944 6.45518 40.6479 6.60323 40.4999C6.75129 40.3223 6.95856 40.2038 7.16584 40.0558C6.66245 39.967 6.30712 39.7894 6.09985 39.5229C5.89257 39.2565 5.77413 38.9308 5.77413 38.5756C5.77413 38.2499 5.86296 37.9539 6.01102 37.717C6.15907 37.4506 6.39596 37.3025 6.66245 37.2137C6.92895 37.1249 7.3435 37.0657 7.8765 37.0657H10.0677V42.3946H9.00171ZM9.00171 37.9835H8.17261C7.75805 37.9835 7.46195 37.9835 7.31389 38.0131C7.16584 38.0427 7.07701 38.1019 6.95856 38.2203C6.86973 38.3387 6.81051 38.4867 6.81051 38.6644C6.81051 38.842 6.84012 38.99 6.95856 39.1085C7.04739 39.2269 7.16584 39.2861 7.31389 39.3157C7.46195 39.3453 7.75805 39.3453 8.20222 39.3453H9.00171V37.9835ZM12.6735 42.3946V37.9835H11.1041V37.0657H15.3384V37.9835H13.7691V42.3946H12.6735ZM16.3452 37.0657H17.4112V39.1973H18.8325C19.2174 39.1973 19.5432 39.2565 19.8097 39.3453C20.0762 39.4637 20.313 39.6413 20.4907 39.9078C20.6684 40.1742 20.7572 40.4703 20.7572 40.8256C20.7572 41.1808 20.6684 41.5065 20.4907 41.7433C20.2834 42.0098 20.0762 42.1874 19.8393 42.2762C19.6024 42.365 19.2767 42.3946 18.8325 42.3946H16.3156V37.0657H16.3452ZM17.4408 41.5065H18.4772C18.8029 41.5065 19.0398 41.4769 19.1878 41.4473C19.3359 41.4177 19.4543 41.3288 19.5432 41.2104C19.6616 41.092 19.6912 40.944 19.6912 40.7959C19.6912 40.5591 19.6024 40.3815 19.4247 40.2631C19.2471 40.1446 18.9509 40.0854 18.5068 40.0854H17.4112V41.5065H17.4408ZM21.4086 37.0657H22.5042V42.3946H21.4086V37.0657ZM23.9256 37.0657H24.9323V40.6183L27.0939 37.0657H28.1599V42.3946H27.1531V38.9308L24.9916 42.3946H23.9256V37.0657ZM26.709 35.7335H27.2124C27.1828 36.0591 27.0643 36.3256 26.857 36.5032C26.6498 36.6808 26.3833 36.7696 26.0575 36.7696C25.7318 36.7696 25.4653 36.6808 25.2581 36.5032C25.0508 36.296 24.9323 36.0591 24.9027 35.7335H25.4061C25.4357 35.9111 25.4949 36.0295 25.5838 36.1183C25.6726 36.2071 25.8503 36.2664 26.0279 36.2664C26.2352 36.2664 26.3833 36.2071 26.4721 36.1183C26.6202 36.0295 26.6794 35.9111 26.709 35.7335ZM33.7268 37.0657H37.9611V42.3946H36.8655V37.9538H34.7927V42.3946H33.7268V37.0657ZM44.1794 42.3946H43.0246L42.5508 41.1808H40.4188L39.9746 42.3946H38.8198L40.8926 37.0657H42.0474L44.1794 42.3946ZM42.1954 40.2927L41.4552 38.3091L40.7445 40.2927H42.1954ZM45.0677 42.3946V37.0657H46.7851C47.4366 37.0657 47.8511 37.0953 48.0584 37.1545C48.3545 37.2433 48.621 37.421 48.8283 37.6874C49.0355 37.9539 49.1244 38.3091 49.1244 38.7236C49.1244 39.0492 49.0652 39.3157 48.9467 39.5525C48.8283 39.7598 48.6802 39.9374 48.5026 40.0854C48.3249 40.2038 48.1472 40.2927 47.9399 40.3519C47.6735 40.4111 47.3181 40.4407 46.8147 40.4407H46.1041V42.4538H45.0677V42.3946ZM46.1337 37.9835V39.4933H46.7259C47.1405 39.4933 47.4366 39.4637 47.5846 39.4045C47.7327 39.3453 47.8511 39.2565 47.9103 39.1381C47.9992 39.0196 48.0288 38.8716 48.0288 38.7236C48.0288 38.5163 47.9696 38.3683 47.8511 38.2499C47.7327 38.1315 47.5846 38.0427 47.407 38.0131C47.2885 37.9835 47.022 37.9835 46.6371 37.9835H46.1337ZM51.434 42.3946V37.9835H49.835V37.0657H54.0694V37.9835H52.5V42.3946H51.434ZM55.1058 42.3946V37.0657H56.1718V39.1677H58.2741V37.0657H59.3697V42.3946H58.2741V40.0558H56.1718V42.3946H55.1058ZM60.7911 42.3946V37.0657H64.7589V37.9835H61.8867V39.1677H64.5516V40.0558H61.8867V41.5065H64.8477V42.3946H60.7911ZM66.0618 42.3946V37.0657H67.7792C68.4306 37.0657 68.8748 37.0953 69.0525 37.1545C69.3486 37.2433 69.6151 37.421 69.8224 37.6874C70.0296 37.9539 70.1185 38.3091 70.1185 38.7236C70.1185 39.0492 70.0592 39.3157 69.9408 39.5525C69.8224 39.7598 69.6743 39.9374 69.4966 40.0854C69.319 40.2038 69.1413 40.2927 68.934 40.3519C68.6675 40.4111 68.3122 40.4407 67.8088 40.4407H67.0982V42.4538H66.0618V42.3946ZM67.1574 37.9835V39.4933H67.7496C68.1641 39.4933 68.4603 39.4637 68.6083 39.4045C68.7564 39.3453 68.8748 39.2565 68.9636 39.1381C69.0525 39.0196 69.0821 38.8716 69.0821 38.7236C69.0821 38.5163 69.0229 38.3683 68.9044 38.2499C68.786 38.1315 68.6379 38.0427 68.4603 38.0131C68.3418 37.9835 68.0753 37.9835 67.6904 37.9835H67.1574Z" fill="#231F20"/>
<path d="M52.5592 21.7894L56.5863 23.3585C59.5178 21.3749 61.9458 19.2434 63.604 17.023L57.2081 16.5789C56.1125 18.3848 54.5135 20.1611 52.5592 21.7894Z" fill="url(#paint0_linear)"/>
<path d="M63.1008 4.26315L56.3495 6.06907C58.3038 7.90459 59.1625 10.273 58.5999 13.0559C58.4519 13.7368 58.2446 14.4177 57.9485 15.0987L64.6109 15.5427C65.3216 14.3585 65.825 13.1447 66.0618 11.9605C66.6837 8.88156 65.5881 6.2467 63.1008 4.26315Z" fill="url(#paint1_linear)"/>
<path d="M61.5905 3.19735C55.4907 -0.473697 45.8672 -0.503302 38.4645 0.59209C21.4975 3.07893 6.18866 12.2861 4.41201 21.0493C3.90863 23.5953 4.58968 25.8453 6.24788 27.7104C8.64636 27.592 11.8147 27.296 14.2428 27.0591C12.1997 25.2236 11.2817 22.796 11.8443 19.9539C13.1768 13.4703 21.8824 6.86839 32.3943 3.87827C34.8223 3.19735 37.3985 2.63485 39.945 2.45722C41.4552 2.3684 43.1726 2.39801 44.8308 2.51643L26.7978 8.43746L20.0465 20.3091C23.2741 19.6578 33.2234 17.0822 35.4146 18.444C37.3985 19.6874 36.599 21.7302 34.4374 23.6249C28.9298 28.421 13.7986 28.3914 7.75804 29.0427C9.83079 30.5821 12.4958 31.5887 15.2792 32.2104C19.8689 33.217 25.6134 33.365 32.0093 32.4177C40.5668 31.1446 48.6802 28.2137 54.8689 24.4539L51.0491 22.9736C46.1633 26.5262 39.4712 29.3091 32.4535 30.3453C32.1278 30.3749 31.8316 30.4341 31.5059 30.4637C35.9475 29.0131 40.8333 26.5558 43.9425 23.8026C47.4366 20.694 48.769 16.8749 46.0152 14.5657C42.8173 11.9013 33.253 13.5296 29.2851 14.8026L31.2098 11.4572L61.5905 3.19735Z" fill="url(#paint2_linear)"/>
</g>
<defs>
<linearGradient id="paint0_linear" x1="58.6654" y1="16.1445" x2="58.0401" y2="19.6911" gradientUnits="userSpaceOnUse">
<stop stop-color="#FDEC0A"/>
<stop offset="0.8783" stop-color="#FDDA00"/>
<stop offset="1" stop-color="#FDD800"/>
</linearGradient>
<linearGradient id="paint1_linear" x1="58.8476" y1="4.91314" x2="63.943" y2="15.8422" gradientUnits="userSpaceOnUse">
<stop stop-color="#EE8AB6"/>
<stop offset="1" stop-color="#E4087F"/>
</linearGradient>
<linearGradient id="paint2_linear" x1="12.5516" y1="35.1975" x2="57.0895" y2="-2.18133" gradientUnits="userSpaceOnUse">
<stop stop-color="#087DC1"/>
<stop offset="1" stop-color="#209FDA"/>
</linearGradient>
<clipPath id="clip0">
<rect width="70" height="42.4242" fill="white"/>
</clipPath>
</defs>
</svg>
