<svg width="191" height="36" viewBox="0 0 191 36" fill="none" xmlns="http://www.w3.org/2000/svg">
<g clip-path="url(#clip0)">
<path fill-rule="evenodd" clip-rule="evenodd" d="M100.12 23.8071L100.229 22.2851C97.4024 22.6113 93.7063 21.1981 93.815 17.8281C93.815 14.5669 96.424 13.3711 100.229 13.4798V11.9579C95.9892 11.8492 91.5322 13.1537 91.4235 17.9368C91.4235 22.2851 95.1195 24.1332 100.12 23.8071Z" fill="black"/>
<path fill-rule="evenodd" clip-rule="evenodd" d="M65.7684 24.1332C69.1383 24.1332 71.856 21.3068 71.856 17.9368C71.856 14.5669 69.1383 11.7404 65.7684 11.7404C62.5071 11.7404 59.7894 14.5669 59.7894 17.9368C59.6807 21.3068 62.5071 24.1332 65.7684 24.1332ZM65.7684 22.3938C67.8338 22.3938 69.5731 20.3284 69.5731 17.8281C69.5731 15.3278 67.8338 13.3711 65.7684 13.3711C63.7029 13.3711 61.9636 15.4365 61.9636 17.8281C61.9636 20.4371 63.5942 22.3938 65.7684 22.3938Z" fill="black"/>
<path fill-rule="evenodd" clip-rule="evenodd" d="M158.279 24.1332C161.649 24.1332 164.258 21.3068 164.258 17.9368C164.258 14.5669 161.54 11.7404 158.279 11.7404C154.909 11.7404 152.3 14.5669 152.3 17.9368C152.3 21.3068 155.018 24.1332 158.279 24.1332ZM158.279 22.3938C160.344 22.3938 162.084 20.3284 162.084 17.8281C162.084 15.3278 160.344 13.3711 158.279 13.3711C156.213 13.3711 154.474 15.4365 154.474 17.8281C154.474 20.4371 156.213 22.3938 158.279 22.3938Z" fill="black"/>
<path fill-rule="evenodd" clip-rule="evenodd" d="M48.2664 12.0666H50.3318V23.9158H48.2664V12.0666Z" fill="black"/>
<path fill-rule="evenodd" clip-rule="evenodd" d="M87.2925 12.0666H89.358V23.9158H87.2925V12.0666Z" fill="black"/>
<path fill-rule="evenodd" clip-rule="evenodd" d="M134.798 12.0666H136.863V23.9158H134.798V12.0666Z" fill="black"/>
<path fill-rule="evenodd" clip-rule="evenodd" d="M82.292 12.0666H84.2487V23.9158C83.7052 23.9158 83.1617 23.9158 82.5094 23.9158C80.8788 19.8936 77.6175 15.9801 75.5521 14.6756V23.9158H73.5953V12.0666H75.0085C78.1611 14.0233 80.8788 16.9584 82.1833 19.4587V12.0666H82.292Z" fill="black"/>
<path fill-rule="evenodd" clip-rule="evenodd" d="M148.604 12.0666H150.561V23.9158C150.017 23.9158 149.365 23.9158 148.821 23.9158C147.191 19.8936 143.929 15.9801 141.864 14.6756V23.9158H139.907V12.0666H141.32C144.473 14.0233 147.191 16.9584 148.495 19.4587V12.0666H148.604Z" fill="black"/>
<path fill-rule="evenodd" clip-rule="evenodd" d="M54.2453 16.8497C56.7456 18.8065 58.3762 21.1981 59.2459 23.8071H56.963C56.4195 22.0677 54.354 18.8065 51.4189 17.0672L56.3107 11.9579H58.811L54.2453 16.8497Z" fill="black"/>
<path fill-rule="evenodd" clip-rule="evenodd" d="M100.99 23.9157H102.946L106.316 16.1975L110.339 23.9157H112.622L106.316 11.8492L100.99 23.9157Z" fill="black"/>
<path fill-rule="evenodd" clip-rule="evenodd" d="M166.215 12.0666H168.389V22.3939H173.063V23.9158H168.389H166.215V22.3939V12.0666Z" fill="black"/>
<path fill-rule="evenodd" clip-rule="evenodd" d="M180.347 12.0666V13.5885H177.303V23.9158H175.237V13.5885H172.193V12.0666C174.911 12.0666 177.629 12.0666 180.347 12.0666Z" fill="black"/>
<path fill-rule="evenodd" clip-rule="evenodd" d="M179.042 23.9157H181.108L184.369 16.1975L188.391 23.9157H190.783L184.478 11.8492L179.042 23.9157Z" fill="black"/>
<path fill-rule="evenodd" clip-rule="evenodd" d="M117.405 23.9157C118.166 23.9157 118.818 23.9157 119.579 23.9157C120.122 21.3067 120.666 18.6978 121.318 16.1975C122.623 18.3716 123.601 20.6545 124.362 22.9374H125.884C126.754 20.6545 127.623 18.3716 128.928 16.1975C129.471 18.8065 130.123 21.4155 130.667 23.9157C131.428 23.9157 132.08 23.9157 132.841 23.9157C131.754 19.8935 130.993 15.8713 129.471 11.8492C127.949 13.9146 125.993 17.3933 125.123 19.8935C124.362 17.3933 122.297 13.9146 120.775 11.8492C119.361 15.8713 118.6 19.8935 117.405 23.9157Z" fill="black"/>
<path fill-rule="evenodd" clip-rule="evenodd" d="M33.5908 5.21797C36.0911 7.39213 37.9391 9.89242 38.9175 12.8275C38.9175 13.045 38.8088 13.2624 38.5914 13.2624L35.765 13.3711L20.4371 13.4798H5.54412L0.760969 13.3711C0.652261 13.2624 0.543553 13.1537 0.543553 13.045C0.869677 11.7405 1.52193 10.7621 2.06547 9.56629C6.6312 2.39157 15.0017 -0.760967 23.4809 0.543529C27.177 1.30448 30.6557 2.71769 33.5908 5.21797ZM38.7001 22.3938C38.9175 22.5025 39.0262 22.6113 38.9175 22.8287C36.6346 30.2208 29.1338 34.8953 21.6329 35.4388C13.4798 35.9823 5.76154 32.5037 1.73934 25.6551C1.30451 24.7854 0.760969 23.9158 0.543553 22.8287C0.434845 22.6113 0.652261 22.5025 0.760969 22.5025L1.41322 22.3938L13.045 22.2851H35.9824L38.7001 22.3938ZM39.2436 20.2197C39.7871 20.5458 39.3523 21.1981 39.3523 21.6329C39.2436 21.7416 39.2436 21.8503 39.0262 21.8503L36.0911 21.7416L25.9812 21.1981L19.35 20.9806L8.69666 21.4155L2.17417 21.8503C1.52193 21.8503 0.869677 22.0677 0.217429 21.8503C1.32322e-05 21.5242 -0.108695 20.9806 1.32322e-05 20.5458C0.434845 20.2197 0.978385 20.4371 1.41322 20.2197L16.3062 20.6545H23.8071L33.6995 20.3284C35.4388 20.2197 37.5043 20.2197 39.2436 20.2197ZM39.6784 18.2629C39.7871 18.6978 39.7872 19.1326 39.5697 19.5674C39.2436 19.8936 38.9175 19.7848 38.4827 19.7848L31.0905 19.4587L23.9158 19.1326L15.0017 19.2413L8.91407 19.4587L0.869677 20.0023C0.543553 20.0023 0.217429 20.111 -0.108695 19.8936C-0.326111 19.4587 -0.326111 18.9152 -0.326111 18.4804L1.32322e-05 18.1542H1.84805L13.8059 18.5891L21.0894 18.6978L26.6335 18.5891L38.8088 18.0455C39.0262 18.1542 39.461 17.9368 39.6784 18.2629ZM39.5697 16.0888C39.6784 16.5236 39.8959 17.2846 39.3523 17.6107H36.7433L26.6335 17.1759H17.502L11.6318 17.2846L0.652261 17.7194C0.326137 17.6107 1.32322e-05 17.8281 -0.217403 17.502C-0.326111 17.0671 -0.326111 16.6323 -0.217403 16.1975C0.108721 15.7626 0.543553 16.0888 0.869677 15.9801L13.3711 16.6323C16.8498 16.741 20.5458 16.6323 23.8071 16.6323L31.0905 16.3062L38.5914 15.8714C38.9175 15.8714 39.3523 15.7627 39.5697 16.0888ZM39.1349 13.9146C39.3523 14.3494 39.5697 14.893 39.3523 15.3278L39.1349 15.4365H35.004L24.7854 15.2191H17.3933L10.2186 15.4365L1.41322 15.6539L0.108721 15.5452C-0.326111 15.2191 1.32322e-05 14.5669 0.108721 14.2407C0.217429 14.132 0.326137 13.9146 0.434845 13.9146L3.36996 14.0233L12.1753 14.4582L20.0023 14.7843L33.9169 14.0233C35.6562 13.9146 37.2869 13.6972 38.9175 13.6972L39.1349 13.9146Z" fill="#0089CF"/>
</g>
<defs>
<clipPath id="clip0">
<rect width="191" height="35.2214" fill="white"/>
</clipPath>
</defs>
</svg>
