<?xml version="1.0" standalone="no"?>
<!DOCTYPE svg PUBLIC "-//W3C//DTD SVG 20010904//EN"
 "http://www.w3.org/TR/2001/REC-SVG-20010904/DTD/svg10.dtd">
<svg version="1.0" xmlns="http://www.w3.org/2000/svg"
 width="700.000000pt" height="700.000000pt" viewBox="0 0 700.000000 700.000000"
 preserveAspectRatio="xMidYMid meet">
<metadata>
Created by potrace 1.11, written by Peter Selinger 2001-2013
</metadata>
<g transform="translate(0.000000,700.000000) scale(0.100000,-0.100000)"
fill="#000000" stroke="none">
<path d="M0 3500 l0 -3500 3500 0 3500 0 0 3500 0 3500 -3500 0 -3500 0 0
-3500z m6200 0 l0 -2700 -2700 0 -2700 0 0 2700 0 2700 2700 0 2700 0 0 -2700z"/>
<path d="M1700 4925 l0 -55 78 0 c89 0 200 -21 235 -45 14 -9 30 -28 36 -43 8
-19 11 -378 9 -1289 -3 -1249 -3 -1263 -23 -1283 -29 -28 -163 -60 -257 -60
l-78 0 0 -55 0 -55 480 0 480 0 0 54 0 53 -122 5 c-132 5 -193 23 -233 68 -20
22 -20 38 -22 1204 -2 990 0 1176 11 1151 7 -16 208 -489 446 -1050 237 -561
448 -1057 467 -1102 l35 -83 123 0 123 0 84 188 c47 103 276 612 509 1131
l424 945 3 -1179 c2 -1108 1 -1180 -15 -1208 -33 -56 -129 -87 -269 -87 l-74
0 0 -55 0 -55 575 0 575 0 0 55 0 55 -73 0 c-143 0 -258 36 -278 86 -6 17 -8
494 -7 1301 l3 1275 23 19 c38 30 119 50 230 56 l102 6 0 53 0 54 -424 0 -424
0 -49 -112 c-27 -62 -247 -566 -488 -1120 -242 -555 -442 -1008 -445 -1008 -3
0 -224 503 -491 1118 l-486 1117 -397 3 -396 2 0 -55z"/>
</g>
</svg>
