<svg xmlns:xlink="http://www.w3.org/1999/xlink" class="icon-pack">
<symbol id="icon-ohrannaya-signalizaciya" viewBox="689 368.9 60 56.3">
<path d="M728.4,398.2c0-0.6-0.5-1.2-1.2-1.2s-1.2,0.5-1.2,1.2s0.5,1.2,1.2,1.2S728.4,398.8,728.4,398.2z"/>
<path d="M737.8,415.8h-1.4l-3.8-21.4c-0.7-3.9-4.1-6.7-8.1-6.7h-10.9c-4,0-7.4,2.8-8.1,6.7l-3.8,21.4h-1.4c-1.9,0-3.5,1.6-3.5,3.5
	v4.7c0,0.6,0.5,1.2,1.2,1.2h42.2c0.6,0,1.2-0.5,1.2-1.2v-4.7C741.3,417.3,739.7,415.8,737.8,415.8z M707.8,394.8
	c0.5-2.8,2.9-4.8,5.8-4.8h10.9c2.8,0,5.3,2,5.8,4.8l3.7,21H704L707.8,394.8z M738.9,422.8h-39.8v-3.5c0-0.6,0.5-1.2,1.2-1.2
	c2.6,0,35.9,0,37.5,0c0.6,0,1.2,0.5,1.2,1.2V422.8z"/>
<path d="M731,412l-1.7-9.5c-0.1-0.6-0.7-1.1-1.4-0.9c-0.6,0.1-1.1,0.7-0.9,1.4l1.7,9.5c0.1,0.6,0.7,1.1,1.4,0.9
	C730.7,413.3,731.1,412.7,731,412z"/>
<path d="M747.8,397h-10.1c-0.6,0-1.2,0.5-1.2,1.2s0.5,1.2,1.2,1.2h10.1c0.6,0,1.2-0.5,1.2-1.2S748.5,397,747.8,397z"/>
<path d="M689,398.2c0,0.6,0.5,1.2,1.2,1.2h10.1c0.6,0,1.2-0.5,1.2-1.2s-0.5-1.2-1.2-1.2h-10.1C689.5,397,689,397.5,689,398.2z"/>
<path d="M739.7,377.5c-0.5-0.5-1.2-0.5-1.7,0l-6.6,6.6c-0.5,0.5-0.5,1.2,0,1.7c0.5,0.5,1.2,0.5,1.7,0l6.6-6.6
	C740.2,378.7,740.2,377.9,739.7,377.5z"/>
<path d="M698.3,377.5c-0.5,0.5-0.5,1.2,0,1.7l6.6,6.6c0.5,0.5,1.2,0.5,1.7,0c0.5-0.5,0.5-1.2,0-1.7l-6.6-6.6
	C699.5,377,698.7,377,698.3,377.5z"/>
<path d="M720.2,379.4V370c0-0.6-0.5-1.2-1.2-1.2s-1.2,0.5-1.2,1.2v9.4c0,0.6,0.5,1.2,1.2,1.2S720.2,380.1,720.2,379.4z"/>
</symbol>
</svg>