<?xml version="1.0" encoding="utf-8"?>
<!-- Generator: Adobe Illustrator 22.1.0, SVG Export Plug-In . SVG Version: 6.00 Build 0)  -->
<svg version="1.1" id="Слой_1" xmlns="http://www.w3.org/2000/svg" xmlns:xlink="http://www.w3.org/1999/xlink" x="0px" y="0px"
	 viewBox="0 0 35 57.5" style="enable-background:new 0 0 35 57.5;" xml:space="preserve">
<g>
	<path d="M17.1,3.6v1.8c6.5,0,11.7,5.3,11.7,11.7h1.8C30.5,9.6,24.5,3.6,17.1,3.6L17.1,3.6z M17.1,3.6"/>
	<path d="M17.1,13.5c-2,0-3.6,1.6-3.6,3.6c0,2,1.6,3.6,3.6,3.6c2,0,3.6-1.6,3.6-3.6S19,13.5,17.1,13.5L17.1,13.5z M17.1,18.9
		c-1,0-1.8-0.8-1.8-1.8c0-1,0.8-1.8,1.8-1.8c1,0,1.8,0.8,1.8,1.8C18.9,18.1,18.1,18.9,17.1,18.9L17.1,18.9z M17.1,18.9"/>
	<path d="M32.3,25.2c-0.1,0-0.2,0-0.3,0c1.3-2.4,2.1-5.2,2.1-8.1C34.1,7.6,26.5,0,17.1,0C7.6,0,0,7.6,0,17.1c0,9.1,7.2,16.6,16.2,17
		v1.8h1.8v-1.8c4.7-0.2,8.9-2.4,11.8-5.6c0.2,0.9,0.9,1.6,1.7,1.9v14.5c0,1-0.8,1.8-1.8,1.8c-1,0-1.8-0.8-1.8-1.8v-8.1H6.3v20.6
		h21.5V48c0.5,0.3,1.2,0.5,1.8,0.5c2,0,3.6-1.6,3.6-3.6V30.4c1-0.4,1.8-1.4,1.8-2.5C35,26.4,33.8,25.2,32.3,25.2L32.3,25.2z
		 M26.1,55.7H8V53H9v-1.8H8V38.6h18v12.6h-0.9V53h0.9V55.7z M17.1,32.3c-8.4,0-15.3-6.9-15.3-15.3S8.6,1.8,17.1,1.8
		s15.3,6.9,15.3,15.3S25.5,32.3,17.1,32.3L17.1,32.3z M32.3,28.8c-0.5,0-0.9-0.4-0.9-0.9c0-0.5,0.4-0.9,0.9-0.9
		c0.5,0,0.9,0.4,0.9,0.9C33.2,28.3,32.8,28.8,32.3,28.8L32.3,28.8z M32.3,28.8"/>
	<rect x="10.8" y="51.2" width="12.6" height="1.8"/>
	<path d="M9.9,48.5h14.3v-7.1H9.9V48.5z M11.6,43.1h10.8v3.6H11.6V43.1z M11.6,43.1"/>
	<rect x="13.5" y="44" width="1.8" height="1.8"/>
	<rect x="16.2" y="44" width="1.8" height="1.8"/>
	<rect x="18.8" y="44" width="1.8" height="1.8"/>
</g>
</svg>
