<svg width="545" height="122" viewBox="0 0 545 122" fill="none" xmlns="http://www.w3.org/2000/svg">
<g clip-path="url(#clip0)">
<path fill-rule="evenodd" clip-rule="evenodd" d="M522.59 86.3741L534.297 121.965H516.086L512.887 112.839H497.805L494.606 121.965H475.411L492.391 71.2821H545V86.3741H522.59ZM504.942 82.5141L498.227 102.59H512.219L504.942 82.5141ZM476.927 50.6801H458.716L455.517 41.5551H440.435L437.236 50.6801H431.845H418.041H411.846V50.6811H365.599V-0.00292969H382.123V34.2191H395.412V-0.00292969H411.846V35.5881H423.097L435.021 -0.00292969H487.63V15.0901H465.22L476.927 50.6801ZM447.572 11.2291L440.857 31.3061H454.849L447.572 11.2291ZM370.844 71.2821H414.367V86.3741H387.367V92.2011H404.805V101.046H387.367V106.872H418.656V121.965H381.046L284.266 122V121.965H277.566V103.011L262.449 121.965H245.925V71.2821H262.449V90.2351L277.566 71.2821H294.089V106.749L304.531 106.767V96.4481C304.789 91.8381 305.563 87.9191 306.852 84.6901C308.141 81.4601 309.852 78.9101 311.984 77.0381C314.117 75.1661 316.725 73.7161 319.807 72.6861C322.889 71.6561 326.75 71.1891 331.39 71.2821H360.5V106.872H370.844V71.2821ZM343.554 83.9171H333.887C331.707 83.9171 329.949 84.3801 328.613 85.3041C327.277 86.2291 326.187 87.4101 325.344 88.8491C324.5 90.2881 323.961 92.8801 323.727 96.6231C323.797 100.04 324.271 102.561 325.15 104.187C326.029 105.814 327.16 107.089 328.543 108.013C329.926 108.938 331.73 109.4 333.957 109.4H343.554V83.9171ZM341.907 31.7271L326.79 50.6801H310.267V-0.00292969H326.79V18.9511L341.907 -0.00292969H358.431V50.6801H341.907V31.7271ZM265.579 81.3841V66.9201H275.267L265.579 81.3841ZM286.205 32.4291H272.916V50.6811H256.392V-0.00292969H272.916V17.4771H286.205V-0.00292969H302.728V50.6811H286.205V32.4291ZM228.525 41.5551H213.443L210.244 50.6811H192.033L208.732 -0.00292969H233.939L250.919 50.6811H231.724L228.525 41.5551ZM221.388 11.2291L214.111 31.3061H228.103L221.388 11.2291ZM195.313 24.0751C194.75 25.7131 193.204 27.6091 190.672 29.7611C188.141 31.9151 184.766 33.3071 180.547 33.9381H164.657V50.6811H146.306V-0.00292969H179.352C183.43 0.37207 186.805 1.42507 189.477 3.15607C192.149 4.88807 194.047 7.29807 195.172 10.3871C196.204 14.1311 196.625 16.9391 196.438 18.8101C196.25 20.6831 195.875 22.4381 195.313 24.0751ZM179.51 13.5631C178.678 12.9441 177.981 12.6331 177.419 12.6331H164.657V21.9691H177.454C178.133 21.9691 178.872 21.7181 179.669 21.2151C180.465 20.7121 180.887 19.4421 180.934 17.4061C180.817 15.4641 180.342 14.1831 179.51 13.5631ZM124.77 50.6811H108.246V15.0901H86.8199H86.1449H70.9289C67.3659 15.0901 64.7299 15.1951 63.0189 15.4061C61.3079 15.6161 59.7849 15.9671 58.4489 16.4591C57.1129 16.9501 55.9289 17.8051 54.8979 19.0211C53.8669 20.2381 53.2689 22.3911 53.1049 25.4791C53.2219 28.4751 53.8199 30.6161 54.8979 31.9031C55.9759 33.1891 57.2889 34.0441 58.8359 34.4651C60.3829 34.8861 61.9759 35.1791 63.6169 35.3421C65.2569 35.5061 67.6949 35.5881 70.9289 35.5881H86.8199V50.6811H64.3199C58.8119 50.6811 53.8309 49.7041 49.3789 47.7501C44.9259 45.7971 41.4159 42.8661 38.8499 38.9581C36.2829 35.0501 34.9999 30.2651 34.9999 24.6021C34.9999 20.6241 35.7669 17.0731 37.3029 13.9491C38.8369 10.8251 40.9639 8.22807 43.6839 6.15707C46.4019 4.08607 49.5249 2.54207 53.0519 1.52407C56.5799 0.50607 60.3349 -0.00292969 64.3199 -0.00292969H78.2419H86.1449H86.8199H140.871V15.0901H124.77V50.6811ZM46.2389 71.2821H46.3899H100.309V86.3741H73.3089V92.2011H90.7459V101.046H73.3089V106.872H104.598V121.965H56.7859V86.3741H46.3899V121.965H29.8669V103.713H16.5779V121.965H0.0549316V71.2821H16.5779V88.7611H29.8669V71.2821H46.2389ZM147.576 88.7611H160.865V71.2821H177.388V121.965H160.865V103.713H147.576V121.965H131.052V71.2821H147.576V88.7611ZM224.767 71.2821L241.748 121.965H222.553L219.353 112.839H204.272L201.072 121.965H182.861L199.561 71.2821H224.767ZM218.932 102.59L212.217 82.5141L204.94 102.59H218.932ZM441.179 88.7961H454.468V71.3171H470.991V122H454.468V103.749H441.179V122H424.656V71.3171H441.179V88.7961Z" fill="black"/>
</g>
<defs>
<clipPath id="clip0">
<rect width="545" height="122" fill="white"/>
</clipPath>
</defs>
</svg>
