<?xml version="1.0" standalone="no"?>
<!DOCTYPE svg PUBLIC "-//W3C//DTD SVG 20010904//EN"
 "http://www.w3.org/TR/2001/REC-SVG-20010904/DTD/svg10.dtd">
<svg version="1.0" xmlns="http://www.w3.org/2000/svg"
 width="1899.000000pt" height="1899.000000pt" viewBox="0 0 1899.000000 1899.000000"
 preserveAspectRatio="xMidYMid meet">
<metadata>
Created by potrace 1.11, written by Peter Selinger 2001-2013
</metadata>
<g transform="translate(0.000000,1899.000000) scale(0.100000,-0.100000)"
fill="#000000" stroke="none">
<path d="M9266 18978 c3 -4 -1 -8 -8 -9 -7 0 -64 -2 -126 -4 -116 -3 -266 -12
-357 -20 -27 -3 -95 -7 -151 -10 -55 -3 -112 -7 -125 -10 -13 -2 -49 -6 -79
-10 -30 -3 -68 -7 -85 -9 -16 -2 -64 -7 -105 -11 -41 -4 -78 -9 -81 -11 -4 -2
-105 -20 -225 -39 -215 -35 -304 -52 -534 -101 -231 -49 -520 -122 -536 -135
-6 -5 -14 -6 -17 -3 -3 3 -12 2 -19 -2 -7 -5 -17 -9 -23 -10 -8 -2 -138 -43
-295 -95 -132 -43 -430 -160 -605 -236 -49 -22 -110 -48 -135 -59 -25 -10
-155 -74 -290 -142 -234 -117 -375 -197 -630 -357 -63 -40 -149 -92 -190 -117
-63 -37 -179 -115 -215 -146 -5 -4 -32 -23 -60 -42 -27 -18 -52 -37 -55 -40
-3 -4 -15 -13 -28 -19 -13 -7 -31 -19 -40 -26 -9 -8 -105 -83 -212 -167 -107
-84 -202 -160 -210 -168 -9 -8 -40 -35 -69 -60 -29 -25 -66 -56 -81 -70 -15
-14 -58 -52 -96 -85 -313 -275 -702 -685 -965 -1017 -28 -35 -55 -70 -62 -78
-14 -18 -108 -144 -164 -220 -105 -144 -363 -539 -363 -556 0 -1 -13 -23 -30
-47 -16 -25 -30 -48 -30 -51 0 -4 -11 -23 -23 -44 -76 -120 -315 -593 -383
-759 -9 -21 -26 -60 -39 -88 -29 -64 -57 -132 -89 -218 -14 -37 -37 -96 -51
-131 -14 -36 -25 -68 -25 -73 0 -4 -7 -21 -15 -36 -8 -15 -17 -43 -21 -62 -3
-19 -9 -35 -13 -35 -4 0 -8 -6 -8 -12 0 -7 -14 -53 -31 -103 -53 -154 -177
-579 -197 -671 -2 -10 -17 -75 -33 -144 -43 -180 -116 -544 -128 -640 -3 -25
-9 -67 -14 -95 -6 -27 -12 -68 -15 -90 -2 -22 -7 -51 -10 -65 -3 -14 -7 -54
-10 -90 -2 -36 -11 -126 -19 -200 -8 -74 -18 -171 -21 -215 -6 -82 -10 -133
-20 -265 -3 -41 -9 -97 -12 -125 -13 -113 -19 -780 -8 -1000 8 -172 24 -416
30 -443 2 -10 6 -54 10 -98 12 -146 14 -169 16 -169 1 0 3 -9 4 -20 1 -11 5
-40 9 -65 4 -25 9 -63 12 -85 8 -66 12 -87 28 -160 8 -38 17 -90 20 -115 3
-25 8 -56 10 -70 2 -14 10 -59 16 -100 6 -41 18 -106 26 -145 7 -38 16 -81 18
-95 2 -14 14 -68 25 -120 11 -52 23 -106 25 -120 3 -14 8 -36 11 -50 3 -14 7
-36 10 -50 2 -14 12 -52 21 -85 17 -65 22 -88 30 -124 3 -13 9 -32 15 -43 5
-10 8 -18 5 -18 -2 0 11 -57 30 -127 19 -71 37 -136 39 -146 2 -9 7 -22 10
-27 3 -5 8 -20 11 -32 9 -38 12 -53 14 -55 2 -2 3 -6 4 -10 1 -5 10 -35 21
-68 10 -33 19 -64 21 -70 14 -59 223 -644 243 -683 15 -29 61 -139 61 -146 0
-4 9 -26 19 -49 10 -23 38 -87 61 -142 63 -150 272 -584 296 -615 6 -8 44 -78
84 -155 41 -77 122 -222 182 -323 59 -101 108 -186 108 -188 0 -2 15 -26 33
-53 17 -26 57 -87 87 -136 79 -125 362 -550 397 -595 6 -8 23 -28 36 -45 13
-16 94 -124 180 -240 86 -115 160 -214 164 -220 5 -5 33 -41 63 -80 30 -38 57
-72 60 -75 3 -3 21 -25 40 -50 19 -25 38 -49 43 -55 18 -23 50 -62 75 -90 15
-16 85 -98 155 -182 70 -83 131 -153 135 -155 4 -2 74 -77 157 -168 159 -176
529 -549 634 -640 35 -30 71 -62 80 -71 24 -24 120 -108 181 -159 29 -25 66
-56 81 -70 33 -30 35 -31 169 -140 58 -47 110 -89 116 -95 6 -5 64 -50 129
-100 65 -49 166 -127 224 -173 262 -203 822 -433 1586 -649 455 -128 682 -177
1245 -267 358 -58 395 -61 710 -73 260 -10 228 -11 674 36 l380 41 355 101
c453 128 785 250 1164 428 432 203 770 384 1137 609 304 187 361 226 615 426
160 126 407 335 575 486 162 146 396 355 520 465 267 236 291 258 530 485 102
97 207 196 234 221 27 24 173 177 325 339 270 289 585 621 787 830 56 58 205
225 331 373 l228 267 89 173 c49 94 94 175 100 179 6 4 8 8 4 8 -4 0 1 17 11
38 11 20 32 64 47 97 15 33 50 110 79 170 68 145 181 432 290 735 31 85 62
169 69 185 8 17 30 84 51 150 20 66 43 142 52 168 8 26 16 53 17 60 2 7 6 19
9 27 16 42 54 183 112 415 44 175 52 208 59 250 9 51 48 234 56 265 14 55 22
92 25 130 2 19 4 36 5 38 4 3 5 13 14 72 4 30 9 62 11 70 1 8 6 33 9 55 3 22
8 51 11 65 3 14 7 41 10 60 2 19 10 89 19 155 8 66 18 145 20 175 3 30 8 66
10 80 9 53 19 160 31 340 3 58 9 123 11 145 3 22 7 108 9 192 2 84 5 156 8
160 5 10 0 567 -5 603 -2 14 -1 40 3 58 4 17 4 32 0 32 -3 0 -6 19 -7 43 0 40
-8 161 -19 292 -3 33 -7 92 -10 130 -3 39 -7 86 -10 105 -2 19 -7 54 -10 77
-3 24 -9 74 -15 113 -5 39 -9 73 -8 78 1 4 -2 23 -5 42 -4 19 -9 53 -12 75 -8
64 -15 103 -35 210 -10 55 -21 116 -24 135 -11 67 -16 95 -37 185 -12 50 -23
98 -25 108 -2 10 -5 26 -8 35 -5 17 -12 50 -22 106 -14 74 -149 542 -205 707
-77 230 -181 507 -249 664 -28 66 -70 163 -92 215 -23 52 -45 99 -49 105 -5 5
-9 17 -9 26 0 10 -3 19 -7 21 -5 2 -48 82 -96 178 -99 197 -129 254 -210 392
-31 53 -57 99 -57 103 0 4 -28 48 -62 98 -33 50 -90 139 -126 197 -91 147
-290 430 -430 612 -65 84 -127 166 -138 183 -10 16 -30 41 -44 55 -14 15 -43
48 -65 75 -22 27 -44 53 -50 59 -5 6 -28 33 -50 61 -107 134 -573 600 -784
785 -41 36 -92 83 -115 105 -23 23 -77 70 -121 105 -44 36 -82 67 -85 70 -3 3
-21 17 -42 32 -20 15 -42 33 -50 40 -35 34 -108 88 -117 88 -6 0 -11 4 -11 8
0 5 -50 44 -111 87 -61 43 -116 83 -123 89 -6 6 -19 16 -28 21 -9 6 -61 40
-115 76 -54 36 -138 92 -188 124 -49 32 -92 61 -95 65 -3 3 -16 11 -30 18 -14
6 -32 16 -40 21 -50 32 -202 121 -206 121 -2 0 -23 12 -47 27 -65 41 -491 260
-597 306 -19 8 -74 34 -122 56 -48 22 -120 53 -160 70 -247 100 -347 138 -463
177 -71 24 -138 49 -147 54 -10 6 -27 10 -37 10 -11 0 -23 5 -26 10 -3 6 -16
10 -29 10 -12 0 -26 3 -30 8 -4 4 -11 7 -14 8 -4 0 -34 8 -67 18 -33 10 -64
19 -70 20 -5 1 -16 5 -22 9 -7 5 -13 6 -13 4 0 -3 -21 2 -47 10 -141 43 -268
76 -458 119 -5 1 -32 7 -60 14 -27 6 -61 14 -75 16 -14 3 -56 11 -95 19 -38 7
-88 17 -110 21 -22 4 -44 8 -50 10 -5 1 -30 5 -55 9 -25 3 -63 10 -85 15 -22
5 -60 11 -85 15 -25 3 -62 8 -83 11 -21 3 -55 7 -75 9 -54 4 -145 16 -162 20
-8 2 -44 6 -80 10 -36 3 -85 8 -110 10 -25 2 -90 7 -145 10 -55 3 -116 8 -135
10 -19 2 -82 5 -140 7 -58 1 -109 7 -113 13 -6 7 -10 6 -14 -2 -7 -18 -23 -16
-23 2 0 20 -10 19 -27 -2 -14 -17 -14 -17 -9 -1 5 16 -9 17 -175 17 -99 0
-178 -3 -175 -7 2 -4 -7 -8 -21 -9 -19 -1 -22 1 -12 8 10 6 8 8 -8 6 -12 0
-19 -5 -17 -9z"/>
</g>
</svg>
